<?xml version="1.0" encoding="utf-8" standalone="no"?>
<!DOCTYPE svg PUBLIC "-//W3C//DTD SVG 1.1//EN"
  "http://www.w3.org/Graphics/SVG/1.1/DTD/svg11.dtd">
<svg xmlns:xlink="http://www.w3.org/1999/xlink" width="712.8pt" height="573.12pt" viewBox="0 0 712.8 573.12" xmlns="http://www.w3.org/2000/svg" version="1.1">
 <metadata>
  <rdf:RDF xmlns:dc="http://purl.org/dc/elements/1.1/" xmlns:cc="http://creativecommons.org/ns#" xmlns:rdf="http://www.w3.org/1999/02/22-rdf-syntax-ns#">
   <cc:Work>
    <dc:type rdf:resource="http://purl.org/dc/dcmitype/StillImage"/>
    <dc:date>2025-11-13T00:43:04.294320</dc:date>
    <dc:format>image/svg+xml</dc:format>
    <dc:creator>
     <cc:Agent>
      <dc:title>Matplotlib v3.10.7, https://matplotlib.org/</dc:title>
     </cc:Agent>
    </dc:creator>
   </cc:Work>
  </rdf:RDF>
 </metadata>
 <defs>
  <style type="text/css">*{stroke-linejoin: round; stroke-linecap: butt}</style>
 </defs>
 <g id="figure_1">
  <g id="patch_1">
   <path d="M 0 573.12 
L 712.8 573.12 
L 712.8 0 
L 0 0 
z
" style="fill: #ffffff"/>
  </g>
  <g id="axes_1">
   <g id="patch_2">
    <path d="M 77.04 150.372 
L 251.64 150.372 
Q 255.132 150.372 255.132 146.88 
L 255.132 77.04 
Q 255.132 73.548 251.64 73.548 
L 77.04 73.548 
Q 73.548 73.548 73.548 77.04 
L 73.548 146.88 
Q 73.548 150.372 77.04 150.372 
z
" clip-path="url(#pcd48f724cf)" style="fill: #9b59b6; stroke: #000000; stroke-linejoin: miter"/>
   </g>
   <g id="patch_3">
    <path d="M 269.1 150.372 
L 443.7 150.372 
Q 447.192 150.372 447.192 146.88 
L 447.192 77.04 
Q 447.192 73.548 443.7 73.548 
L 269.1 73.548 
Q 265.608 73.548 265.608 77.04 
L 265.608 146.88 
Q 265.608 150.372 269.1 150.372 
z
" clip-path="url(#pcd48f724cf)" style="fill: #f39c12; stroke: #000000; stroke-linejoin: miter"/>
   </g>
   <g id="patch_4">
    <path d="M 461.16 150.372 
L 635.76 150.372 
Q 639.252 150.372 639.252 146.88 
L 639.252 77.04 
Q 639.252 73.548 635.76 73.548 
L 461.16 73.548 
Q 457.668 73.548 457.668 77.04 
L 457.668 146.88 
Q 457.668 150.372 461.16 150.372 
z
" clip-path="url(#pcd48f724cf)" style="fill: #2ecc71; stroke: #000000; stroke-linejoin: miter"/>
   </g>
   <g id="patch_5">
    <path d="M 77.04 255.132 
L 251.64 255.132 
Q 255.132 255.132 255.132 251.64 
L 255.132 209.736 
Q 255.132 206.244 251.64 206.244 
L 77.04 206.244 
Q 73.548 206.244 73.548 209.736 
L 73.548 251.64 
Q 73.548 255.132 77.04 255.132 
z
" clip-path="url(#pcd48f724cf)" style="fill: #d3d3d3; stroke: #000000; stroke-linejoin: miter"/>
   </g>
   <g id="patch_6">
    <path d="M 269.1 255.132 
L 443.7 255.132 
Q 447.192 255.132 447.192 251.64 
L 447.192 209.736 
Q 447.192 206.244 443.7 206.244 
L 269.1 206.244 
Q 265.608 206.244 265.608 209.736 
L 265.608 251.64 
Q 265.608 255.132 269.1 255.132 
z
" clip-path="url(#pcd48f724cf)" style="fill: #d3d3d3; stroke: #000000; stroke-linejoin: miter"/>
   </g>
   <g id="patch_7">
    <path d="M 461.16 255.132 
L 635.76 255.132 
Q 639.252 255.132 639.252 251.64 
L 639.252 209.736 
Q 639.252 206.244 635.76 206.244 
L 461.16 206.244 
Q 457.668 206.244 457.668 209.736 
L 457.668 251.64 
Q 457.668 255.132 461.16 255.132 
z
" clip-path="url(#pcd48f724cf)" style="fill: #d3d3d3; stroke: #000000; stroke-linejoin: miter"/>
   </g>
   <g id="patch_8">
    <path d="M 181.8 394.812 
L 531 394.812 
Q 534.492 394.812 534.492 391.32 
L 534.492 321.48 
Q 534.492 317.988 531 317.988 
L 181.8 317.988 
Q 178.308 317.988 178.308 321.48 
L 178.308 391.32 
Q 178.308 394.812 181.8 394.812 
z
" clip-path="url(#pcd48f724cf)" style="fill: #9b59b6; stroke: #000000; stroke-linejoin: miter"/>
   </g>
   <g id="patch_9">
    <path d="M 168.24303 254.762424 
Q 207.988171 286.558537 246.423755 317.307004 
" style="fill: none; stroke: #000000; stroke-width: 1.5; stroke-linecap: round"/>
    <path d="M 243.612628 311.216228 
L 246.423755 317.307004 
L 239.864457 315.90144 
" style="fill: none; stroke: #000000; stroke-width: 1.5; stroke-linecap: round"/>
   </g>
   <g id="patch_10">
    <path d="M 356.4 256.640142 
Q 356.4 286.560903 356.4 314.804613 
" style="fill: none; stroke: #000000; stroke-width: 1.5; stroke-linecap: round"/>
    <path d="M 359.4 308.804613 
L 356.4 314.804613 
L 353.4 308.804613 
" style="fill: none; stroke: #000000; stroke-width: 1.5; stroke-linecap: round"/>
   </g>
   <g id="patch_11">
    <path d="M 544.55697 254.762424 
Q 504.811829 286.558537 466.376245 317.307004 
" style="fill: none; stroke: #000000; stroke-width: 1.5; stroke-linecap: round"/>
    <path d="M 472.935543 315.90144 
L 466.376245 317.307004 
L 469.187372 311.216228 
" style="fill: none; stroke: #000000; stroke-width: 1.5; stroke-linecap: round"/>
   </g>
   <g id="text_1">
    <!-- COOLANT Loss Components -->
    <g transform="translate(258.794844 42.12) scale(0.14 -0.14)">
     <defs>
      <path id="Arial-BoldMT-43" d="M 3397 1684 
L 4294 1400 
Q 4088 650 3608 286 
Q 3128 -78 2391 -78 
Q 1478 -78 890 545 
Q 303 1169 303 2250 
Q 303 3394 893 4026 
Q 1484 4659 2447 4659 
Q 3288 4659 3813 4163 
Q 4125 3869 4281 3319 
L 3366 3100 
Q 3284 3456 3026 3662 
Q 2769 3869 2400 3869 
Q 1891 3869 1573 3503 
Q 1256 3138 1256 2319 
Q 1256 1450 1568 1081 
Q 1881 713 2381 713 
Q 2750 713 3015 947 
Q 3281 1181 3397 1684 
z
" transform="scale(0.015625)"/>
      <path id="Arial-BoldMT-4f" d="M 278 2263 
Q 278 2963 488 3438 
Q 644 3788 914 4066 
Q 1184 4344 1506 4478 
Q 1934 4659 2494 4659 
Q 3506 4659 4114 4031 
Q 4722 3403 4722 2284 
Q 4722 1175 4119 548 
Q 3516 -78 2506 -78 
Q 1484 -78 881 545 
Q 278 1169 278 2263 
z
M 1231 2294 
Q 1231 1516 1590 1114 
Q 1950 713 2503 713 
Q 3056 713 3411 1111 
Q 3766 1509 3766 2306 
Q 3766 3094 3420 3481 
Q 3075 3869 2503 3869 
Q 1931 3869 1581 3476 
Q 1231 3084 1231 2294 
z
" transform="scale(0.015625)"/>
      <path id="Arial-BoldMT-4c" d="M 491 0 
L 491 4544 
L 1416 4544 
L 1416 772 
L 3716 772 
L 3716 0 
L 491 0 
z
" transform="scale(0.015625)"/>
      <path id="Arial-BoldMT-41" d="M 4597 0 
L 3591 0 
L 3191 1041 
L 1359 1041 
L 981 0 
L 0 0 
L 1784 4581 
L 2763 4581 
L 4597 0 
z
M 2894 1813 
L 2263 3513 
L 1644 1813 
L 2894 1813 
z
" transform="scale(0.015625)"/>
      <path id="Arial-BoldMT-4e" d="M 475 0 
L 475 4581 
L 1375 4581 
L 3250 1522 
L 3250 4581 
L 4109 4581 
L 4109 0 
L 3181 0 
L 1334 2988 
L 1334 0 
L 475 0 
z
" transform="scale(0.015625)"/>
      <path id="Arial-BoldMT-54" d="M 1497 0 
L 1497 3806 
L 138 3806 
L 138 4581 
L 3778 4581 
L 3778 3806 
L 2422 3806 
L 2422 0 
L 1497 0 
z
" transform="scale(0.015625)"/>
      <path id="Arial-BoldMT-20" transform="scale(0.015625)"/>
      <path id="Arial-BoldMT-6f" d="M 256 1706 
Q 256 2144 472 2553 
Q 688 2963 1083 3178 
Q 1478 3394 1966 3394 
Q 2719 3394 3200 2905 
Q 3681 2416 3681 1669 
Q 3681 916 3195 420 
Q 2709 -75 1972 -75 
Q 1516 -75 1102 131 
Q 688 338 472 736 
Q 256 1134 256 1706 
z
M 1156 1659 
Q 1156 1166 1390 903 
Q 1625 641 1969 641 
Q 2313 641 2545 903 
Q 2778 1166 2778 1666 
Q 2778 2153 2545 2415 
Q 2313 2678 1969 2678 
Q 1625 2678 1390 2415 
Q 1156 2153 1156 1659 
z
" transform="scale(0.015625)"/>
      <path id="Arial-BoldMT-73" d="M 150 947 
L 1031 1081 
Q 1088 825 1259 692 
Q 1431 559 1741 559 
Q 2081 559 2253 684 
Q 2369 772 2369 919 
Q 2369 1019 2306 1084 
Q 2241 1147 2013 1200 
Q 950 1434 666 1628 
Q 272 1897 272 2375 
Q 272 2806 612 3100 
Q 953 3394 1669 3394 
Q 2350 3394 2681 3172 
Q 3013 2950 3138 2516 
L 2309 2363 
Q 2256 2556 2107 2659 
Q 1959 2763 1684 2763 
Q 1338 2763 1188 2666 
Q 1088 2597 1088 2488 
Q 1088 2394 1175 2328 
Q 1294 2241 1995 2081 
Q 2697 1922 2975 1691 
Q 3250 1456 3250 1038 
Q 3250 581 2869 253 
Q 2488 -75 1741 -75 
Q 1063 -75 667 200 
Q 272 475 150 947 
z
" transform="scale(0.015625)"/>
      <path id="Arial-BoldMT-6d" d="M 394 3319 
L 1203 3319 
L 1203 2866 
Q 1638 3394 2238 3394 
Q 2556 3394 2790 3262 
Q 3025 3131 3175 2866 
Q 3394 3131 3647 3262 
Q 3900 3394 4188 3394 
Q 4553 3394 4806 3245 
Q 5059 3097 5184 2809 
Q 5275 2597 5275 2122 
L 5275 0 
L 4397 0 
L 4397 1897 
Q 4397 2391 4306 2534 
Q 4184 2722 3931 2722 
Q 3747 2722 3584 2609 
Q 3422 2497 3350 2280 
Q 3278 2063 3278 1594 
L 3278 0 
L 2400 0 
L 2400 1819 
Q 2400 2303 2353 2443 
Q 2306 2584 2207 2653 
Q 2109 2722 1941 2722 
Q 1738 2722 1575 2612 
Q 1413 2503 1342 2297 
Q 1272 2091 1272 1613 
L 1272 0 
L 394 0 
L 394 3319 
z
" transform="scale(0.015625)"/>
      <path id="Arial-BoldMT-70" d="M 434 3319 
L 1253 3319 
L 1253 2831 
Q 1413 3081 1684 3237 
Q 1956 3394 2288 3394 
Q 2866 3394 3269 2941 
Q 3672 2488 3672 1678 
Q 3672 847 3265 386 
Q 2859 -75 2281 -75 
Q 2006 -75 1782 34 
Q 1559 144 1313 409 
L 1313 -1263 
L 434 -1263 
L 434 3319 
z
M 1303 1716 
Q 1303 1156 1525 889 
Q 1747 622 2066 622 
Q 2372 622 2575 867 
Q 2778 1113 2778 1672 
Q 2778 2194 2568 2447 
Q 2359 2700 2050 2700 
Q 1728 2700 1515 2451 
Q 1303 2203 1303 1716 
z
" transform="scale(0.015625)"/>
      <path id="Arial-BoldMT-6e" d="M 3478 0 
L 2600 0 
L 2600 1694 
Q 2600 2231 2544 2389 
Q 2488 2547 2361 2634 
Q 2234 2722 2056 2722 
Q 1828 2722 1647 2597 
Q 1466 2472 1398 2265 
Q 1331 2059 1331 1503 
L 1331 0 
L 453 0 
L 453 3319 
L 1269 3319 
L 1269 2831 
Q 1703 3394 2363 3394 
Q 2653 3394 2893 3289 
Q 3134 3184 3257 3021 
Q 3381 2859 3429 2653 
Q 3478 2447 3478 2063 
L 3478 0 
z
" transform="scale(0.015625)"/>
      <path id="Arial-BoldMT-65" d="M 2381 1056 
L 3256 909 
Q 3088 428 2723 176 
Q 2359 -75 1813 -75 
Q 947 -75 531 491 
Q 203 944 203 1634 
Q 203 2459 634 2926 
Q 1066 3394 1725 3394 
Q 2466 3394 2894 2905 
Q 3322 2416 3303 1406 
L 1103 1406 
Q 1113 1016 1316 798 
Q 1519 581 1822 581 
Q 2028 581 2168 693 
Q 2309 806 2381 1056 
z
M 2431 1944 
Q 2422 2325 2234 2523 
Q 2047 2722 1778 2722 
Q 1491 2722 1303 2513 
Q 1116 2303 1119 1944 
L 2431 1944 
z
" transform="scale(0.015625)"/>
      <path id="Arial-BoldMT-74" d="M 1981 3319 
L 1981 2619 
L 1381 2619 
L 1381 1281 
Q 1381 875 1398 808 
Q 1416 741 1477 697 
Q 1538 653 1625 653 
Q 1747 653 1978 738 
L 2053 56 
Q 1747 -75 1359 -75 
Q 1122 -75 931 4 
Q 741 84 652 211 
Q 563 338 528 553 
Q 500 706 500 1172 
L 500 2619 
L 97 2619 
L 97 3319 
L 500 3319 
L 500 3978 
L 1381 4491 
L 1381 3319 
L 1981 3319 
z
" transform="scale(0.015625)"/>
     </defs>
     <use xlink:href="#Arial-BoldMT-43"/>
     <use xlink:href="#Arial-BoldMT-4f" transform="translate(72.216797 0)"/>
     <use xlink:href="#Arial-BoldMT-4f" transform="translate(150 0)"/>
     <use xlink:href="#Arial-BoldMT-4c" transform="translate(227.783203 0)"/>
     <use xlink:href="#Arial-BoldMT-41" transform="translate(288.867188 0)"/>
     <use xlink:href="#Arial-BoldMT-4e" transform="translate(361.083984 0)"/>
     <use xlink:href="#Arial-BoldMT-54" transform="translate(433.300781 0)"/>
     <use xlink:href="#Arial-BoldMT-20" transform="translate(494.384766 0)"/>
     <use xlink:href="#Arial-BoldMT-4c" transform="translate(522.167969 0)"/>
     <use xlink:href="#Arial-BoldMT-6f" transform="translate(583.251953 0)"/>
     <use xlink:href="#Arial-BoldMT-73" transform="translate(644.335938 0)"/>
     <use xlink:href="#Arial-BoldMT-73" transform="translate(699.951172 0)"/>
     <use xlink:href="#Arial-BoldMT-20" transform="translate(755.566406 0)"/>
     <use xlink:href="#Arial-BoldMT-43" transform="translate(783.349609 0)"/>
     <use xlink:href="#Arial-BoldMT-6f" transform="translate(855.566406 0)"/>
     <use xlink:href="#Arial-BoldMT-6d" transform="translate(916.650391 0)"/>
     <use xlink:href="#Arial-BoldMT-70" transform="translate(1005.566406 0)"/>
     <use xlink:href="#Arial-BoldMT-6f" transform="translate(1066.650391 0)"/>
     <use xlink:href="#Arial-BoldMT-6e" transform="translate(1127.734375 0)"/>
     <use xlink:href="#Arial-BoldMT-65" transform="translate(1188.818359 0)"/>
     <use xlink:href="#Arial-BoldMT-6e" transform="translate(1244.433594 0)"/>
     <use xlink:href="#Arial-BoldMT-74" transform="translate(1305.517578 0)"/>
     <use xlink:href="#Arial-BoldMT-73" transform="translate(1338.818359 0)"/>
    </g>
   </g>
   <g id="text_2">
    <!-- Classification Loss -->
    <g style="fill: #ffffff" transform="translate(132.444609 109.980422) scale(0.07 -0.07)">
     <defs>
      <path id="Arial-BoldMT-6c" d="M 459 0 
L 459 4581 
L 1338 4581 
L 1338 0 
L 459 0 
z
" transform="scale(0.015625)"/>
      <path id="Arial-BoldMT-61" d="M 1116 2306 
L 319 2450 
Q 453 2931 781 3162 
Q 1109 3394 1756 3394 
Q 2344 3394 2631 3255 
Q 2919 3116 3036 2902 
Q 3153 2688 3153 2116 
L 3144 1091 
Q 3144 653 3186 445 
Q 3228 238 3344 0 
L 2475 0 
Q 2441 88 2391 259 
Q 2369 338 2359 363 
Q 2134 144 1878 34 
Q 1622 -75 1331 -75 
Q 819 -75 523 203 
Q 228 481 228 906 
Q 228 1188 362 1408 
Q 497 1628 739 1745 
Q 981 1863 1438 1950 
Q 2053 2066 2291 2166 
L 2291 2253 
Q 2291 2506 2166 2614 
Q 2041 2722 1694 2722 
Q 1459 2722 1328 2630 
Q 1197 2538 1116 2306 
z
M 2291 1594 
Q 2122 1538 1756 1459 
Q 1391 1381 1278 1306 
Q 1106 1184 1106 997 
Q 1106 813 1243 678 
Q 1381 544 1594 544 
Q 1831 544 2047 700 
Q 2206 819 2256 991 
Q 2291 1103 2291 1419 
L 2291 1594 
z
" transform="scale(0.015625)"/>
      <path id="Arial-BoldMT-69" d="M 459 3769 
L 459 4581 
L 1338 4581 
L 1338 3769 
L 459 3769 
z
M 459 0 
L 459 3319 
L 1338 3319 
L 1338 0 
L 459 0 
z
" transform="scale(0.015625)"/>
      <path id="Arial-BoldMT-66" d="M 75 3319 
L 563 3319 
L 563 3569 
Q 563 3988 652 4194 
Q 741 4400 980 4529 
Q 1219 4659 1584 4659 
Q 1959 4659 2319 4547 
L 2200 3934 
Q 1991 3984 1797 3984 
Q 1606 3984 1523 3895 
Q 1441 3806 1441 3553 
L 1441 3319 
L 2097 3319 
L 2097 2628 
L 1441 2628 
L 1441 0 
L 563 0 
L 563 2628 
L 75 2628 
L 75 3319 
z
" transform="scale(0.015625)"/>
      <path id="Arial-BoldMT-63" d="M 3353 2338 
L 2488 2181 
Q 2444 2441 2289 2572 
Q 2134 2703 1888 2703 
Q 1559 2703 1364 2476 
Q 1169 2250 1169 1719 
Q 1169 1128 1367 884 
Q 1566 641 1900 641 
Q 2150 641 2309 783 
Q 2469 925 2534 1272 
L 3397 1125 
Q 3263 531 2881 228 
Q 2500 -75 1859 -75 
Q 1131 -75 698 384 
Q 266 844 266 1656 
Q 266 2478 700 2936 
Q 1134 3394 1875 3394 
Q 2481 3394 2839 3133 
Q 3197 2872 3353 2338 
z
" transform="scale(0.015625)"/>
     </defs>
     <use xlink:href="#Arial-BoldMT-43"/>
     <use xlink:href="#Arial-BoldMT-6c" transform="translate(72.216797 0)"/>
     <use xlink:href="#Arial-BoldMT-61" transform="translate(100 0)"/>
     <use xlink:href="#Arial-BoldMT-73" transform="translate(155.615234 0)"/>
     <use xlink:href="#Arial-BoldMT-73" transform="translate(211.230469 0)"/>
     <use xlink:href="#Arial-BoldMT-69" transform="translate(266.845703 0)"/>
     <use xlink:href="#Arial-BoldMT-66" transform="translate(294.628906 0)"/>
     <use xlink:href="#Arial-BoldMT-69" transform="translate(327.929688 0)"/>
     <use xlink:href="#Arial-BoldMT-63" transform="translate(355.712891 0)"/>
     <use xlink:href="#Arial-BoldMT-61" transform="translate(411.328125 0)"/>
     <use xlink:href="#Arial-BoldMT-74" transform="translate(466.943359 0)"/>
     <use xlink:href="#Arial-BoldMT-69" transform="translate(500.244141 0)"/>
     <use xlink:href="#Arial-BoldMT-6f" transform="translate(528.027344 0)"/>
     <use xlink:href="#Arial-BoldMT-6e" transform="translate(589.111328 0)"/>
     <use xlink:href="#Arial-BoldMT-20" transform="translate(650.195312 0)"/>
     <use xlink:href="#Arial-BoldMT-4c" transform="translate(677.978516 0)"/>
     <use xlink:href="#Arial-BoldMT-6f" transform="translate(739.0625 0)"/>
     <use xlink:href="#Arial-BoldMT-73" transform="translate(800.146484 0)"/>
     <use xlink:href="#Arial-BoldMT-73" transform="translate(855.761719 0)"/>
    </g>
    <!-- CrossEntropy(logits, labels) -->
    <g style="fill: #ffffff" transform="translate(117.669141 117.476766) scale(0.07 -0.07)">
     <defs>
      <path id="Arial-BoldMT-72" d="M 1300 0 
L 422 0 
L 422 3319 
L 1238 3319 
L 1238 2847 
Q 1447 3181 1614 3287 
Q 1781 3394 1994 3394 
Q 2294 3394 2572 3228 
L 2300 2463 
Q 2078 2606 1888 2606 
Q 1703 2606 1575 2504 
Q 1447 2403 1373 2137 
Q 1300 1872 1300 1025 
L 1300 0 
z
" transform="scale(0.015625)"/>
      <path id="Arial-BoldMT-45" d="M 466 0 
L 466 4581 
L 3863 4581 
L 3863 3806 
L 1391 3806 
L 1391 2791 
L 3691 2791 
L 3691 2019 
L 1391 2019 
L 1391 772 
L 3950 772 
L 3950 0 
L 466 0 
z
" transform="scale(0.015625)"/>
      <path id="Arial-BoldMT-79" d="M 44 3319 
L 978 3319 
L 1772 963 
L 2547 3319 
L 3456 3319 
L 2284 125 
L 2075 -453 
Q 1959 -744 1854 -897 
Q 1750 -1050 1614 -1145 
Q 1478 -1241 1279 -1294 
Q 1081 -1347 831 -1347 
Q 578 -1347 334 -1294 
L 256 -606 
Q 463 -647 628 -647 
Q 934 -647 1081 -467 
Q 1228 -288 1306 -9 
L 44 3319 
z
" transform="scale(0.015625)"/>
      <path id="Arial-BoldMT-28" d="M 1916 -1347 
L 1313 -1347 
Q 834 -625 584 153 
Q 334 931 334 1659 
Q 334 2563 644 3369 
Q 913 4069 1325 4659 
L 1925 4659 
Q 1497 3713 1336 3048 
Q 1175 2384 1175 1641 
Q 1175 1128 1270 590 
Q 1366 53 1531 -431 
Q 1641 -750 1916 -1347 
z
" transform="scale(0.015625)"/>
      <path id="Arial-BoldMT-67" d="M 378 -219 
L 1381 -341 
Q 1406 -516 1497 -581 
Q 1622 -675 1891 -675 
Q 2234 -675 2406 -572 
Q 2522 -503 2581 -350 
Q 2622 -241 2622 53 
L 2622 538 
Q 2228 0 1628 0 
Q 959 0 569 566 
Q 263 1013 263 1678 
Q 263 2513 664 2953 
Q 1066 3394 1663 3394 
Q 2278 3394 2678 2853 
L 2678 3319 
L 3500 3319 
L 3500 341 
Q 3500 -247 3403 -537 
Q 3306 -828 3131 -993 
Q 2956 -1159 2664 -1253 
Q 2372 -1347 1925 -1347 
Q 1081 -1347 728 -1058 
Q 375 -769 375 -325 
Q 375 -281 378 -219 
z
M 1163 1728 
Q 1163 1200 1367 954 
Q 1572 709 1872 709 
Q 2194 709 2416 961 
Q 2638 1213 2638 1706 
Q 2638 2222 2425 2472 
Q 2213 2722 1888 2722 
Q 1572 2722 1367 2476 
Q 1163 2231 1163 1728 
z
" transform="scale(0.015625)"/>
      <path id="Arial-BoldMT-2c" d="M 438 878 
L 1316 878 
L 1316 250 
Q 1316 -131 1250 -351 
Q 1184 -572 1001 -747 
Q 819 -922 538 -1022 
L 366 -659 
Q 631 -572 743 -419 
Q 856 -266 863 0 
L 438 0 
L 438 878 
z
" transform="scale(0.015625)"/>
      <path id="Arial-BoldMT-62" d="M 422 0 
L 422 4581 
L 1300 4581 
L 1300 2931 
Q 1706 3394 2263 3394 
Q 2869 3394 3266 2955 
Q 3663 2516 3663 1694 
Q 3663 844 3258 384 
Q 2853 -75 2275 -75 
Q 1991 -75 1714 67 
Q 1438 209 1238 488 
L 1238 0 
L 422 0 
z
M 1294 1731 
Q 1294 1216 1456 969 
Q 1684 619 2063 619 
Q 2353 619 2558 867 
Q 2763 1116 2763 1650 
Q 2763 2219 2556 2470 
Q 2350 2722 2028 2722 
Q 1713 2722 1503 2476 
Q 1294 2231 1294 1731 
z
" transform="scale(0.015625)"/>
      <path id="Arial-BoldMT-29" d="M 216 -1347 
Q 475 -791 581 -494 
Q 688 -197 778 190 
Q 869 578 912 926 
Q 956 1275 956 1641 
Q 956 2384 797 3048 
Q 638 3713 209 4659 
L 806 4659 
Q 1278 3988 1539 3234 
Q 1800 2481 1800 1706 
Q 1800 1053 1594 306 
Q 1359 -531 822 -1347 
L 216 -1347 
z
" transform="scale(0.015625)"/>
     </defs>
     <use xlink:href="#Arial-BoldMT-43"/>
     <use xlink:href="#Arial-BoldMT-72" transform="translate(72.216797 0)"/>
     <use xlink:href="#Arial-BoldMT-6f" transform="translate(111.132812 0)"/>
     <use xlink:href="#Arial-BoldMT-73" transform="translate(172.216797 0)"/>
     <use xlink:href="#Arial-BoldMT-73" transform="translate(227.832031 0)"/>
     <use xlink:href="#Arial-BoldMT-45" transform="translate(283.447266 0)"/>
     <use xlink:href="#Arial-BoldMT-6e" transform="translate(350.146484 0)"/>
     <use xlink:href="#Arial-BoldMT-74" transform="translate(411.230469 0)"/>
     <use xlink:href="#Arial-BoldMT-72" transform="translate(444.53125 0)"/>
     <use xlink:href="#Arial-BoldMT-6f" transform="translate(483.447266 0)"/>
     <use xlink:href="#Arial-BoldMT-70" transform="translate(544.53125 0)"/>
     <use xlink:href="#Arial-BoldMT-79" transform="translate(605.615234 0)"/>
     <use xlink:href="#Arial-BoldMT-28" transform="translate(661.230469 0)"/>
     <use xlink:href="#Arial-BoldMT-6c" transform="translate(694.53125 0)"/>
     <use xlink:href="#Arial-BoldMT-6f" transform="translate(722.314453 0)"/>
     <use xlink:href="#Arial-BoldMT-67" transform="translate(783.398438 0)"/>
     <use xlink:href="#Arial-BoldMT-69" transform="translate(844.482422 0)"/>
     <use xlink:href="#Arial-BoldMT-74" transform="translate(872.265625 0)"/>
     <use xlink:href="#Arial-BoldMT-73" transform="translate(905.566406 0)"/>
     <use xlink:href="#Arial-BoldMT-2c" transform="translate(961.181641 0)"/>
     <use xlink:href="#Arial-BoldMT-20" transform="translate(988.964844 0)"/>
     <use xlink:href="#Arial-BoldMT-6c" transform="translate(1016.748047 0)"/>
     <use xlink:href="#Arial-BoldMT-61" transform="translate(1044.53125 0)"/>
     <use xlink:href="#Arial-BoldMT-62" transform="translate(1100.146484 0)"/>
     <use xlink:href="#Arial-BoldMT-65" transform="translate(1161.230469 0)"/>
     <use xlink:href="#Arial-BoldMT-6c" transform="translate(1216.845703 0)"/>
     <use xlink:href="#Arial-BoldMT-73" transform="translate(1244.628906 0)"/>
     <use xlink:href="#Arial-BoldMT-29" transform="translate(1300.244141 0)"/>
    </g>
   </g>
   <g id="text_3">
    <!-- Contrastive Loss -->
    <g style="fill: #ffffff" transform="translate(328.005703 109.980422) scale(0.07 -0.07)">
     <defs>
      <path id="Arial-BoldMT-76" d="M 1372 0 
L 34 3319 
L 956 3319 
L 1581 1625 
L 1763 1059 
Q 1834 1275 1853 1344 
Q 1897 1484 1947 1625 
L 2578 3319 
L 3481 3319 
L 2163 0 
L 1372 0 
z
" transform="scale(0.015625)"/>
     </defs>
     <use xlink:href="#Arial-BoldMT-43"/>
     <use xlink:href="#Arial-BoldMT-6f" transform="translate(72.216797 0)"/>
     <use xlink:href="#Arial-BoldMT-6e" transform="translate(133.300781 0)"/>
     <use xlink:href="#Arial-BoldMT-74" transform="translate(194.384766 0)"/>
     <use xlink:href="#Arial-BoldMT-72" transform="translate(227.685547 0)"/>
     <use xlink:href="#Arial-BoldMT-61" transform="translate(266.601562 0)"/>
     <use xlink:href="#Arial-BoldMT-73" transform="translate(322.216797 0)"/>
     <use xlink:href="#Arial-BoldMT-74" transform="translate(377.832031 0)"/>
     <use xlink:href="#Arial-BoldMT-69" transform="translate(411.132812 0)"/>
     <use xlink:href="#Arial-BoldMT-76" transform="translate(438.916016 0)"/>
     <use xlink:href="#Arial-BoldMT-65" transform="translate(494.53125 0)"/>
     <use xlink:href="#Arial-BoldMT-20" transform="translate(550.146484 0)"/>
     <use xlink:href="#Arial-BoldMT-4c" transform="translate(577.929688 0)"/>
     <use xlink:href="#Arial-BoldMT-6f" transform="translate(639.013672 0)"/>
     <use xlink:href="#Arial-BoldMT-73" transform="translate(700.097656 0)"/>
     <use xlink:href="#Arial-BoldMT-73" transform="translate(755.712891 0)"/>
    </g>
    <!-- InfoNCE(text, image) -->
    <g style="fill: #ffffff" transform="translate(321.982969 117.476766) scale(0.07 -0.07)">
     <defs>
      <path id="Arial-BoldMT-49" d="M 438 0 
L 438 4581 
L 1363 4581 
L 1363 0 
L 438 0 
z
" transform="scale(0.015625)"/>
      <path id="Arial-BoldMT-78" d="M 38 0 
L 1234 1709 
L 88 3319 
L 1159 3319 
L 1747 2406 
L 2366 3319 
L 3397 3319 
L 2272 1747 
L 3500 0 
L 2422 0 
L 1747 1028 
L 1066 0 
L 38 0 
z
" transform="scale(0.015625)"/>
     </defs>
     <use xlink:href="#Arial-BoldMT-49"/>
     <use xlink:href="#Arial-BoldMT-6e" transform="translate(27.783203 0)"/>
     <use xlink:href="#Arial-BoldMT-66" transform="translate(88.867188 0)"/>
     <use xlink:href="#Arial-BoldMT-6f" transform="translate(122.167969 0)"/>
     <use xlink:href="#Arial-BoldMT-4e" transform="translate(183.251953 0)"/>
     <use xlink:href="#Arial-BoldMT-43" transform="translate(255.46875 0)"/>
     <use xlink:href="#Arial-BoldMT-45" transform="translate(327.685547 0)"/>
     <use xlink:href="#Arial-BoldMT-28" transform="translate(394.384766 0)"/>
     <use xlink:href="#Arial-BoldMT-74" transform="translate(427.685547 0)"/>
     <use xlink:href="#Arial-BoldMT-65" transform="translate(460.986328 0)"/>
     <use xlink:href="#Arial-BoldMT-78" transform="translate(516.601562 0)"/>
     <use xlink:href="#Arial-BoldMT-74" transform="translate(572.216797 0)"/>
     <use xlink:href="#Arial-BoldMT-2c" transform="translate(605.517578 0)"/>
     <use xlink:href="#Arial-BoldMT-20" transform="translate(633.300781 0)"/>
     <use xlink:href="#Arial-BoldMT-69" transform="translate(661.083984 0)"/>
     <use xlink:href="#Arial-BoldMT-6d" transform="translate(688.867188 0)"/>
     <use xlink:href="#Arial-BoldMT-61" transform="translate(777.783203 0)"/>
     <use xlink:href="#Arial-BoldMT-67" transform="translate(833.398438 0)"/>
     <use xlink:href="#Arial-BoldMT-65" transform="translate(894.482422 0)"/>
     <use xlink:href="#Arial-BoldMT-29" transform="translate(950.097656 0)"/>
    </g>
   </g>
   <g id="text_4">
    <!-- Similarity Loss -->
    <g style="fill: #ffffff" transform="translate(523.562969 109.977141) scale(0.07 -0.07)">
     <defs>
      <path id="Arial-BoldMT-53" d="M 231 1491 
L 1131 1578 
Q 1213 1125 1461 912 
Q 1709 700 2131 700 
Q 2578 700 2804 889 
Q 3031 1078 3031 1331 
Q 3031 1494 2936 1608 
Q 2841 1722 2603 1806 
Q 2441 1863 1863 2006 
Q 1119 2191 819 2459 
Q 397 2838 397 3381 
Q 397 3731 595 4036 
Q 794 4341 1167 4500 
Q 1541 4659 2069 4659 
Q 2931 4659 3367 4281 
Q 3803 3903 3825 3272 
L 2900 3231 
Q 2841 3584 2645 3739 
Q 2450 3894 2059 3894 
Q 1656 3894 1428 3728 
Q 1281 3622 1281 3444 
Q 1281 3281 1419 3166 
Q 1594 3019 2269 2859 
Q 2944 2700 3267 2529 
Q 3591 2359 3773 2064 
Q 3956 1769 3956 1334 
Q 3956 941 3737 597 
Q 3519 253 3119 86 
Q 2719 -81 2122 -81 
Q 1253 -81 787 320 
Q 322 722 231 1491 
z
" transform="scale(0.015625)"/>
     </defs>
     <use xlink:href="#Arial-BoldMT-53"/>
     <use xlink:href="#Arial-BoldMT-69" transform="translate(66.699219 0)"/>
     <use xlink:href="#Arial-BoldMT-6d" transform="translate(94.482422 0)"/>
     <use xlink:href="#Arial-BoldMT-69" transform="translate(183.398438 0)"/>
     <use xlink:href="#Arial-BoldMT-6c" transform="translate(211.181641 0)"/>
     <use xlink:href="#Arial-BoldMT-61" transform="translate(238.964844 0)"/>
     <use xlink:href="#Arial-BoldMT-72" transform="translate(294.580078 0)"/>
     <use xlink:href="#Arial-BoldMT-69" transform="translate(333.496094 0)"/>
     <use xlink:href="#Arial-BoldMT-74" transform="translate(361.279297 0)"/>
     <use xlink:href="#Arial-BoldMT-79" transform="translate(394.580078 0)"/>
     <use xlink:href="#Arial-BoldMT-20" transform="translate(450.195312 0)"/>
     <use xlink:href="#Arial-BoldMT-4c" transform="translate(477.978516 0)"/>
     <use xlink:href="#Arial-BoldMT-6f" transform="translate(539.0625 0)"/>
     <use xlink:href="#Arial-BoldMT-73" transform="translate(600.146484 0)"/>
     <use xlink:href="#Arial-BoldMT-73" transform="translate(655.761719 0)"/>
    </g>
    <!-- CrossEntropy(sim, sim_labels) -->
    <g style="fill: #ffffff" transform="translate(497.112813 117.565359) scale(0.07 -0.07)">
     <defs>
      <path id="Arial-BoldMT-5f" d="M -59 -1266 
L -59 -697 
L 3591 -697 
L 3591 -1266 
L -59 -1266 
z
" transform="scale(0.015625)"/>
     </defs>
     <use xlink:href="#Arial-BoldMT-43"/>
     <use xlink:href="#Arial-BoldMT-72" transform="translate(72.216797 0)"/>
     <use xlink:href="#Arial-BoldMT-6f" transform="translate(111.132812 0)"/>
     <use xlink:href="#Arial-BoldMT-73" transform="translate(172.216797 0)"/>
     <use xlink:href="#Arial-BoldMT-73" transform="translate(227.832031 0)"/>
     <use xlink:href="#Arial-BoldMT-45" transform="translate(283.447266 0)"/>
     <use xlink:href="#Arial-BoldMT-6e" transform="translate(350.146484 0)"/>
     <use xlink:href="#Arial-BoldMT-74" transform="translate(411.230469 0)"/>
     <use xlink:href="#Arial-BoldMT-72" transform="translate(444.53125 0)"/>
     <use xlink:href="#Arial-BoldMT-6f" transform="translate(483.447266 0)"/>
     <use xlink:href="#Arial-BoldMT-70" transform="translate(544.53125 0)"/>
     <use xlink:href="#Arial-BoldMT-79" transform="translate(605.615234 0)"/>
     <use xlink:href="#Arial-BoldMT-28" transform="translate(661.230469 0)"/>
     <use xlink:href="#Arial-BoldMT-73" transform="translate(694.53125 0)"/>
     <use xlink:href="#Arial-BoldMT-69" transform="translate(750.146484 0)"/>
     <use xlink:href="#Arial-BoldMT-6d" transform="translate(777.929688 0)"/>
     <use xlink:href="#Arial-BoldMT-2c" transform="translate(866.845703 0)"/>
     <use xlink:href="#Arial-BoldMT-20" transform="translate(894.628906 0)"/>
     <use xlink:href="#Arial-BoldMT-73" transform="translate(922.412109 0)"/>
     <use xlink:href="#Arial-BoldMT-69" transform="translate(978.027344 0)"/>
     <use xlink:href="#Arial-BoldMT-6d" transform="translate(1005.810547 0)"/>
     <use xlink:href="#Arial-BoldMT-5f" transform="translate(1094.726562 0)"/>
     <use xlink:href="#Arial-BoldMT-6c" transform="translate(1150.341797 0)"/>
     <use xlink:href="#Arial-BoldMT-61" transform="translate(1178.125 0)"/>
     <use xlink:href="#Arial-BoldMT-62" transform="translate(1233.740234 0)"/>
     <use xlink:href="#Arial-BoldMT-65" transform="translate(1294.824219 0)"/>
     <use xlink:href="#Arial-BoldMT-6c" transform="translate(1350.439453 0)"/>
     <use xlink:href="#Arial-BoldMT-73" transform="translate(1378.222656 0)"/>
     <use xlink:href="#Arial-BoldMT-29" transform="translate(1433.837891 0)"/>
    </g>
   </g>
   <g id="text_5">
    <!-- Weight: 1.0 -->
    <g style="fill: #ffffff" transform="translate(145.735312 232.466984) scale(0.07 -0.07)">
     <defs>
      <path id="Arial-BoldMT-57" d="M 1116 0 
L 22 4581 
L 969 4581 
L 1659 1434 
L 2497 4581 
L 3597 4581 
L 4400 1381 
L 5103 4581 
L 6034 4581 
L 4922 0 
L 3941 0 
L 3028 3425 
L 2119 0 
L 1116 0 
z
" transform="scale(0.015625)"/>
      <path id="Arial-BoldMT-68" d="M 1334 4581 
L 1334 2897 
Q 1759 3394 2350 3394 
Q 2653 3394 2897 3281 
Q 3141 3169 3264 2994 
Q 3388 2819 3433 2606 
Q 3478 2394 3478 1947 
L 3478 0 
L 2600 0 
L 2600 1753 
Q 2600 2275 2550 2415 
Q 2500 2556 2373 2639 
Q 2247 2722 2056 2722 
Q 1838 2722 1666 2615 
Q 1494 2509 1414 2295 
Q 1334 2081 1334 1663 
L 1334 0 
L 456 0 
L 456 4581 
L 1334 4581 
z
" transform="scale(0.015625)"/>
      <path id="Arial-BoldMT-3a" d="M 628 2441 
L 628 3319 
L 1506 3319 
L 1506 2441 
L 628 2441 
z
M 628 0 
L 628 878 
L 1506 878 
L 1506 0 
L 628 0 
z
" transform="scale(0.015625)"/>
      <path id="Arial-BoldMT-31" d="M 2519 0 
L 1641 0 
L 1641 3309 
Q 1159 2859 506 2644 
L 506 3441 
Q 850 3553 1253 3867 
Q 1656 4181 1806 4600 
L 2519 4600 
L 2519 0 
z
" transform="scale(0.015625)"/>
      <path id="Arial-BoldMT-2e" d="M 459 0 
L 459 878 
L 1338 878 
L 1338 0 
L 459 0 
z
" transform="scale(0.015625)"/>
      <path id="Arial-BoldMT-30" d="M 1756 4600 
Q 2422 4600 2797 4125 
Q 3244 3563 3244 2259 
Q 3244 959 2794 391 
Q 2422 -78 1756 -78 
Q 1088 -78 678 436 
Q 269 950 269 2269 
Q 269 3563 719 4131 
Q 1091 4600 1756 4600 
z
M 1756 3872 
Q 1597 3872 1472 3770 
Q 1347 3669 1278 3406 
Q 1188 3066 1188 2259 
Q 1188 1453 1269 1151 
Q 1350 850 1473 750 
Q 1597 650 1756 650 
Q 1916 650 2041 751 
Q 2166 853 2234 1116 
Q 2325 1453 2325 2259 
Q 2325 3066 2244 3367 
Q 2163 3669 2039 3770 
Q 1916 3872 1756 3872 
z
" transform="scale(0.015625)"/>
     </defs>
     <use xlink:href="#Arial-BoldMT-57"/>
     <use xlink:href="#Arial-BoldMT-65" transform="translate(92.634766 0)"/>
     <use xlink:href="#Arial-BoldMT-69" transform="translate(148.25 0)"/>
     <use xlink:href="#Arial-BoldMT-67" transform="translate(176.033203 0)"/>
     <use xlink:href="#Arial-BoldMT-68" transform="translate(237.117188 0)"/>
     <use xlink:href="#Arial-BoldMT-74" transform="translate(298.201172 0)"/>
     <use xlink:href="#Arial-BoldMT-3a" transform="translate(331.501953 0)"/>
     <use xlink:href="#Arial-BoldMT-20" transform="translate(364.802734 0)"/>
     <use xlink:href="#Arial-BoldMT-31" transform="translate(392.585938 0)"/>
     <use xlink:href="#Arial-BoldMT-2e" transform="translate(448.201172 0)"/>
     <use xlink:href="#Arial-BoldMT-30" transform="translate(475.984375 0)"/>
    </g>
   </g>
   <g id="text_6">
    <!-- Weight: 1.0 -->
    <g style="fill: #ffffff" transform="translate(337.795313 232.466984) scale(0.07 -0.07)">
     <use xlink:href="#Arial-BoldMT-57"/>
     <use xlink:href="#Arial-BoldMT-65" transform="translate(92.634766 0)"/>
     <use xlink:href="#Arial-BoldMT-69" transform="translate(148.25 0)"/>
     <use xlink:href="#Arial-BoldMT-67" transform="translate(176.033203 0)"/>
     <use xlink:href="#Arial-BoldMT-68" transform="translate(237.117188 0)"/>
     <use xlink:href="#Arial-BoldMT-74" transform="translate(298.201172 0)"/>
     <use xlink:href="#Arial-BoldMT-3a" transform="translate(331.501953 0)"/>
     <use xlink:href="#Arial-BoldMT-20" transform="translate(364.802734 0)"/>
     <use xlink:href="#Arial-BoldMT-31" transform="translate(392.585938 0)"/>
     <use xlink:href="#Arial-BoldMT-2e" transform="translate(448.201172 0)"/>
     <use xlink:href="#Arial-BoldMT-30" transform="translate(475.984375 0)"/>
    </g>
   </g>
   <g id="text_7">
    <!-- Weight: 0.5 -->
    <g style="fill: #ffffff" transform="translate(529.855313 232.466984) scale(0.07 -0.07)">
     <defs>
      <path id="Arial-BoldMT-35" d="M 284 1178 
L 1159 1269 
Q 1197 972 1381 798 
Q 1566 625 1806 625 
Q 2081 625 2272 848 
Q 2463 1072 2463 1522 
Q 2463 1944 2273 2155 
Q 2084 2366 1781 2366 
Q 1403 2366 1103 2031 
L 391 2134 
L 841 4519 
L 3163 4519 
L 3163 3697 
L 1506 3697 
L 1369 2919 
Q 1663 3066 1969 3066 
Q 2553 3066 2959 2641 
Q 3366 2216 3366 1538 
Q 3366 972 3038 528 
Q 2591 -78 1797 -78 
Q 1163 -78 763 262 
Q 363 603 284 1178 
z
" transform="scale(0.015625)"/>
     </defs>
     <use xlink:href="#Arial-BoldMT-57"/>
     <use xlink:href="#Arial-BoldMT-65" transform="translate(92.634766 0)"/>
     <use xlink:href="#Arial-BoldMT-69" transform="translate(148.25 0)"/>
     <use xlink:href="#Arial-BoldMT-67" transform="translate(176.033203 0)"/>
     <use xlink:href="#Arial-BoldMT-68" transform="translate(237.117188 0)"/>
     <use xlink:href="#Arial-BoldMT-74" transform="translate(298.201172 0)"/>
     <use xlink:href="#Arial-BoldMT-3a" transform="translate(331.501953 0)"/>
     <use xlink:href="#Arial-BoldMT-20" transform="translate(364.802734 0)"/>
     <use xlink:href="#Arial-BoldMT-30" transform="translate(392.585938 0)"/>
     <use xlink:href="#Arial-BoldMT-2e" transform="translate(448.201172 0)"/>
     <use xlink:href="#Arial-BoldMT-35" transform="translate(475.984375 0)"/>
    </g>
   </g>
   <g id="text_8">
    <!-- Total Loss -->
    <g style="fill: #ffffff" transform="translate(339.158125 354.503437) scale(0.07 -0.07)">
     <use xlink:href="#Arial-BoldMT-54"/>
     <use xlink:href="#Arial-BoldMT-6f" transform="translate(53.708984 0)"/>
     <use xlink:href="#Arial-BoldMT-74" transform="translate(114.792969 0)"/>
     <use xlink:href="#Arial-BoldMT-61" transform="translate(148.09375 0)"/>
     <use xlink:href="#Arial-BoldMT-6c" transform="translate(203.708984 0)"/>
     <use xlink:href="#Arial-BoldMT-20" transform="translate(231.492188 0)"/>
     <use xlink:href="#Arial-BoldMT-4c" transform="translate(259.275391 0)"/>
     <use xlink:href="#Arial-BoldMT-6f" transform="translate(320.359375 0)"/>
     <use xlink:href="#Arial-BoldMT-73" transform="translate(381.443359 0)"/>
     <use xlink:href="#Arial-BoldMT-73" transform="translate(437.058594 0)"/>
    </g>
    <!-- cls_loss×1.0 + cont_loss×1.0 + sim_loss×0.5 -->
    <g style="fill: #ffffff" transform="translate(282.564219 361.922344) scale(0.07 -0.07)">
     <defs>
      <path id="Arial-BoldMT-d7" d="M 347 1313 
L 1291 2256 
L 341 3203 
L 922 3784 
L 1872 2838 
L 2816 3781 
L 3381 3213 
L 2438 2269 
L 3391 1316 
L 2809 734 
L 1856 1688 
L 913 744 
L 347 1313 
z
" transform="scale(0.015625)"/>
      <path id="Arial-BoldMT-2b" d="M 1466 659 
L 1466 1850 
L 266 1850 
L 266 2672 
L 1466 2672 
L 1466 3863 
L 2266 3863 
L 2266 2672 
L 3469 2672 
L 3469 1850 
L 2266 1850 
L 2266 659 
L 1466 659 
z
" transform="scale(0.015625)"/>
     </defs>
     <use xlink:href="#Arial-BoldMT-63"/>
     <use xlink:href="#Arial-BoldMT-6c" transform="translate(55.615234 0)"/>
     <use xlink:href="#Arial-BoldMT-73" transform="translate(83.398438 0)"/>
     <use xlink:href="#Arial-BoldMT-5f" transform="translate(139.013672 0)"/>
     <use xlink:href="#Arial-BoldMT-6c" transform="translate(194.628906 0)"/>
     <use xlink:href="#Arial-BoldMT-6f" transform="translate(222.412109 0)"/>
     <use xlink:href="#Arial-BoldMT-73" transform="translate(283.496094 0)"/>
     <use xlink:href="#Arial-BoldMT-73" transform="translate(339.111328 0)"/>
     <use xlink:href="#Arial-BoldMT-d7" transform="translate(394.726562 0)"/>
     <use xlink:href="#Arial-BoldMT-31" transform="translate(453.125 0)"/>
     <use xlink:href="#Arial-BoldMT-2e" transform="translate(508.740234 0)"/>
     <use xlink:href="#Arial-BoldMT-30" transform="translate(536.523438 0)"/>
     <use xlink:href="#Arial-BoldMT-20" transform="translate(592.138672 0)"/>
     <use xlink:href="#Arial-BoldMT-2b" transform="translate(619.921875 0)"/>
     <use xlink:href="#Arial-BoldMT-20" transform="translate(678.320312 0)"/>
     <use xlink:href="#Arial-BoldMT-63" transform="translate(706.103516 0)"/>
     <use xlink:href="#Arial-BoldMT-6f" transform="translate(761.71875 0)"/>
     <use xlink:href="#Arial-BoldMT-6e" transform="translate(822.802734 0)"/>
     <use xlink:href="#Arial-BoldMT-74" transform="translate(883.886719 0)"/>
     <use xlink:href="#Arial-BoldMT-5f" transform="translate(917.1875 0)"/>
     <use xlink:href="#Arial-BoldMT-6c" transform="translate(972.802734 0)"/>
     <use xlink:href="#Arial-BoldMT-6f" transform="translate(1000.585938 0)"/>
     <use xlink:href="#Arial-BoldMT-73" transform="translate(1061.669922 0)"/>
     <use xlink:href="#Arial-BoldMT-73" transform="translate(1117.285156 0)"/>
     <use xlink:href="#Arial-BoldMT-d7" transform="translate(1172.900391 0)"/>
     <use xlink:href="#Arial-BoldMT-31" transform="translate(1231.298828 0)"/>
     <use xlink:href="#Arial-BoldMT-2e" transform="translate(1286.914062 0)"/>
     <use xlink:href="#Arial-BoldMT-30" transform="translate(1314.697266 0)"/>
     <use xlink:href="#Arial-BoldMT-20" transform="translate(1370.3125 0)"/>
     <use xlink:href="#Arial-BoldMT-2b" transform="translate(1398.095703 0)"/>
     <use xlink:href="#Arial-BoldMT-20" transform="translate(1456.494141 0)"/>
     <use xlink:href="#Arial-BoldMT-73" transform="translate(1484.277344 0)"/>
     <use xlink:href="#Arial-BoldMT-69" transform="translate(1539.892578 0)"/>
     <use xlink:href="#Arial-BoldMT-6d" transform="translate(1567.675781 0)"/>
     <use xlink:href="#Arial-BoldMT-5f" transform="translate(1656.591797 0)"/>
     <use xlink:href="#Arial-BoldMT-6c" transform="translate(1712.207031 0)"/>
     <use xlink:href="#Arial-BoldMT-6f" transform="translate(1739.990234 0)"/>
     <use xlink:href="#Arial-BoldMT-73" transform="translate(1801.074219 0)"/>
     <use xlink:href="#Arial-BoldMT-73" transform="translate(1856.689453 0)"/>
     <use xlink:href="#Arial-BoldMT-d7" transform="translate(1912.304688 0)"/>
     <use xlink:href="#Arial-BoldMT-30" transform="translate(1970.703125 0)"/>
     <use xlink:href="#Arial-BoldMT-2e" transform="translate(2026.318359 0)"/>
     <use xlink:href="#Arial-BoldMT-35" transform="translate(2054.101562 0)"/>
    </g>
   </g>
   <g id="text_9">
    <!-- Multi-component loss for comprehensive optimization -->
    <g transform="translate(250.360313 496.08) scale(0.09 -0.09)">
     <defs>
      <path id="Arial-ItalicMT-4d" d="M 281 0 
L 1238 4581 
L 1991 4581 
L 2453 1613 
Q 2544 1028 2572 491 
Q 2763 953 3209 1744 
L 4816 4581 
L 5581 4581 
L 4625 0 
L 4022 0 
L 4500 2228 
Q 4666 3000 4975 3959 
Q 4778 3513 4488 2997 
L 2781 0 
L 2191 0 
L 1731 2938 
Q 1669 3341 1641 3878 
Q 1563 3275 1488 2922 
L 878 0 
L 281 0 
z
" transform="scale(0.015625)"/>
      <path id="Arial-ItalicMT-75" d="M 2478 600 
Q 1881 -75 1256 -75 
Q 872 -75 636 145 
Q 400 366 400 684 
Q 400 894 506 1403 
L 906 3319 
L 1472 3319 
L 1028 1197 
Q 972 931 972 784 
Q 972 597 1086 492 
Q 1200 388 1422 388 
Q 1659 388 1886 503 
Q 2113 619 2277 816 
Q 2441 1013 2544 1281 
Q 2613 1453 2703 1884 
L 3003 3319 
L 3569 3319 
L 2875 0 
L 2353 0 
L 2478 600 
z
" transform="scale(0.015625)"/>
      <path id="Arial-ItalicMT-6c" d="M 169 0 
L 1125 4581 
L 1691 4581 
L 734 0 
L 169 0 
z
" transform="scale(0.015625)"/>
      <path id="Arial-ItalicMT-74" d="M 1534 459 
L 1441 -3 
Q 1238 -56 1047 -56 
Q 709 -56 509 109 
Q 359 234 359 450 
Q 359 559 441 953 
L 844 2881 
L 397 2881 
L 488 3319 
L 934 3319 
L 1106 4134 
L 1753 4525 
L 1500 3319 
L 2056 3319 
L 1963 2881 
L 1409 2881 
L 1025 1047 
Q 953 697 953 628 
Q 953 528 1011 475 
Q 1069 422 1200 422 
Q 1388 422 1534 459 
z
" transform="scale(0.015625)"/>
      <path id="Arial-ItalicMT-69" d="M 1016 3941 
L 1150 4581 
L 1713 4581 
L 1578 3941 
L 1016 3941 
z
M 191 0 
L 884 3319 
L 1450 3319 
L 756 0 
L 191 0 
z
" transform="scale(0.015625)"/>
      <path id="Arial-ItalicMT-2d" d="M 297 1375 
L 416 1941 
L 2141 1941 
L 2025 1375 
L 297 1375 
z
" transform="scale(0.015625)"/>
      <path id="Arial-ItalicMT-63" d="M 2503 1209 
L 3069 1150 
Q 2856 528 2464 226 
Q 2072 -75 1572 -75 
Q 1031 -75 695 275 
Q 359 625 359 1253 
Q 359 1797 575 2322 
Q 791 2847 1192 3120 
Q 1594 3394 2109 3394 
Q 2644 3394 2956 3092 
Q 3269 2791 3269 2294 
L 2713 2256 
Q 2709 2572 2529 2750 
Q 2350 2928 2056 2928 
Q 1716 2928 1466 2712 
Q 1216 2497 1073 2058 
Q 931 1619 931 1213 
Q 931 788 1118 575 
Q 1306 363 1581 363 
Q 1856 363 2107 572 
Q 2359 781 2503 1209 
z
" transform="scale(0.015625)"/>
      <path id="Arial-ItalicMT-6f" d="M 313 1259 
Q 313 2231 884 2869 
Q 1356 3394 2122 3394 
Q 2722 3394 3089 3019 
Q 3456 2644 3456 2006 
Q 3456 1434 3225 942 
Q 2994 450 2567 187 
Q 2141 -75 1669 -75 
Q 1281 -75 964 90 
Q 647 256 480 559 
Q 313 863 313 1259 
z
M 878 1316 
Q 878 847 1103 605 
Q 1328 363 1675 363 
Q 1856 363 2034 436 
Q 2213 509 2366 659 
Q 2519 809 2626 1001 
Q 2734 1194 2800 1416 
Q 2897 1725 2897 2009 
Q 2897 2459 2670 2707 
Q 2444 2956 2100 2956 
Q 1834 2956 1615 2829 
Q 1397 2703 1220 2459 
Q 1044 2216 961 1892 
Q 878 1569 878 1316 
z
" transform="scale(0.015625)"/>
      <path id="Arial-ItalicMT-6d" d="M 209 0 
L 903 3319 
L 1469 3319 
L 1353 2772 
Q 1669 3125 1917 3259 
Q 2166 3394 2456 3394 
Q 2766 3394 2973 3230 
Q 3181 3066 3247 2772 
Q 3500 3084 3779 3239 
Q 4059 3394 4369 3394 
Q 4784 3394 4992 3197 
Q 5200 3000 5200 2644 
Q 5200 2491 5128 2138 
L 4681 0 
L 4116 0 
L 4572 2194 
Q 4631 2463 4631 2578 
Q 4631 2741 4528 2834 
Q 4425 2928 4238 2928 
Q 3984 2928 3721 2775 
Q 3459 2622 3314 2373 
Q 3169 2125 3059 1609 
L 2722 0 
L 2156 0 
L 2625 2241 
Q 2675 2469 2675 2566 
Q 2675 2728 2573 2828 
Q 2472 2928 2309 2928 
Q 2069 2928 1805 2775 
Q 1541 2622 1375 2348 
Q 1209 2075 1103 1569 
L 775 0 
L 209 0 
z
" transform="scale(0.015625)"/>
      <path id="Arial-ItalicMT-70" d="M -66 -1272 
L 894 3319 
L 1416 3319 
L 1319 2856 
Q 1609 3159 1839 3276 
Q 2069 3394 2325 3394 
Q 2800 3394 3112 3048 
Q 3425 2703 3425 2059 
Q 3425 1541 3253 1114 
Q 3081 688 2831 428 
Q 2581 169 2325 47 
Q 2069 -75 1800 -75 
Q 1203 -75 875 531 
L 500 -1272 
L -66 -1272 
z
M 1053 1356 
Q 1053 984 1106 841 
Q 1184 638 1362 513 
Q 1541 388 1775 388 
Q 2263 388 2563 936 
Q 2863 1484 2863 2056 
Q 2863 2478 2661 2708 
Q 2459 2938 2159 2938 
Q 1944 2938 1759 2823 
Q 1575 2709 1417 2482 
Q 1259 2256 1156 1928 
Q 1053 1600 1053 1356 
z
" transform="scale(0.015625)"/>
      <path id="Arial-ItalicMT-6e" d="M 213 0 
L 906 3319 
L 1419 3319 
L 1297 2741 
Q 1631 3081 1922 3237 
Q 2213 3394 2516 3394 
Q 2919 3394 3148 3175 
Q 3378 2956 3378 2591 
Q 3378 2406 3297 2009 
L 2875 0 
L 2309 0 
L 2750 2103 
Q 2816 2409 2816 2556 
Q 2816 2722 2702 2825 
Q 2588 2928 2372 2928 
Q 1938 2928 1598 2615 
Q 1259 2303 1100 1544 
L 778 0 
L 213 0 
z
" transform="scale(0.015625)"/>
      <path id="Arial-ItalicMT-65" d="M 2650 1128 
L 3200 1072 
Q 3081 663 2654 294 
Q 2228 -75 1638 -75 
Q 1269 -75 961 95 
Q 653 266 492 591 
Q 331 916 331 1331 
Q 331 1875 582 2386 
Q 834 2897 1234 3145 
Q 1634 3394 2100 3394 
Q 2694 3394 3048 3025 
Q 3403 2656 3403 2019 
Q 3403 1775 3359 1519 
L 916 1519 
Q 903 1422 903 1344 
Q 903 878 1117 633 
Q 1331 388 1641 388 
Q 1931 388 2212 578 
Q 2494 769 2650 1128 
z
M 1006 1950 
L 2869 1950 
Q 2872 2038 2872 2075 
Q 2872 2500 2659 2726 
Q 2447 2953 2113 2953 
Q 1750 2953 1451 2703 
Q 1153 2453 1006 1950 
z
" transform="scale(0.015625)"/>
      <path id="Arial-ItalicMT-20" transform="scale(0.015625)"/>
      <path id="Arial-ItalicMT-73" d="M 266 1134 
L 831 1169 
Q 831 925 906 753 
Q 981 581 1182 472 
Q 1384 363 1653 363 
Q 2028 363 2215 513 
Q 2403 663 2403 866 
Q 2403 1013 2291 1144 
Q 2175 1275 1726 1467 
Q 1278 1659 1153 1738 
Q 944 1866 837 2039 
Q 731 2213 731 2438 
Q 731 2831 1043 3112 
Q 1356 3394 1919 3394 
Q 2544 3394 2870 3105 
Q 3197 2816 3209 2344 
L 2656 2306 
Q 2644 2606 2444 2781 
Q 2244 2956 1878 2956 
Q 1584 2956 1421 2822 
Q 1259 2688 1259 2531 
Q 1259 2375 1400 2256 
Q 1494 2175 1884 2006 
Q 2534 1725 2703 1563 
Q 2972 1303 2972 931 
Q 2972 684 2820 446 
Q 2669 209 2358 67 
Q 2047 -75 1625 -75 
Q 1050 -75 647 209 
Q 244 494 266 1134 
z
" transform="scale(0.015625)"/>
      <path id="Arial-ItalicMT-66" d="M 291 0 
L 894 2881 
L 388 2881 
L 478 3319 
L 984 3319 
L 1081 3791 
Q 1156 4144 1236 4300 
Q 1316 4456 1495 4557 
Q 1675 4659 1984 4659 
Q 2200 4659 2609 4569 
L 2506 4075 
Q 2219 4150 2025 4150 
Q 1859 4150 1773 4067 
Q 1688 3984 1625 3675 
L 1550 3319 
L 2181 3319 
L 2091 2881 
L 1459 2881 
L 856 0 
L 291 0 
z
" transform="scale(0.015625)"/>
      <path id="Arial-ItalicMT-72" d="M 213 0 
L 906 3319 
L 1406 3319 
L 1266 2641 
Q 1522 3025 1767 3209 
Q 2013 3394 2269 3394 
Q 2438 3394 2684 3272 
L 2453 2747 
Q 2306 2853 2131 2853 
Q 1834 2853 1521 2522 
Q 1209 2191 1031 1331 
L 750 0 
L 213 0 
z
" transform="scale(0.015625)"/>
      <path id="Arial-ItalicMT-68" d="M 213 0 
L 1169 4581 
L 1734 4581 
L 1369 2822 
Q 1684 3128 1956 3261 
Q 2228 3394 2516 3394 
Q 2928 3394 3156 3176 
Q 3384 2959 3384 2603 
Q 3384 2428 3284 1959 
L 2875 0 
L 2309 0 
L 2731 2009 
Q 2822 2447 2822 2559 
Q 2822 2722 2709 2825 
Q 2597 2928 2384 2928 
Q 2078 2928 1800 2767 
Q 1522 2606 1364 2326 
Q 1206 2047 1075 1425 
L 778 0 
L 213 0 
z
" transform="scale(0.015625)"/>
      <path id="Arial-ItalicMT-76" d="M 1050 0 
L 506 3319 
L 1056 3319 
L 1341 1491 
Q 1388 1191 1456 513 
Q 1619 866 1872 1322 
L 2981 3319 
L 3578 3319 
L 1678 0 
L 1050 0 
z
" transform="scale(0.015625)"/>
      <path id="Arial-ItalicMT-7a" d="M 125 0 
L 216 438 
L 2000 2447 
Q 2191 2659 2425 2888 
Q 2022 2847 1847 2847 
L 613 2847 
L 713 3319 
L 3278 3319 
L 3203 2963 
L 1403 941 
Q 1250 769 947 469 
Q 1419 497 1594 497 
L 2900 497 
L 2797 0 
L 125 0 
z
" transform="scale(0.015625)"/>
      <path id="Arial-ItalicMT-61" d="M 2450 413 
Q 2156 159 1884 42 
Q 1613 -75 1303 -75 
Q 844 -75 562 195 
Q 281 466 281 888 
Q 281 1166 407 1380 
Q 534 1594 743 1723 
Q 953 1853 1256 1909 
Q 1447 1947 1980 1969 
Q 2513 1991 2744 2081 
Q 2809 2313 2809 2466 
Q 2809 2663 2666 2775 
Q 2469 2931 2091 2931 
Q 1734 2931 1507 2773 
Q 1281 2616 1178 2325 
L 606 2375 
Q 781 2869 1161 3131 
Q 1541 3394 2119 3394 
Q 2734 3394 3094 3100 
Q 3369 2881 3369 2531 
Q 3369 2266 3291 1916 
L 3106 1091 
Q 3019 697 3019 450 
Q 3019 294 3088 0 
L 2516 0 
Q 2469 163 2450 413 
z
M 2659 1681 
Q 2541 1634 2405 1609 
Q 2269 1584 1950 1556 
Q 1456 1513 1253 1445 
Q 1050 1378 947 1231 
Q 844 1084 844 906 
Q 844 669 1008 516 
Q 1172 363 1475 363 
Q 1756 363 2015 511 
Q 2275 659 2425 925 
Q 2575 1191 2659 1681 
z
" transform="scale(0.015625)"/>
     </defs>
     <use xlink:href="#Arial-ItalicMT-4d"/>
     <use xlink:href="#Arial-ItalicMT-75" transform="translate(83.300781 0)"/>
     <use xlink:href="#Arial-ItalicMT-6c" transform="translate(138.916016 0)"/>
     <use xlink:href="#Arial-ItalicMT-74" transform="translate(161.132812 0)"/>
     <use xlink:href="#Arial-ItalicMT-69" transform="translate(188.916016 0)"/>
     <use xlink:href="#Arial-ItalicMT-2d" transform="translate(211.132812 0)"/>
     <use xlink:href="#Arial-ItalicMT-63" transform="translate(244.433594 0)"/>
     <use xlink:href="#Arial-ItalicMT-6f" transform="translate(294.433594 0)"/>
     <use xlink:href="#Arial-ItalicMT-6d" transform="translate(350.048828 0)"/>
     <use xlink:href="#Arial-ItalicMT-70" transform="translate(433.349609 0)"/>
     <use xlink:href="#Arial-ItalicMT-6f" transform="translate(488.964844 0)"/>
     <use xlink:href="#Arial-ItalicMT-6e" transform="translate(544.580078 0)"/>
     <use xlink:href="#Arial-ItalicMT-65" transform="translate(600.195312 0)"/>
     <use xlink:href="#Arial-ItalicMT-6e" transform="translate(655.810547 0)"/>
     <use xlink:href="#Arial-ItalicMT-74" transform="translate(711.425781 0)"/>
     <use xlink:href="#Arial-ItalicMT-20" transform="translate(739.208984 0)"/>
     <use xlink:href="#Arial-ItalicMT-6c" transform="translate(766.992188 0)"/>
     <use xlink:href="#Arial-ItalicMT-6f" transform="translate(789.208984 0)"/>
     <use xlink:href="#Arial-ItalicMT-73" transform="translate(844.824219 0)"/>
     <use xlink:href="#Arial-ItalicMT-73" transform="translate(894.824219 0)"/>
     <use xlink:href="#Arial-ItalicMT-20" transform="translate(944.824219 0)"/>
     <use xlink:href="#Arial-ItalicMT-66" transform="translate(972.607422 0)"/>
     <use xlink:href="#Arial-ItalicMT-6f" transform="translate(1000.390625 0)"/>
     <use xlink:href="#Arial-ItalicMT-72" transform="translate(1056.005859 0)"/>
     <use xlink:href="#Arial-ItalicMT-20" transform="translate(1089.306641 0)"/>
     <use xlink:href="#Arial-ItalicMT-63" transform="translate(1117.089844 0)"/>
     <use xlink:href="#Arial-ItalicMT-6f" transform="translate(1167.089844 0)"/>
     <use xlink:href="#Arial-ItalicMT-6d" transform="translate(1222.705078 0)"/>
     <use xlink:href="#Arial-ItalicMT-70" transform="translate(1306.005859 0)"/>
     <use xlink:href="#Arial-ItalicMT-72" transform="translate(1361.621094 0)"/>
     <use xlink:href="#Arial-ItalicMT-65" transform="translate(1394.921875 0)"/>
     <use xlink:href="#Arial-ItalicMT-68" transform="translate(1450.537109 0)"/>
     <use xlink:href="#Arial-ItalicMT-65" transform="translate(1506.152344 0)"/>
     <use xlink:href="#Arial-ItalicMT-6e" transform="translate(1561.767578 0)"/>
     <use xlink:href="#Arial-ItalicMT-73" transform="translate(1617.382812 0)"/>
     <use xlink:href="#Arial-ItalicMT-69" transform="translate(1667.382812 0)"/>
     <use xlink:href="#Arial-ItalicMT-76" transform="translate(1689.599609 0)"/>
     <use xlink:href="#Arial-ItalicMT-65" transform="translate(1739.599609 0)"/>
     <use xlink:href="#Arial-ItalicMT-20" transform="translate(1795.214844 0)"/>
     <use xlink:href="#Arial-ItalicMT-6f" transform="translate(1822.998047 0)"/>
     <use xlink:href="#Arial-ItalicMT-70" transform="translate(1878.613281 0)"/>
     <use xlink:href="#Arial-ItalicMT-74" transform="translate(1934.228516 0)"/>
     <use xlink:href="#Arial-ItalicMT-69" transform="translate(1962.011719 0)"/>
     <use xlink:href="#Arial-ItalicMT-6d" transform="translate(1984.228516 0)"/>
     <use xlink:href="#Arial-ItalicMT-69" transform="translate(2067.529297 0)"/>
     <use xlink:href="#Arial-ItalicMT-7a" transform="translate(2089.746094 0)"/>
     <use xlink:href="#Arial-ItalicMT-61" transform="translate(2139.746094 0)"/>
     <use xlink:href="#Arial-ItalicMT-74" transform="translate(2195.361328 0)"/>
     <use xlink:href="#Arial-ItalicMT-69" transform="translate(2223.144531 0)"/>
     <use xlink:href="#Arial-ItalicMT-6f" transform="translate(2245.361328 0)"/>
     <use xlink:href="#Arial-ItalicMT-6e" transform="translate(2300.976562 0)"/>
    </g>
   </g>
  </g>
 </g>
 <defs>
  <clipPath id="pcd48f724cf">
   <rect x="7.2" y="7.2" width="698.4" height="558.72"/>
  </clipPath>
 </defs>
</svg>
