<?xml version="1.0" encoding="utf-8" standalone="no"?>
<!DOCTYPE svg PUBLIC "-//W3C//DTD SVG 1.1//EN"
  "http://www.w3.org/Graphics/SVG/1.1/DTD/svg11.dtd">
<svg xmlns:xlink="http://www.w3.org/1999/xlink" width="998.208pt" height="717.12pt" viewBox="0 0 998.208 717.12" xmlns="http://www.w3.org/2000/svg" version="1.1">
 <metadata>
  <rdf:RDF xmlns:dc="http://purl.org/dc/elements/1.1/" xmlns:cc="http://creativecommons.org/ns#" xmlns:rdf="http://www.w3.org/1999/02/22-rdf-syntax-ns#">
   <cc:Work>
    <dc:type rdf:resource="http://purl.org/dc/dcmitype/StillImage"/>
    <dc:date>2025-11-13T00:43:03.398013</dc:date>
    <dc:format>image/svg+xml</dc:format>
    <dc:creator>
     <cc:Agent>
      <dc:title>Matplotlib v3.10.7, https://matplotlib.org/</dc:title>
     </cc:Agent>
    </dc:creator>
   </cc:Work>
  </rdf:RDF>
 </metadata>
 <defs>
  <style type="text/css">*{stroke-linejoin: round; stroke-linecap: butt}</style>
 </defs>
 <g id="figure_1">
  <g id="patch_1">
   <path d="M 0 717.12 
L 998.208 717.12 
L 998.208 0 
L 0 0 
z
" style="fill: #ffffff"/>
  </g>
  <g id="axes_1">
   <g id="patch_2">
    <path d="M 147.744 116.1216 
L 288.288 116.1216 
Q 291.8016 116.1216 291.8016 112.608 
L 291.8016 56.3904 
Q 291.8016 52.8768 288.288 52.8768 
L 147.744 52.8768 
Q 144.2304 52.8768 144.2304 56.3904 
L 144.2304 112.608 
Q 144.2304 116.1216 147.744 116.1216 
z
" clip-path="url(#pa322d57960)" style="fill: #3498db; stroke: #000000; stroke-linejoin: miter"/>
   </g>
   <g id="patch_3">
    <path d="M 709.92 116.1216 
L 850.464 116.1216 
Q 853.9776 116.1216 853.9776 112.608 
L 853.9776 56.3904 
Q 853.9776 52.8768 850.464 52.8768 
L 709.92 52.8768 
Q 706.4064 52.8768 706.4064 56.3904 
L 706.4064 112.608 
Q 706.4064 116.1216 709.92 116.1216 
z
" clip-path="url(#pa322d57960)" style="fill: #e74c3c; stroke: #000000; stroke-linejoin: miter"/>
   </g>
   <g id="patch_4">
    <path d="M 77.472 221.5296 
L 358.56 221.5296 
Q 362.0736 221.5296 362.0736 218.016 
L 362.0736 147.744 
Q 362.0736 144.2304 358.56 144.2304 
L 77.472 144.2304 
Q 73.9584 144.2304 73.9584 147.744 
L 73.9584 218.016 
Q 73.9584 221.5296 77.472 221.5296 
z
" clip-path="url(#pa322d57960)" style="fill: #2ecc71; stroke: #000000; stroke-linejoin: miter"/>
   </g>
   <g id="patch_5">
    <path d="M 112.608 291.8016 
L 218.016 291.8016 
Q 221.5296 291.8016 221.5296 288.288 
L 221.5296 246.1248 
Q 221.5296 242.6112 218.016 242.6112 
L 112.608 242.6112 
Q 109.0944 242.6112 109.0944 246.1248 
L 109.0944 288.288 
Q 109.0944 291.8016 112.608 291.8016 
z
" clip-path="url(#pa322d57960)" style="fill: #3498db; stroke: #000000; stroke-linejoin: miter"/>
   </g>
   <g id="patch_6">
    <path d="M 218.016 291.8016 
L 323.424 291.8016 
Q 326.9376 291.8016 326.9376 288.288 
L 326.9376 246.1248 
Q 326.9376 242.6112 323.424 242.6112 
L 218.016 242.6112 
Q 214.5024 242.6112 214.5024 246.1248 
L 214.5024 288.288 
Q 214.5024 291.8016 218.016 291.8016 
z
" clip-path="url(#pa322d57960)" style="fill: #e74c3c; stroke: #000000; stroke-linejoin: miter"/>
   </g>
   <g id="patch_7">
    <path d="M 639.648 221.5296 
L 920.736 221.5296 
Q 924.2496 221.5296 924.2496 218.016 
L 924.2496 147.744 
Q 924.2496 144.2304 920.736 144.2304 
L 639.648 144.2304 
Q 636.1344 144.2304 636.1344 147.744 
L 636.1344 218.016 
Q 636.1344 221.5296 639.648 221.5296 
z
" clip-path="url(#pa322d57960)" style="fill: #f39c12; stroke: #000000; stroke-linejoin: miter"/>
   </g>
   <g id="patch_8">
    <path d="M 674.784 291.8016 
L 780.192 291.8016 
Q 783.7056 291.8016 783.7056 288.288 
L 783.7056 246.1248 
Q 783.7056 242.6112 780.192 242.6112 
L 674.784 242.6112 
Q 671.2704 242.6112 671.2704 246.1248 
L 671.2704 288.288 
Q 671.2704 291.8016 674.784 291.8016 
z
" clip-path="url(#pa322d57960)" style="fill: #3498db; stroke: #000000; stroke-linejoin: miter"/>
   </g>
   <g id="patch_9">
    <path d="M 780.192 291.8016 
L 885.6 291.8016 
Q 889.1136 291.8016 889.1136 288.288 
L 889.1136 246.1248 
Q 889.1136 242.6112 885.6 242.6112 
L 780.192 242.6112 
Q 776.6784 242.6112 776.6784 246.1248 
L 776.6784 288.288 
Q 776.6784 291.8016 780.192 291.8016 
z
" clip-path="url(#pa322d57960)" style="fill: #e74c3c; stroke: #000000; stroke-linejoin: miter"/>
   </g>
   <g id="patch_10">
    <path d="M 358.56 397.2096 
L 639.648 397.2096 
Q 643.1616 397.2096 643.1616 393.696 
L 643.1616 323.424 
Q 643.1616 319.9104 639.648 319.9104 
L 358.56 319.9104 
Q 355.0464 319.9104 355.0464 323.424 
L 355.0464 393.696 
Q 355.0464 397.2096 358.56 397.2096 
z
" clip-path="url(#pa322d57960)" style="fill: #9b59b6; stroke: #000000; stroke-linejoin: miter"/>
   </g>
   <g id="patch_11">
    <path d="M 147.744 467.4816 
L 288.288 467.4816 
Q 291.8016 467.4816 291.8016 463.968 
L 291.8016 407.7504 
Q 291.8016 404.2368 288.288 404.2368 
L 147.744 404.2368 
Q 144.2304 404.2368 144.2304 407.7504 
L 144.2304 463.968 
Q 144.2304 467.4816 147.744 467.4816 
z
" clip-path="url(#pa322d57960)" style="fill: #2ecc71; stroke: #000000; stroke-linejoin: miter"/>
   </g>
   <g id="patch_12">
    <path d="M 428.832 467.4816 
L 569.376 467.4816 
Q 572.8896 467.4816 572.8896 463.968 
L 572.8896 407.7504 
Q 572.8896 404.2368 569.376 404.2368 
L 428.832 404.2368 
Q 425.3184 404.2368 425.3184 407.7504 
L 425.3184 463.968 
Q 425.3184 467.4816 428.832 467.4816 
z
" clip-path="url(#pa322d57960)" style="fill: #f39c12; stroke: #000000; stroke-linejoin: miter"/>
   </g>
   <g id="patch_13">
    <path d="M 358.56 572.8896 
L 639.648 572.8896 
Q 643.1616 572.8896 643.1616 569.376 
L 643.1616 513.1584 
Q 643.1616 509.6448 639.648 509.6448 
L 358.56 509.6448 
Q 355.0464 509.6448 355.0464 513.1584 
L 355.0464 569.376 
Q 355.0464 572.8896 358.56 572.8896 
z
" clip-path="url(#pa322d57960)" style="fill: #9b59b6; stroke: #000000; stroke-linejoin: miter"/>
   </g>
   <g id="patch_14">
    <path d="M 215.779254 117.081492 
Q 200.447085 147.74583 185.864916 176.910167 
" style="fill: none; stroke: #000000; stroke-width: 1.5; stroke-linecap: round"/>
    <path d="M 191.23148 172.885245 
L 185.864916 176.910167 
L 185.864916 170.201963 
" style="fill: none; stroke: #000000; stroke-width: 1.5; stroke-linecap: round"/>
   </g>
   <g id="patch_15">
    <path d="M 782.428746 117.081492 
Q 797.760915 147.74583 812.343084 176.910167 
" style="fill: none; stroke: #000000; stroke-width: 1.5; stroke-linecap: round"/>
    <path d="M 812.343084 170.201963 
L 812.343084 176.910167 
L 806.97652 172.885245 
" style="fill: none; stroke: #000000; stroke-width: 1.5; stroke-linecap: round"/>
   </g>
   <g id="patch_16">
    <path d="M 222.961021 113.368772 
Q 446.402638 147.744406 668.186705 181.865031 
" style="fill: none; stroke: #000000; stroke-width: 1.5; stroke-linecap: round"/>
    <path d="M 662.712646 177.987573 
L 668.186705 181.865031 
L 661.800303 183.917803 
" style="fill: none; stroke: #000000; stroke-width: 1.5; stroke-linecap: round"/>
   </g>
   <g id="patch_17">
    <path d="M 782.428746 117.081492 
Q 797.760915 147.74583 812.343084 176.910167 
" style="fill: none; stroke: #000000; stroke-width: 1.5; stroke-linecap: round"/>
    <path d="M 812.343084 170.201963 
L 812.343084 176.910167 
L 806.97652 172.885245 
" style="fill: none; stroke: #000000; stroke-width: 1.5; stroke-linecap: round"/>
   </g>
   <g id="patch_18">
    <path d="M 722.752071 289.89093 
Q 613.294673 326.938049 505.425804 363.447513 
" style="fill: none; stroke: #000000; stroke-width: 1.5; stroke-linecap: round"/>
    <path d="M 512.070888 364.365583 
L 505.425804 363.447513 
L 510.147311 358.682288 
" style="fill: none; stroke: #000000; stroke-width: 1.5; stroke-linecap: round"/>
   </g>
   <g id="patch_19">
    <path d="M 222.973084 463.307055 
Q 323.425739 449.913368 422.216054 436.741326 
" style="fill: none; stroke: #000000; stroke-width: 1.5; stroke-linecap: round"/>
    <path d="M 415.872196 434.560625 
L 422.216054 436.741326 
L 416.665178 440.507992 
" style="fill: none; stroke: #000000; stroke-width: 1.5; stroke-linecap: round"/>
   </g>
   <g id="patch_20">
    <path d="M 499.104 468.966902 
Q 499.104 488.563663 499.104 506.483373 
" style="fill: none; stroke: #000000; stroke-width: 1.5; stroke-linecap: round"/>
    <path d="M 502.104 500.483373 
L 499.104 506.483373 
L 496.104 500.483373 
" style="fill: none; stroke: #000000; stroke-width: 1.5; stroke-linecap: round"/>
   </g>
   <g id="text_1">
    <!-- COOLANT Official Architecture Overview -->
    <g transform="translate(343.37275 42.336) scale(0.16 -0.16)">
     <defs>
      <path id="Arial-BoldMT-43" d="M 3397 1684 
L 4294 1400 
Q 4088 650 3608 286 
Q 3128 -78 2391 -78 
Q 1478 -78 890 545 
Q 303 1169 303 2250 
Q 303 3394 893 4026 
Q 1484 4659 2447 4659 
Q 3288 4659 3813 4163 
Q 4125 3869 4281 3319 
L 3366 3100 
Q 3284 3456 3026 3662 
Q 2769 3869 2400 3869 
Q 1891 3869 1573 3503 
Q 1256 3138 1256 2319 
Q 1256 1450 1568 1081 
Q 1881 713 2381 713 
Q 2750 713 3015 947 
Q 3281 1181 3397 1684 
z
" transform="scale(0.015625)"/>
      <path id="Arial-BoldMT-4f" d="M 278 2263 
Q 278 2963 488 3438 
Q 644 3788 914 4066 
Q 1184 4344 1506 4478 
Q 1934 4659 2494 4659 
Q 3506 4659 4114 4031 
Q 4722 3403 4722 2284 
Q 4722 1175 4119 548 
Q 3516 -78 2506 -78 
Q 1484 -78 881 545 
Q 278 1169 278 2263 
z
M 1231 2294 
Q 1231 1516 1590 1114 
Q 1950 713 2503 713 
Q 3056 713 3411 1111 
Q 3766 1509 3766 2306 
Q 3766 3094 3420 3481 
Q 3075 3869 2503 3869 
Q 1931 3869 1581 3476 
Q 1231 3084 1231 2294 
z
" transform="scale(0.015625)"/>
      <path id="Arial-BoldMT-4c" d="M 491 0 
L 491 4544 
L 1416 4544 
L 1416 772 
L 3716 772 
L 3716 0 
L 491 0 
z
" transform="scale(0.015625)"/>
      <path id="Arial-BoldMT-41" d="M 4597 0 
L 3591 0 
L 3191 1041 
L 1359 1041 
L 981 0 
L 0 0 
L 1784 4581 
L 2763 4581 
L 4597 0 
z
M 2894 1813 
L 2263 3513 
L 1644 1813 
L 2894 1813 
z
" transform="scale(0.015625)"/>
      <path id="Arial-BoldMT-4e" d="M 475 0 
L 475 4581 
L 1375 4581 
L 3250 1522 
L 3250 4581 
L 4109 4581 
L 4109 0 
L 3181 0 
L 1334 2988 
L 1334 0 
L 475 0 
z
" transform="scale(0.015625)"/>
      <path id="Arial-BoldMT-54" d="M 1497 0 
L 1497 3806 
L 138 3806 
L 138 4581 
L 3778 4581 
L 3778 3806 
L 2422 3806 
L 2422 0 
L 1497 0 
z
" transform="scale(0.015625)"/>
      <path id="Arial-BoldMT-20" transform="scale(0.015625)"/>
      <path id="Arial-BoldMT-66" d="M 75 3319 
L 563 3319 
L 563 3569 
Q 563 3988 652 4194 
Q 741 4400 980 4529 
Q 1219 4659 1584 4659 
Q 1959 4659 2319 4547 
L 2200 3934 
Q 1991 3984 1797 3984 
Q 1606 3984 1523 3895 
Q 1441 3806 1441 3553 
L 1441 3319 
L 2097 3319 
L 2097 2628 
L 1441 2628 
L 1441 0 
L 563 0 
L 563 2628 
L 75 2628 
L 75 3319 
z
" transform="scale(0.015625)"/>
      <path id="Arial-BoldMT-69" d="M 459 3769 
L 459 4581 
L 1338 4581 
L 1338 3769 
L 459 3769 
z
M 459 0 
L 459 3319 
L 1338 3319 
L 1338 0 
L 459 0 
z
" transform="scale(0.015625)"/>
      <path id="Arial-BoldMT-63" d="M 3353 2338 
L 2488 2181 
Q 2444 2441 2289 2572 
Q 2134 2703 1888 2703 
Q 1559 2703 1364 2476 
Q 1169 2250 1169 1719 
Q 1169 1128 1367 884 
Q 1566 641 1900 641 
Q 2150 641 2309 783 
Q 2469 925 2534 1272 
L 3397 1125 
Q 3263 531 2881 228 
Q 2500 -75 1859 -75 
Q 1131 -75 698 384 
Q 266 844 266 1656 
Q 266 2478 700 2936 
Q 1134 3394 1875 3394 
Q 2481 3394 2839 3133 
Q 3197 2872 3353 2338 
z
" transform="scale(0.015625)"/>
      <path id="Arial-BoldMT-61" d="M 1116 2306 
L 319 2450 
Q 453 2931 781 3162 
Q 1109 3394 1756 3394 
Q 2344 3394 2631 3255 
Q 2919 3116 3036 2902 
Q 3153 2688 3153 2116 
L 3144 1091 
Q 3144 653 3186 445 
Q 3228 238 3344 0 
L 2475 0 
Q 2441 88 2391 259 
Q 2369 338 2359 363 
Q 2134 144 1878 34 
Q 1622 -75 1331 -75 
Q 819 -75 523 203 
Q 228 481 228 906 
Q 228 1188 362 1408 
Q 497 1628 739 1745 
Q 981 1863 1438 1950 
Q 2053 2066 2291 2166 
L 2291 2253 
Q 2291 2506 2166 2614 
Q 2041 2722 1694 2722 
Q 1459 2722 1328 2630 
Q 1197 2538 1116 2306 
z
M 2291 1594 
Q 2122 1538 1756 1459 
Q 1391 1381 1278 1306 
Q 1106 1184 1106 997 
Q 1106 813 1243 678 
Q 1381 544 1594 544 
Q 1831 544 2047 700 
Q 2206 819 2256 991 
Q 2291 1103 2291 1419 
L 2291 1594 
z
" transform="scale(0.015625)"/>
      <path id="Arial-BoldMT-6c" d="M 459 0 
L 459 4581 
L 1338 4581 
L 1338 0 
L 459 0 
z
" transform="scale(0.015625)"/>
      <path id="Arial-BoldMT-72" d="M 1300 0 
L 422 0 
L 422 3319 
L 1238 3319 
L 1238 2847 
Q 1447 3181 1614 3287 
Q 1781 3394 1994 3394 
Q 2294 3394 2572 3228 
L 2300 2463 
Q 2078 2606 1888 2606 
Q 1703 2606 1575 2504 
Q 1447 2403 1373 2137 
Q 1300 1872 1300 1025 
L 1300 0 
z
" transform="scale(0.015625)"/>
      <path id="Arial-BoldMT-68" d="M 1334 4581 
L 1334 2897 
Q 1759 3394 2350 3394 
Q 2653 3394 2897 3281 
Q 3141 3169 3264 2994 
Q 3388 2819 3433 2606 
Q 3478 2394 3478 1947 
L 3478 0 
L 2600 0 
L 2600 1753 
Q 2600 2275 2550 2415 
Q 2500 2556 2373 2639 
Q 2247 2722 2056 2722 
Q 1838 2722 1666 2615 
Q 1494 2509 1414 2295 
Q 1334 2081 1334 1663 
L 1334 0 
L 456 0 
L 456 4581 
L 1334 4581 
z
" transform="scale(0.015625)"/>
      <path id="Arial-BoldMT-74" d="M 1981 3319 
L 1981 2619 
L 1381 2619 
L 1381 1281 
Q 1381 875 1398 808 
Q 1416 741 1477 697 
Q 1538 653 1625 653 
Q 1747 653 1978 738 
L 2053 56 
Q 1747 -75 1359 -75 
Q 1122 -75 931 4 
Q 741 84 652 211 
Q 563 338 528 553 
Q 500 706 500 1172 
L 500 2619 
L 97 2619 
L 97 3319 
L 500 3319 
L 500 3978 
L 1381 4491 
L 1381 3319 
L 1981 3319 
z
" transform="scale(0.015625)"/>
      <path id="Arial-BoldMT-65" d="M 2381 1056 
L 3256 909 
Q 3088 428 2723 176 
Q 2359 -75 1813 -75 
Q 947 -75 531 491 
Q 203 944 203 1634 
Q 203 2459 634 2926 
Q 1066 3394 1725 3394 
Q 2466 3394 2894 2905 
Q 3322 2416 3303 1406 
L 1103 1406 
Q 1113 1016 1316 798 
Q 1519 581 1822 581 
Q 2028 581 2168 693 
Q 2309 806 2381 1056 
z
M 2431 1944 
Q 2422 2325 2234 2523 
Q 2047 2722 1778 2722 
Q 1491 2722 1303 2513 
Q 1116 2303 1119 1944 
L 2431 1944 
z
" transform="scale(0.015625)"/>
      <path id="Arial-BoldMT-75" d="M 2644 0 
L 2644 497 
Q 2463 231 2167 78 
Q 1872 -75 1544 -75 
Q 1209 -75 943 72 
Q 678 219 559 484 
Q 441 750 441 1219 
L 441 3319 
L 1319 3319 
L 1319 1794 
Q 1319 1094 1367 936 
Q 1416 778 1544 686 
Q 1672 594 1869 594 
Q 2094 594 2272 717 
Q 2450 841 2515 1023 
Q 2581 1206 2581 1919 
L 2581 3319 
L 3459 3319 
L 3459 0 
L 2644 0 
z
" transform="scale(0.015625)"/>
      <path id="Arial-BoldMT-76" d="M 1372 0 
L 34 3319 
L 956 3319 
L 1581 1625 
L 1763 1059 
Q 1834 1275 1853 1344 
Q 1897 1484 1947 1625 
L 2578 3319 
L 3481 3319 
L 2163 0 
L 1372 0 
z
" transform="scale(0.015625)"/>
      <path id="Arial-BoldMT-77" d="M 1078 0 
L 28 3319 
L 881 3319 
L 1503 1144 
L 2075 3319 
L 2922 3319 
L 3475 1144 
L 4109 3319 
L 4975 3319 
L 3909 0 
L 3066 0 
L 2494 2134 
L 1931 0 
L 1078 0 
z
" transform="scale(0.015625)"/>
     </defs>
     <use xlink:href="#Arial-BoldMT-43"/>
     <use xlink:href="#Arial-BoldMT-4f" transform="translate(72.216797 0)"/>
     <use xlink:href="#Arial-BoldMT-4f" transform="translate(150 0)"/>
     <use xlink:href="#Arial-BoldMT-4c" transform="translate(227.783203 0)"/>
     <use xlink:href="#Arial-BoldMT-41" transform="translate(288.867188 0)"/>
     <use xlink:href="#Arial-BoldMT-4e" transform="translate(361.083984 0)"/>
     <use xlink:href="#Arial-BoldMT-54" transform="translate(433.300781 0)"/>
     <use xlink:href="#Arial-BoldMT-20" transform="translate(494.384766 0)"/>
     <use xlink:href="#Arial-BoldMT-4f" transform="translate(522.167969 0)"/>
     <use xlink:href="#Arial-BoldMT-66" transform="translate(599.951172 0)"/>
     <use xlink:href="#Arial-BoldMT-66" transform="translate(633.251953 0)"/>
     <use xlink:href="#Arial-BoldMT-69" transform="translate(666.552734 0)"/>
     <use xlink:href="#Arial-BoldMT-63" transform="translate(694.335938 0)"/>
     <use xlink:href="#Arial-BoldMT-69" transform="translate(749.951172 0)"/>
     <use xlink:href="#Arial-BoldMT-61" transform="translate(777.734375 0)"/>
     <use xlink:href="#Arial-BoldMT-6c" transform="translate(833.349609 0)"/>
     <use xlink:href="#Arial-BoldMT-20" transform="translate(861.132812 0)"/>
     <use xlink:href="#Arial-BoldMT-41" transform="translate(885.166016 0)"/>
     <use xlink:href="#Arial-BoldMT-72" transform="translate(957.382812 0)"/>
     <use xlink:href="#Arial-BoldMT-63" transform="translate(996.298828 0)"/>
     <use xlink:href="#Arial-BoldMT-68" transform="translate(1051.914062 0)"/>
     <use xlink:href="#Arial-BoldMT-69" transform="translate(1112.998047 0)"/>
     <use xlink:href="#Arial-BoldMT-74" transform="translate(1140.78125 0)"/>
     <use xlink:href="#Arial-BoldMT-65" transform="translate(1174.082031 0)"/>
     <use xlink:href="#Arial-BoldMT-63" transform="translate(1229.697266 0)"/>
     <use xlink:href="#Arial-BoldMT-74" transform="translate(1285.3125 0)"/>
     <use xlink:href="#Arial-BoldMT-75" transform="translate(1318.613281 0)"/>
     <use xlink:href="#Arial-BoldMT-72" transform="translate(1379.697266 0)"/>
     <use xlink:href="#Arial-BoldMT-65" transform="translate(1418.613281 0)"/>
     <use xlink:href="#Arial-BoldMT-20" transform="translate(1474.228516 0)"/>
     <use xlink:href="#Arial-BoldMT-4f" transform="translate(1502.011719 0)"/>
     <use xlink:href="#Arial-BoldMT-76" transform="translate(1579.794922 0)"/>
     <use xlink:href="#Arial-BoldMT-65" transform="translate(1635.410156 0)"/>
     <use xlink:href="#Arial-BoldMT-72" transform="translate(1691.025391 0)"/>
     <use xlink:href="#Arial-BoldMT-76" transform="translate(1729.941406 0)"/>
     <use xlink:href="#Arial-BoldMT-69" transform="translate(1785.556641 0)"/>
     <use xlink:href="#Arial-BoldMT-65" transform="translate(1813.339844 0)"/>
     <use xlink:href="#Arial-BoldMT-77" transform="translate(1868.955078 0)"/>
    </g>
   </g>
   <g id="text_2">
    <!-- Text Raw -->
    <g style="fill: #ffffff" transform="translate(202.909672 82.519622) scale(0.07 -0.07)">
     <defs>
      <path id="Arial-BoldMT-78" d="M 38 0 
L 1234 1709 
L 88 3319 
L 1159 3319 
L 1747 2406 
L 2366 3319 
L 3397 3319 
L 2272 1747 
L 3500 0 
L 2422 0 
L 1747 1028 
L 1066 0 
L 38 0 
z
" transform="scale(0.015625)"/>
      <path id="Arial-BoldMT-52" d="M 469 0 
L 469 4581 
L 2416 4581 
Q 3150 4581 3483 4457 
Q 3816 4334 4016 4018 
Q 4216 3703 4216 3297 
Q 4216 2781 3912 2445 
Q 3609 2109 3006 2022 
Q 3306 1847 3501 1637 
Q 3697 1428 4028 894 
L 4588 0 
L 3481 0 
L 2813 997 
Q 2456 1531 2325 1670 
Q 2194 1809 2047 1861 
Q 1900 1913 1581 1913 
L 1394 1913 
L 1394 0 
L 469 0 
z
M 1394 2644 
L 2078 2644 
Q 2744 2644 2909 2700 
Q 3075 2756 3169 2893 
Q 3263 3031 3263 3238 
Q 3263 3469 3139 3611 
Q 3016 3753 2791 3791 
Q 2678 3806 2116 3806 
L 1394 3806 
L 1394 2644 
z
" transform="scale(0.015625)"/>
     </defs>
     <use xlink:href="#Arial-BoldMT-54"/>
     <use xlink:href="#Arial-BoldMT-65" transform="translate(53.708984 0)"/>
     <use xlink:href="#Arial-BoldMT-78" transform="translate(109.324219 0)"/>
     <use xlink:href="#Arial-BoldMT-74" transform="translate(164.939453 0)"/>
     <use xlink:href="#Arial-BoldMT-20" transform="translate(198.240234 0)"/>
     <use xlink:href="#Arial-BoldMT-52" transform="translate(226.023438 0)"/>
     <use xlink:href="#Arial-BoldMT-61" transform="translate(298.240234 0)"/>
     <use xlink:href="#Arial-BoldMT-77" transform="translate(353.855469 0)"/>
    </g>
    <!-- (B, 30, 200) -->
    <g style="fill: #ffffff" transform="translate(199.536547 90.015966) scale(0.07 -0.07)">
     <defs>
      <path id="Arial-BoldMT-28" d="M 1916 -1347 
L 1313 -1347 
Q 834 -625 584 153 
Q 334 931 334 1659 
Q 334 2563 644 3369 
Q 913 4069 1325 4659 
L 1925 4659 
Q 1497 3713 1336 3048 
Q 1175 2384 1175 1641 
Q 1175 1128 1270 590 
Q 1366 53 1531 -431 
Q 1641 -750 1916 -1347 
z
" transform="scale(0.015625)"/>
      <path id="Arial-BoldMT-42" d="M 469 4581 
L 2300 4581 
Q 2844 4581 3111 4536 
Q 3378 4491 3589 4347 
Q 3800 4203 3940 3964 
Q 4081 3725 4081 3428 
Q 4081 3106 3907 2837 
Q 3734 2569 3438 2434 
Q 3856 2313 4081 2019 
Q 4306 1725 4306 1328 
Q 4306 1016 4161 720 
Q 4016 425 3764 248 
Q 3513 72 3144 31 
Q 2913 6 2028 0 
L 469 0 
L 469 4581 
z
M 1394 3819 
L 1394 2759 
L 2000 2759 
Q 2541 2759 2672 2775 
Q 2909 2803 3045 2939 
Q 3181 3075 3181 3297 
Q 3181 3509 3064 3642 
Q 2947 3775 2716 3803 
Q 2578 3819 1925 3819 
L 1394 3819 
z
M 1394 1997 
L 1394 772 
L 2250 772 
Q 2750 772 2884 800 
Q 3091 838 3220 983 
Q 3350 1128 3350 1372 
Q 3350 1578 3250 1722 
Q 3150 1866 2961 1931 
Q 2772 1997 2141 1997 
L 1394 1997 
z
" transform="scale(0.015625)"/>
      <path id="Arial-BoldMT-2c" d="M 438 878 
L 1316 878 
L 1316 250 
Q 1316 -131 1250 -351 
Q 1184 -572 1001 -747 
Q 819 -922 538 -1022 
L 366 -659 
Q 631 -572 743 -419 
Q 856 -266 863 0 
L 438 0 
L 438 878 
z
" transform="scale(0.015625)"/>
      <path id="Arial-BoldMT-33" d="M 241 1216 
L 1091 1319 
Q 1131 994 1309 822 
Q 1488 650 1741 650 
Q 2013 650 2198 856 
Q 2384 1063 2384 1413 
Q 2384 1744 2206 1937 
Q 2028 2131 1772 2131 
Q 1603 2131 1369 2066 
L 1466 2781 
Q 1822 2772 2009 2936 
Q 2197 3100 2197 3372 
Q 2197 3603 2059 3740 
Q 1922 3878 1694 3878 
Q 1469 3878 1309 3722 
Q 1150 3566 1116 3266 
L 306 3403 
Q 391 3819 561 4067 
Q 731 4316 1036 4458 
Q 1341 4600 1719 4600 
Q 2366 4600 2756 4188 
Q 3078 3850 3078 3425 
Q 3078 2822 2419 2463 
Q 2813 2378 3048 2084 
Q 3284 1791 3284 1375 
Q 3284 772 2843 347 
Q 2403 -78 1747 -78 
Q 1125 -78 715 280 
Q 306 638 241 1216 
z
" transform="scale(0.015625)"/>
      <path id="Arial-BoldMT-30" d="M 1756 4600 
Q 2422 4600 2797 4125 
Q 3244 3563 3244 2259 
Q 3244 959 2794 391 
Q 2422 -78 1756 -78 
Q 1088 -78 678 436 
Q 269 950 269 2269 
Q 269 3563 719 4131 
Q 1091 4600 1756 4600 
z
M 1756 3872 
Q 1597 3872 1472 3770 
Q 1347 3669 1278 3406 
Q 1188 3066 1188 2259 
Q 1188 1453 1269 1151 
Q 1350 850 1473 750 
Q 1597 650 1756 650 
Q 1916 650 2041 751 
Q 2166 853 2234 1116 
Q 2325 1453 2325 2259 
Q 2325 3066 2244 3367 
Q 2163 3669 2039 3770 
Q 1916 3872 1756 3872 
z
" transform="scale(0.015625)"/>
      <path id="Arial-BoldMT-32" d="M 3238 816 
L 3238 0 
L 159 0 
Q 209 463 459 877 
Q 709 1291 1447 1975 
Q 2041 2528 2175 2725 
Q 2356 2997 2356 3263 
Q 2356 3556 2198 3714 
Q 2041 3872 1763 3872 
Q 1488 3872 1325 3706 
Q 1163 3541 1138 3156 
L 263 3244 
Q 341 3969 753 4284 
Q 1166 4600 1784 4600 
Q 2463 4600 2850 4234 
Q 3238 3869 3238 3325 
Q 3238 3016 3127 2736 
Q 3016 2456 2775 2150 
Q 2616 1947 2200 1565 
Q 1784 1184 1673 1059 
Q 1563 934 1494 816 
L 3238 816 
z
" transform="scale(0.015625)"/>
      <path id="Arial-BoldMT-29" d="M 216 -1347 
Q 475 -791 581 -494 
Q 688 -197 778 190 
Q 869 578 912 926 
Q 956 1275 956 1641 
Q 956 2384 797 3048 
Q 638 3713 209 4659 
L 806 4659 
Q 1278 3988 1539 3234 
Q 1800 2481 1800 1706 
Q 1800 1053 1594 306 
Q 1359 -531 822 -1347 
L 216 -1347 
z
" transform="scale(0.015625)"/>
     </defs>
     <use xlink:href="#Arial-BoldMT-28"/>
     <use xlink:href="#Arial-BoldMT-42" transform="translate(33.300781 0)"/>
     <use xlink:href="#Arial-BoldMT-2c" transform="translate(105.517578 0)"/>
     <use xlink:href="#Arial-BoldMT-20" transform="translate(133.300781 0)"/>
     <use xlink:href="#Arial-BoldMT-33" transform="translate(161.083984 0)"/>
     <use xlink:href="#Arial-BoldMT-30" transform="translate(216.699219 0)"/>
     <use xlink:href="#Arial-BoldMT-2c" transform="translate(272.314453 0)"/>
     <use xlink:href="#Arial-BoldMT-20" transform="translate(300.097656 0)"/>
     <use xlink:href="#Arial-BoldMT-32" transform="translate(327.880859 0)"/>
     <use xlink:href="#Arial-BoldMT-30" transform="translate(383.496094 0)"/>
     <use xlink:href="#Arial-BoldMT-30" transform="translate(439.111328 0)"/>
     <use xlink:href="#Arial-BoldMT-29" transform="translate(494.726562 0)"/>
    </g>
   </g>
   <g id="text_3">
    <!-- Image Raw -->
    <g style="fill: #ffffff" transform="translate(761.908328 82.473684) scale(0.07 -0.07)">
     <defs>
      <path id="Arial-BoldMT-49" d="M 438 0 
L 438 4581 
L 1363 4581 
L 1363 0 
L 438 0 
z
" transform="scale(0.015625)"/>
      <path id="Arial-BoldMT-6d" d="M 394 3319 
L 1203 3319 
L 1203 2866 
Q 1638 3394 2238 3394 
Q 2556 3394 2790 3262 
Q 3025 3131 3175 2866 
Q 3394 3131 3647 3262 
Q 3900 3394 4188 3394 
Q 4553 3394 4806 3245 
Q 5059 3097 5184 2809 
Q 5275 2597 5275 2122 
L 5275 0 
L 4397 0 
L 4397 1897 
Q 4397 2391 4306 2534 
Q 4184 2722 3931 2722 
Q 3747 2722 3584 2609 
Q 3422 2497 3350 2280 
Q 3278 2063 3278 1594 
L 3278 0 
L 2400 0 
L 2400 1819 
Q 2400 2303 2353 2443 
Q 2306 2584 2207 2653 
Q 2109 2722 1941 2722 
Q 1738 2722 1575 2612 
Q 1413 2503 1342 2297 
Q 1272 2091 1272 1613 
L 1272 0 
L 394 0 
L 394 3319 
z
" transform="scale(0.015625)"/>
      <path id="Arial-BoldMT-67" d="M 378 -219 
L 1381 -341 
Q 1406 -516 1497 -581 
Q 1622 -675 1891 -675 
Q 2234 -675 2406 -572 
Q 2522 -503 2581 -350 
Q 2622 -241 2622 53 
L 2622 538 
Q 2228 0 1628 0 
Q 959 0 569 566 
Q 263 1013 263 1678 
Q 263 2513 664 2953 
Q 1066 3394 1663 3394 
Q 2278 3394 2678 2853 
L 2678 3319 
L 3500 3319 
L 3500 341 
Q 3500 -247 3403 -537 
Q 3306 -828 3131 -993 
Q 2956 -1159 2664 -1253 
Q 2372 -1347 1925 -1347 
Q 1081 -1347 728 -1058 
Q 375 -769 375 -325 
Q 375 -281 378 -219 
z
M 1163 1728 
Q 1163 1200 1367 954 
Q 1572 709 1872 709 
Q 2194 709 2416 961 
Q 2638 1213 2638 1706 
Q 2638 2222 2425 2472 
Q 2213 2722 1888 2722 
Q 1572 2722 1367 2476 
Q 1163 2231 1163 1728 
z
" transform="scale(0.015625)"/>
     </defs>
     <use xlink:href="#Arial-BoldMT-49"/>
     <use xlink:href="#Arial-BoldMT-6d" transform="translate(27.783203 0)"/>
     <use xlink:href="#Arial-BoldMT-61" transform="translate(116.699219 0)"/>
     <use xlink:href="#Arial-BoldMT-67" transform="translate(172.314453 0)"/>
     <use xlink:href="#Arial-BoldMT-65" transform="translate(233.398438 0)"/>
     <use xlink:href="#Arial-BoldMT-20" transform="translate(289.013672 0)"/>
     <use xlink:href="#Arial-BoldMT-52" transform="translate(316.796875 0)"/>
     <use xlink:href="#Arial-BoldMT-61" transform="translate(389.013672 0)"/>
     <use xlink:href="#Arial-BoldMT-77" transform="translate(444.628906 0)"/>
    </g>
    <!-- (B, 512) -->
    <g style="fill: #ffffff" transform="translate(767.549891 90.061903) scale(0.07 -0.07)">
     <defs>
      <path id="Arial-BoldMT-35" d="M 284 1178 
L 1159 1269 
Q 1197 972 1381 798 
Q 1566 625 1806 625 
Q 2081 625 2272 848 
Q 2463 1072 2463 1522 
Q 2463 1944 2273 2155 
Q 2084 2366 1781 2366 
Q 1403 2366 1103 2031 
L 391 2134 
L 841 4519 
L 3163 4519 
L 3163 3697 
L 1506 3697 
L 1369 2919 
Q 1663 3066 1969 3066 
Q 2553 3066 2959 2641 
Q 3366 2216 3366 1538 
Q 3366 972 3038 528 
Q 2591 -78 1797 -78 
Q 1163 -78 763 262 
Q 363 603 284 1178 
z
" transform="scale(0.015625)"/>
      <path id="Arial-BoldMT-31" d="M 2519 0 
L 1641 0 
L 1641 3309 
Q 1159 2859 506 2644 
L 506 3441 
Q 850 3553 1253 3867 
Q 1656 4181 1806 4600 
L 2519 4600 
L 2519 0 
z
" transform="scale(0.015625)"/>
     </defs>
     <use xlink:href="#Arial-BoldMT-28"/>
     <use xlink:href="#Arial-BoldMT-42" transform="translate(33.300781 0)"/>
     <use xlink:href="#Arial-BoldMT-2c" transform="translate(105.517578 0)"/>
     <use xlink:href="#Arial-BoldMT-20" transform="translate(133.300781 0)"/>
     <use xlink:href="#Arial-BoldMT-35" transform="translate(161.083984 0)"/>
     <use xlink:href="#Arial-BoldMT-31" transform="translate(216.699219 0)"/>
     <use xlink:href="#Arial-BoldMT-32" transform="translate(272.314453 0)"/>
     <use xlink:href="#Arial-BoldMT-29" transform="translate(327.929688 0)"/>
    </g>
   </g>
   <g id="text_4">
    <!-- Task 1: Similarity Module -->
    <g style="fill: #ffffff" transform="translate(176.264828 184.69125) scale(0.07 -0.07)">
     <defs>
      <path id="Arial-BoldMT-73" d="M 150 947 
L 1031 1081 
Q 1088 825 1259 692 
Q 1431 559 1741 559 
Q 2081 559 2253 684 
Q 2369 772 2369 919 
Q 2369 1019 2306 1084 
Q 2241 1147 2013 1200 
Q 950 1434 666 1628 
Q 272 1897 272 2375 
Q 272 2806 612 3100 
Q 953 3394 1669 3394 
Q 2350 3394 2681 3172 
Q 3013 2950 3138 2516 
L 2309 2363 
Q 2256 2556 2107 2659 
Q 1959 2763 1684 2763 
Q 1338 2763 1188 2666 
Q 1088 2597 1088 2488 
Q 1088 2394 1175 2328 
Q 1294 2241 1995 2081 
Q 2697 1922 2975 1691 
Q 3250 1456 3250 1038 
Q 3250 581 2869 253 
Q 2488 -75 1741 -75 
Q 1063 -75 667 200 
Q 272 475 150 947 
z
" transform="scale(0.015625)"/>
      <path id="Arial-BoldMT-6b" d="M 428 0 
L 428 4581 
L 1306 4581 
L 1306 2150 
L 2334 3319 
L 3416 3319 
L 2281 2106 
L 3497 0 
L 2550 0 
L 1716 1491 
L 1306 1063 
L 1306 0 
L 428 0 
z
" transform="scale(0.015625)"/>
      <path id="Arial-BoldMT-3a" d="M 628 2441 
L 628 3319 
L 1506 3319 
L 1506 2441 
L 628 2441 
z
M 628 0 
L 628 878 
L 1506 878 
L 1506 0 
L 628 0 
z
" transform="scale(0.015625)"/>
      <path id="Arial-BoldMT-53" d="M 231 1491 
L 1131 1578 
Q 1213 1125 1461 912 
Q 1709 700 2131 700 
Q 2578 700 2804 889 
Q 3031 1078 3031 1331 
Q 3031 1494 2936 1608 
Q 2841 1722 2603 1806 
Q 2441 1863 1863 2006 
Q 1119 2191 819 2459 
Q 397 2838 397 3381 
Q 397 3731 595 4036 
Q 794 4341 1167 4500 
Q 1541 4659 2069 4659 
Q 2931 4659 3367 4281 
Q 3803 3903 3825 3272 
L 2900 3231 
Q 2841 3584 2645 3739 
Q 2450 3894 2059 3894 
Q 1656 3894 1428 3728 
Q 1281 3622 1281 3444 
Q 1281 3281 1419 3166 
Q 1594 3019 2269 2859 
Q 2944 2700 3267 2529 
Q 3591 2359 3773 2064 
Q 3956 1769 3956 1334 
Q 3956 941 3737 597 
Q 3519 253 3119 86 
Q 2719 -81 2122 -81 
Q 1253 -81 787 320 
Q 322 722 231 1491 
z
" transform="scale(0.015625)"/>
      <path id="Arial-BoldMT-79" d="M 44 3319 
L 978 3319 
L 1772 963 
L 2547 3319 
L 3456 3319 
L 2284 125 
L 2075 -453 
Q 1959 -744 1854 -897 
Q 1750 -1050 1614 -1145 
Q 1478 -1241 1279 -1294 
Q 1081 -1347 831 -1347 
Q 578 -1347 334 -1294 
L 256 -606 
Q 463 -647 628 -647 
Q 934 -647 1081 -467 
Q 1228 -288 1306 -9 
L 44 3319 
z
" transform="scale(0.015625)"/>
      <path id="Arial-BoldMT-4d" d="M 453 0 
L 453 4581 
L 1838 4581 
L 2669 1456 
L 3491 4581 
L 4878 4581 
L 4878 0 
L 4019 0 
L 4019 3606 
L 3109 0 
L 2219 0 
L 1313 3606 
L 1313 0 
L 453 0 
z
" transform="scale(0.015625)"/>
      <path id="Arial-BoldMT-6f" d="M 256 1706 
Q 256 2144 472 2553 
Q 688 2963 1083 3178 
Q 1478 3394 1966 3394 
Q 2719 3394 3200 2905 
Q 3681 2416 3681 1669 
Q 3681 916 3195 420 
Q 2709 -75 1972 -75 
Q 1516 -75 1102 131 
Q 688 338 472 736 
Q 256 1134 256 1706 
z
M 1156 1659 
Q 1156 1166 1390 903 
Q 1625 641 1969 641 
Q 2313 641 2545 903 
Q 2778 1166 2778 1666 
Q 2778 2153 2545 2415 
Q 2313 2678 1969 2678 
Q 1625 2678 1390 2415 
Q 1156 2153 1156 1659 
z
" transform="scale(0.015625)"/>
      <path id="Arial-BoldMT-64" d="M 3503 0 
L 2688 0 
L 2688 488 
Q 2484 203 2207 64 
Q 1931 -75 1650 -75 
Q 1078 -75 670 386 
Q 263 847 263 1672 
Q 263 2516 659 2955 
Q 1056 3394 1663 3394 
Q 2219 3394 2625 2931 
L 2625 4581 
L 3503 4581 
L 3503 0 
z
M 1159 1731 
Q 1159 1200 1306 963 
Q 1519 619 1900 619 
Q 2203 619 2415 876 
Q 2628 1134 2628 1647 
Q 2628 2219 2422 2470 
Q 2216 2722 1894 2722 
Q 1581 2722 1370 2473 
Q 1159 2225 1159 1731 
z
" transform="scale(0.015625)"/>
     </defs>
     <use xlink:href="#Arial-BoldMT-54"/>
     <use xlink:href="#Arial-BoldMT-61" transform="translate(53.708984 0)"/>
     <use xlink:href="#Arial-BoldMT-73" transform="translate(109.324219 0)"/>
     <use xlink:href="#Arial-BoldMT-6b" transform="translate(164.939453 0)"/>
     <use xlink:href="#Arial-BoldMT-20" transform="translate(220.554688 0)"/>
     <use xlink:href="#Arial-BoldMT-31" transform="translate(248.337891 0)"/>
     <use xlink:href="#Arial-BoldMT-3a" transform="translate(303.953125 0)"/>
     <use xlink:href="#Arial-BoldMT-20" transform="translate(337.253906 0)"/>
     <use xlink:href="#Arial-BoldMT-53" transform="translate(365.037109 0)"/>
     <use xlink:href="#Arial-BoldMT-69" transform="translate(431.736328 0)"/>
     <use xlink:href="#Arial-BoldMT-6d" transform="translate(459.519531 0)"/>
     <use xlink:href="#Arial-BoldMT-69" transform="translate(548.435547 0)"/>
     <use xlink:href="#Arial-BoldMT-6c" transform="translate(576.21875 0)"/>
     <use xlink:href="#Arial-BoldMT-61" transform="translate(604.001953 0)"/>
     <use xlink:href="#Arial-BoldMT-72" transform="translate(659.617188 0)"/>
     <use xlink:href="#Arial-BoldMT-69" transform="translate(698.533203 0)"/>
     <use xlink:href="#Arial-BoldMT-74" transform="translate(726.316406 0)"/>
     <use xlink:href="#Arial-BoldMT-79" transform="translate(759.617188 0)"/>
     <use xlink:href="#Arial-BoldMT-20" transform="translate(815.232422 0)"/>
     <use xlink:href="#Arial-BoldMT-4d" transform="translate(843.015625 0)"/>
     <use xlink:href="#Arial-BoldMT-6f" transform="translate(926.316406 0)"/>
     <use xlink:href="#Arial-BoldMT-64" transform="translate(987.400391 0)"/>
     <use xlink:href="#Arial-BoldMT-75" transform="translate(1048.484375 0)"/>
     <use xlink:href="#Arial-BoldMT-6c" transform="translate(1109.568359 0)"/>
     <use xlink:href="#Arial-BoldMT-65" transform="translate(1137.351562 0)"/>
    </g>
   </g>
   <g id="text_5">
    <!-- Text Aligned -->
    <g style="fill: #ffffff" transform="translate(144.701375 265.180884) scale(0.07 -0.07)">
     <defs>
      <path id="Arial-BoldMT-6e" d="M 3478 0 
L 2600 0 
L 2600 1694 
Q 2600 2231 2544 2389 
Q 2488 2547 2361 2634 
Q 2234 2722 2056 2722 
Q 1828 2722 1647 2597 
Q 1466 2472 1398 2265 
Q 1331 2059 1331 1503 
L 1331 0 
L 453 0 
L 453 3319 
L 1269 3319 
L 1269 2831 
Q 1703 3394 2363 3394 
Q 2653 3394 2893 3289 
Q 3134 3184 3257 3021 
Q 3381 2859 3429 2653 
Q 3478 2447 3478 2063 
L 3478 0 
z
" transform="scale(0.015625)"/>
     </defs>
     <use xlink:href="#Arial-BoldMT-54"/>
     <use xlink:href="#Arial-BoldMT-65" transform="translate(53.708984 0)"/>
     <use xlink:href="#Arial-BoldMT-78" transform="translate(109.324219 0)"/>
     <use xlink:href="#Arial-BoldMT-74" transform="translate(164.939453 0)"/>
     <use xlink:href="#Arial-BoldMT-20" transform="translate(198.240234 0)"/>
     <use xlink:href="#Arial-BoldMT-41" transform="translate(222.273438 0)"/>
     <use xlink:href="#Arial-BoldMT-6c" transform="translate(294.490234 0)"/>
     <use xlink:href="#Arial-BoldMT-69" transform="translate(322.273438 0)"/>
     <use xlink:href="#Arial-BoldMT-67" transform="translate(350.056641 0)"/>
     <use xlink:href="#Arial-BoldMT-6e" transform="translate(411.140625 0)"/>
     <use xlink:href="#Arial-BoldMT-65" transform="translate(472.224609 0)"/>
     <use xlink:href="#Arial-BoldMT-64" transform="translate(527.839844 0)"/>
    </g>
    <!-- (B, 64) -->
    <g style="fill: #ffffff" transform="translate(154.616219 272.769103) scale(0.07 -0.07)">
     <defs>
      <path id="Arial-BoldMT-36" d="M 3247 3459 
L 2397 3366 
Q 2366 3628 2234 3753 
Q 2103 3878 1894 3878 
Q 1616 3878 1423 3628 
Q 1231 3378 1181 2588 
Q 1509 2975 1997 2975 
Q 2547 2975 2939 2556 
Q 3331 2138 3331 1475 
Q 3331 772 2918 347 
Q 2506 -78 1859 -78 
Q 1166 -78 719 461 
Q 272 1000 272 2228 
Q 272 3488 737 4044 
Q 1203 4600 1947 4600 
Q 2469 4600 2811 4308 
Q 3153 4016 3247 3459 
z
M 1256 1544 
Q 1256 1116 1453 883 
Q 1650 650 1903 650 
Q 2147 650 2309 840 
Q 2472 1031 2472 1466 
Q 2472 1913 2297 2120 
Q 2122 2328 1859 2328 
Q 1606 2328 1431 2129 
Q 1256 1931 1256 1544 
z
" transform="scale(0.015625)"/>
      <path id="Arial-BoldMT-34" d="M 1994 0 
L 1994 922 
L 119 922 
L 119 1691 
L 2106 4600 
L 2844 4600 
L 2844 1694 
L 3413 1694 
L 3413 922 
L 2844 922 
L 2844 0 
L 1994 0 
z
M 1994 1694 
L 1994 3259 
L 941 1694 
L 1994 1694 
z
" transform="scale(0.015625)"/>
     </defs>
     <use xlink:href="#Arial-BoldMT-28"/>
     <use xlink:href="#Arial-BoldMT-42" transform="translate(33.300781 0)"/>
     <use xlink:href="#Arial-BoldMT-2c" transform="translate(105.517578 0)"/>
     <use xlink:href="#Arial-BoldMT-20" transform="translate(133.300781 0)"/>
     <use xlink:href="#Arial-BoldMT-36" transform="translate(161.083984 0)"/>
     <use xlink:href="#Arial-BoldMT-34" transform="translate(216.699219 0)"/>
     <use xlink:href="#Arial-BoldMT-29" transform="translate(272.314453 0)"/>
    </g>
   </g>
   <g id="text_6">
    <!-- Image Aligned -->
    <g style="fill: #ffffff" transform="translate(246.932031 265.180884) scale(0.07 -0.07)">
     <use xlink:href="#Arial-BoldMT-49"/>
     <use xlink:href="#Arial-BoldMT-6d" transform="translate(27.783203 0)"/>
     <use xlink:href="#Arial-BoldMT-61" transform="translate(116.699219 0)"/>
     <use xlink:href="#Arial-BoldMT-67" transform="translate(172.314453 0)"/>
     <use xlink:href="#Arial-BoldMT-65" transform="translate(233.398438 0)"/>
     <use xlink:href="#Arial-BoldMT-20" transform="translate(289.013672 0)"/>
     <use xlink:href="#Arial-BoldMT-41" transform="translate(313.046875 0)"/>
     <use xlink:href="#Arial-BoldMT-6c" transform="translate(385.263672 0)"/>
     <use xlink:href="#Arial-BoldMT-69" transform="translate(413.046875 0)"/>
     <use xlink:href="#Arial-BoldMT-67" transform="translate(440.830078 0)"/>
     <use xlink:href="#Arial-BoldMT-6e" transform="translate(501.914062 0)"/>
     <use xlink:href="#Arial-BoldMT-65" transform="translate(562.998047 0)"/>
     <use xlink:href="#Arial-BoldMT-64" transform="translate(618.613281 0)"/>
    </g>
    <!-- (B, 64) -->
    <g style="fill: #ffffff" transform="translate(260.024219 272.769103) scale(0.07 -0.07)">
     <use xlink:href="#Arial-BoldMT-28"/>
     <use xlink:href="#Arial-BoldMT-42" transform="translate(33.300781 0)"/>
     <use xlink:href="#Arial-BoldMT-2c" transform="translate(105.517578 0)"/>
     <use xlink:href="#Arial-BoldMT-20" transform="translate(133.300781 0)"/>
     <use xlink:href="#Arial-BoldMT-36" transform="translate(161.083984 0)"/>
     <use xlink:href="#Arial-BoldMT-34" transform="translate(216.699219 0)"/>
     <use xlink:href="#Arial-BoldMT-29" transform="translate(272.314453 0)"/>
    </g>
   </g>
   <g id="text_7">
    <!-- Task 1: CLIP Module -->
    <g style="fill: #ffffff" transform="translate(746.286297 184.694531) scale(0.07 -0.07)">
     <defs>
      <path id="Arial-BoldMT-50" d="M 466 0 
L 466 4581 
L 1950 4581 
Q 2794 4581 3050 4513 
Q 3444 4409 3709 4064 
Q 3975 3719 3975 3172 
Q 3975 2750 3822 2462 
Q 3669 2175 3433 2011 
Q 3197 1847 2953 1794 
Q 2622 1728 1994 1728 
L 1391 1728 
L 1391 0 
L 466 0 
z
M 1391 3806 
L 1391 2506 
L 1897 2506 
Q 2444 2506 2628 2578 
Q 2813 2650 2917 2803 
Q 3022 2956 3022 3159 
Q 3022 3409 2875 3571 
Q 2728 3734 2503 3775 
Q 2338 3806 1838 3806 
L 1391 3806 
z
" transform="scale(0.015625)"/>
     </defs>
     <use xlink:href="#Arial-BoldMT-54"/>
     <use xlink:href="#Arial-BoldMT-61" transform="translate(53.708984 0)"/>
     <use xlink:href="#Arial-BoldMT-73" transform="translate(109.324219 0)"/>
     <use xlink:href="#Arial-BoldMT-6b" transform="translate(164.939453 0)"/>
     <use xlink:href="#Arial-BoldMT-20" transform="translate(220.554688 0)"/>
     <use xlink:href="#Arial-BoldMT-31" transform="translate(248.337891 0)"/>
     <use xlink:href="#Arial-BoldMT-3a" transform="translate(303.953125 0)"/>
     <use xlink:href="#Arial-BoldMT-20" transform="translate(337.253906 0)"/>
     <use xlink:href="#Arial-BoldMT-43" transform="translate(365.037109 0)"/>
     <use xlink:href="#Arial-BoldMT-4c" transform="translate(437.253906 0)"/>
     <use xlink:href="#Arial-BoldMT-49" transform="translate(498.337891 0)"/>
     <use xlink:href="#Arial-BoldMT-50" transform="translate(526.121094 0)"/>
     <use xlink:href="#Arial-BoldMT-20" transform="translate(591.070312 0)"/>
     <use xlink:href="#Arial-BoldMT-4d" transform="translate(618.853516 0)"/>
     <use xlink:href="#Arial-BoldMT-6f" transform="translate(702.154297 0)"/>
     <use xlink:href="#Arial-BoldMT-64" transform="translate(763.238281 0)"/>
     <use xlink:href="#Arial-BoldMT-75" transform="translate(824.322266 0)"/>
     <use xlink:href="#Arial-BoldMT-6c" transform="translate(885.40625 0)"/>
     <use xlink:href="#Arial-BoldMT-65" transform="translate(913.189453 0)"/>
    </g>
   </g>
   <g id="text_8">
    <!-- Text CLIP -->
    <g style="fill: #ffffff" transform="translate(711.605656 265.226822) scale(0.07 -0.07)">
     <use xlink:href="#Arial-BoldMT-54"/>
     <use xlink:href="#Arial-BoldMT-65" transform="translate(53.708984 0)"/>
     <use xlink:href="#Arial-BoldMT-78" transform="translate(109.324219 0)"/>
     <use xlink:href="#Arial-BoldMT-74" transform="translate(164.939453 0)"/>
     <use xlink:href="#Arial-BoldMT-20" transform="translate(198.240234 0)"/>
     <use xlink:href="#Arial-BoldMT-43" transform="translate(226.023438 0)"/>
     <use xlink:href="#Arial-BoldMT-4c" transform="translate(298.240234 0)"/>
     <use xlink:href="#Arial-BoldMT-49" transform="translate(359.324219 0)"/>
     <use xlink:href="#Arial-BoldMT-50" transform="translate(387.107422 0)"/>
    </g>
    <!-- (B, 64) -->
    <g style="fill: #ffffff" transform="translate(716.792219 272.723166) scale(0.07 -0.07)">
     <use xlink:href="#Arial-BoldMT-28"/>
     <use xlink:href="#Arial-BoldMT-42" transform="translate(33.300781 0)"/>
     <use xlink:href="#Arial-BoldMT-2c" transform="translate(105.517578 0)"/>
     <use xlink:href="#Arial-BoldMT-20" transform="translate(133.300781 0)"/>
     <use xlink:href="#Arial-BoldMT-36" transform="translate(161.083984 0)"/>
     <use xlink:href="#Arial-BoldMT-34" transform="translate(216.699219 0)"/>
     <use xlink:href="#Arial-BoldMT-29" transform="translate(272.314453 0)"/>
    </g>
   </g>
   <g id="text_9">
    <!-- Image CLIP -->
    <g style="fill: #ffffff" transform="translate(813.836312 265.223541) scale(0.07 -0.07)">
     <use xlink:href="#Arial-BoldMT-49"/>
     <use xlink:href="#Arial-BoldMT-6d" transform="translate(27.783203 0)"/>
     <use xlink:href="#Arial-BoldMT-61" transform="translate(116.699219 0)"/>
     <use xlink:href="#Arial-BoldMT-67" transform="translate(172.314453 0)"/>
     <use xlink:href="#Arial-BoldMT-65" transform="translate(233.398438 0)"/>
     <use xlink:href="#Arial-BoldMT-20" transform="translate(289.013672 0)"/>
     <use xlink:href="#Arial-BoldMT-43" transform="translate(316.796875 0)"/>
     <use xlink:href="#Arial-BoldMT-4c" transform="translate(389.013672 0)"/>
     <use xlink:href="#Arial-BoldMT-49" transform="translate(450.097656 0)"/>
     <use xlink:href="#Arial-BoldMT-50" transform="translate(477.880859 0)"/>
    </g>
    <!-- (B, 64) -->
    <g style="fill: #ffffff" transform="translate(822.200219 272.811759) scale(0.07 -0.07)">
     <use xlink:href="#Arial-BoldMT-28"/>
     <use xlink:href="#Arial-BoldMT-42" transform="translate(33.300781 0)"/>
     <use xlink:href="#Arial-BoldMT-2c" transform="translate(105.517578 0)"/>
     <use xlink:href="#Arial-BoldMT-20" transform="translate(133.300781 0)"/>
     <use xlink:href="#Arial-BoldMT-36" transform="translate(161.083984 0)"/>
     <use xlink:href="#Arial-BoldMT-34" transform="translate(216.699219 0)"/>
     <use xlink:href="#Arial-BoldMT-29" transform="translate(272.314453 0)"/>
    </g>
   </g>
   <g id="text_10">
    <!-- Task 2: Detection Module -->
    <g style="fill: #ffffff" transform="translate(457.164156 360.374531) scale(0.07 -0.07)">
     <defs>
      <path id="Arial-BoldMT-44" d="M 463 4581 
L 2153 4581 
Q 2725 4581 3025 4494 
Q 3428 4375 3715 4072 
Q 4003 3769 4153 3330 
Q 4303 2891 4303 2247 
Q 4303 1681 4163 1272 
Q 3991 772 3672 463 
Q 3431 228 3022 97 
Q 2716 0 2203 0 
L 463 0 
L 463 4581 
z
M 1388 3806 
L 1388 772 
L 2078 772 
Q 2466 772 2638 816 
Q 2863 872 3011 1006 
Q 3159 1141 3253 1448 
Q 3347 1756 3347 2288 
Q 3347 2819 3253 3103 
Q 3159 3388 2990 3547 
Q 2822 3706 2563 3763 
Q 2369 3806 1803 3806 
L 1388 3806 
z
" transform="scale(0.015625)"/>
     </defs>
     <use xlink:href="#Arial-BoldMT-54"/>
     <use xlink:href="#Arial-BoldMT-61" transform="translate(53.708984 0)"/>
     <use xlink:href="#Arial-BoldMT-73" transform="translate(109.324219 0)"/>
     <use xlink:href="#Arial-BoldMT-6b" transform="translate(164.939453 0)"/>
     <use xlink:href="#Arial-BoldMT-20" transform="translate(220.554688 0)"/>
     <use xlink:href="#Arial-BoldMT-32" transform="translate(248.337891 0)"/>
     <use xlink:href="#Arial-BoldMT-3a" transform="translate(303.953125 0)"/>
     <use xlink:href="#Arial-BoldMT-20" transform="translate(337.253906 0)"/>
     <use xlink:href="#Arial-BoldMT-44" transform="translate(365.037109 0)"/>
     <use xlink:href="#Arial-BoldMT-65" transform="translate(437.253906 0)"/>
     <use xlink:href="#Arial-BoldMT-74" transform="translate(492.869141 0)"/>
     <use xlink:href="#Arial-BoldMT-65" transform="translate(526.169922 0)"/>
     <use xlink:href="#Arial-BoldMT-63" transform="translate(581.785156 0)"/>
     <use xlink:href="#Arial-BoldMT-74" transform="translate(637.400391 0)"/>
     <use xlink:href="#Arial-BoldMT-69" transform="translate(670.701172 0)"/>
     <use xlink:href="#Arial-BoldMT-6f" transform="translate(698.484375 0)"/>
     <use xlink:href="#Arial-BoldMT-6e" transform="translate(759.568359 0)"/>
     <use xlink:href="#Arial-BoldMT-20" transform="translate(820.652344 0)"/>
     <use xlink:href="#Arial-BoldMT-4d" transform="translate(848.435547 0)"/>
     <use xlink:href="#Arial-BoldMT-6f" transform="translate(931.736328 0)"/>
     <use xlink:href="#Arial-BoldMT-64" transform="translate(992.820312 0)"/>
     <use xlink:href="#Arial-BoldMT-75" transform="translate(1053.904297 0)"/>
     <use xlink:href="#Arial-BoldMT-6c" transform="translate(1114.988281 0)"/>
     <use xlink:href="#Arial-BoldMT-65" transform="translate(1142.771484 0)"/>
    </g>
   </g>
   <g id="text_11">
    <!-- Cross-Modal -->
    <g style="fill: #ffffff" transform="translate(196.820766 430.182637) scale(0.07 -0.07)">
     <defs>
      <path id="Arial-BoldMT-2d" d="M 359 1222 
L 359 2100 
L 2084 2100 
L 2084 1222 
L 359 1222 
z
" transform="scale(0.015625)"/>
     </defs>
     <use xlink:href="#Arial-BoldMT-43"/>
     <use xlink:href="#Arial-BoldMT-72" transform="translate(72.216797 0)"/>
     <use xlink:href="#Arial-BoldMT-6f" transform="translate(111.132812 0)"/>
     <use xlink:href="#Arial-BoldMT-73" transform="translate(172.216797 0)"/>
     <use xlink:href="#Arial-BoldMT-73" transform="translate(227.832031 0)"/>
     <use xlink:href="#Arial-BoldMT-2d" transform="translate(283.447266 0)"/>
     <use xlink:href="#Arial-BoldMT-4d" transform="translate(316.748047 0)"/>
     <use xlink:href="#Arial-BoldMT-6f" transform="translate(400.048828 0)"/>
     <use xlink:href="#Arial-BoldMT-64" transform="translate(461.132812 0)"/>
     <use xlink:href="#Arial-BoldMT-61" transform="translate(522.216797 0)"/>
     <use xlink:href="#Arial-BoldMT-6c" transform="translate(577.832031 0)"/>
    </g>
    <!-- Correlation -->
    <g style="fill: #ffffff" transform="translate(199.347875 437.576606) scale(0.07 -0.07)">
     <use xlink:href="#Arial-BoldMT-43"/>
     <use xlink:href="#Arial-BoldMT-6f" transform="translate(72.216797 0)"/>
     <use xlink:href="#Arial-BoldMT-72" transform="translate(133.300781 0)"/>
     <use xlink:href="#Arial-BoldMT-72" transform="translate(172.216797 0)"/>
     <use xlink:href="#Arial-BoldMT-65" transform="translate(211.132812 0)"/>
     <use xlink:href="#Arial-BoldMT-6c" transform="translate(266.748047 0)"/>
     <use xlink:href="#Arial-BoldMT-61" transform="translate(294.53125 0)"/>
     <use xlink:href="#Arial-BoldMT-74" transform="translate(350.146484 0)"/>
     <use xlink:href="#Arial-BoldMT-69" transform="translate(383.447266 0)"/>
     <use xlink:href="#Arial-BoldMT-6f" transform="translate(411.230469 0)"/>
     <use xlink:href="#Arial-BoldMT-6e" transform="translate(472.314453 0)"/>
    </g>
    <!-- (B, 64) -->
    <g style="fill: #ffffff" transform="translate(207.320219 445.07295) scale(0.07 -0.07)">
     <use xlink:href="#Arial-BoldMT-28"/>
     <use xlink:href="#Arial-BoldMT-42" transform="translate(33.300781 0)"/>
     <use xlink:href="#Arial-BoldMT-2c" transform="translate(105.517578 0)"/>
     <use xlink:href="#Arial-BoldMT-20" transform="translate(133.300781 0)"/>
     <use xlink:href="#Arial-BoldMT-36" transform="translate(161.083984 0)"/>
     <use xlink:href="#Arial-BoldMT-34" transform="translate(216.699219 0)"/>
     <use xlink:href="#Arial-BoldMT-29" transform="translate(272.314453 0)"/>
    </g>
   </g>
   <g id="text_12">
    <!-- SE Attention -->
    <g style="fill: #ffffff" transform="translate(478.237984 430.1367) scale(0.07 -0.07)">
     <defs>
      <path id="Arial-BoldMT-45" d="M 466 0 
L 466 4581 
L 3863 4581 
L 3863 3806 
L 1391 3806 
L 1391 2791 
L 3691 2791 
L 3691 2019 
L 1391 2019 
L 1391 772 
L 3950 772 
L 3950 0 
L 466 0 
z
" transform="scale(0.015625)"/>
     </defs>
     <use xlink:href="#Arial-BoldMT-53"/>
     <use xlink:href="#Arial-BoldMT-45" transform="translate(66.699219 0)"/>
     <use xlink:href="#Arial-BoldMT-20" transform="translate(133.398438 0)"/>
     <use xlink:href="#Arial-BoldMT-41" transform="translate(157.431641 0)"/>
     <use xlink:href="#Arial-BoldMT-74" transform="translate(229.648438 0)"/>
     <use xlink:href="#Arial-BoldMT-74" transform="translate(262.949219 0)"/>
     <use xlink:href="#Arial-BoldMT-65" transform="translate(296.25 0)"/>
     <use xlink:href="#Arial-BoldMT-6e" transform="translate(351.865234 0)"/>
     <use xlink:href="#Arial-BoldMT-74" transform="translate(412.949219 0)"/>
     <use xlink:href="#Arial-BoldMT-69" transform="translate(446.25 0)"/>
     <use xlink:href="#Arial-BoldMT-6f" transform="translate(474.033203 0)"/>
     <use xlink:href="#Arial-BoldMT-6e" transform="translate(535.117188 0)"/>
    </g>
    <!-- Weights -->
    <g style="fill: #ffffff" transform="translate(485.555719 437.530669) scale(0.07 -0.07)">
     <defs>
      <path id="Arial-BoldMT-57" d="M 1116 0 
L 22 4581 
L 969 4581 
L 1659 1434 
L 2497 4581 
L 3597 4581 
L 4400 1381 
L 5103 4581 
L 6034 4581 
L 4922 0 
L 3941 0 
L 3028 3425 
L 2119 0 
L 1116 0 
z
" transform="scale(0.015625)"/>
     </defs>
     <use xlink:href="#Arial-BoldMT-57"/>
     <use xlink:href="#Arial-BoldMT-65" transform="translate(92.634766 0)"/>
     <use xlink:href="#Arial-BoldMT-69" transform="translate(148.25 0)"/>
     <use xlink:href="#Arial-BoldMT-67" transform="translate(176.033203 0)"/>
     <use xlink:href="#Arial-BoldMT-68" transform="translate(237.117188 0)"/>
     <use xlink:href="#Arial-BoldMT-74" transform="translate(298.201172 0)"/>
     <use xlink:href="#Arial-BoldMT-73" transform="translate(331.501953 0)"/>
    </g>
    <!-- (B, 3) -->
    <g style="fill: #ffffff" transform="translate(490.354547 445.118887) scale(0.07 -0.07)">
     <use xlink:href="#Arial-BoldMT-28"/>
     <use xlink:href="#Arial-BoldMT-42" transform="translate(33.300781 0)"/>
     <use xlink:href="#Arial-BoldMT-2c" transform="translate(105.517578 0)"/>
     <use xlink:href="#Arial-BoldMT-20" transform="translate(133.300781 0)"/>
     <use xlink:href="#Arial-BoldMT-33" transform="translate(161.083984 0)"/>
     <use xlink:href="#Arial-BoldMT-29" transform="translate(216.699219 0)"/>
    </g>
   </g>
   <g id="text_13">
    <!-- Final Classification -->
    <g style="fill: #ffffff" transform="translate(467.21025 539.287622) scale(0.07 -0.07)">
     <defs>
      <path id="Arial-BoldMT-46" d="M 472 0 
L 472 4581 
L 3613 4581 
L 3613 3806 
L 1397 3806 
L 1397 2722 
L 3309 2722 
L 3309 1947 
L 1397 1947 
L 1397 0 
L 472 0 
z
" transform="scale(0.015625)"/>
     </defs>
     <use xlink:href="#Arial-BoldMT-46"/>
     <use xlink:href="#Arial-BoldMT-69" transform="translate(61.083984 0)"/>
     <use xlink:href="#Arial-BoldMT-6e" transform="translate(88.867188 0)"/>
     <use xlink:href="#Arial-BoldMT-61" transform="translate(149.951172 0)"/>
     <use xlink:href="#Arial-BoldMT-6c" transform="translate(205.566406 0)"/>
     <use xlink:href="#Arial-BoldMT-20" transform="translate(233.349609 0)"/>
     <use xlink:href="#Arial-BoldMT-43" transform="translate(261.132812 0)"/>
     <use xlink:href="#Arial-BoldMT-6c" transform="translate(333.349609 0)"/>
     <use xlink:href="#Arial-BoldMT-61" transform="translate(361.132812 0)"/>
     <use xlink:href="#Arial-BoldMT-73" transform="translate(416.748047 0)"/>
     <use xlink:href="#Arial-BoldMT-73" transform="translate(472.363281 0)"/>
     <use xlink:href="#Arial-BoldMT-69" transform="translate(527.978516 0)"/>
     <use xlink:href="#Arial-BoldMT-66" transform="translate(555.761719 0)"/>
     <use xlink:href="#Arial-BoldMT-69" transform="translate(589.0625 0)"/>
     <use xlink:href="#Arial-BoldMT-63" transform="translate(616.845703 0)"/>
     <use xlink:href="#Arial-BoldMT-61" transform="translate(672.460938 0)"/>
     <use xlink:href="#Arial-BoldMT-74" transform="translate(728.076172 0)"/>
     <use xlink:href="#Arial-BoldMT-69" transform="translate(761.376953 0)"/>
     <use xlink:href="#Arial-BoldMT-6f" transform="translate(789.160156 0)"/>
     <use xlink:href="#Arial-BoldMT-6e" transform="translate(850.244141 0)"/>
    </g>
    <!-- (B, 2) - [Real/Fake] -->
    <g style="fill: #ffffff" transform="translate(468.571969 546.783966) scale(0.07 -0.07)">
     <defs>
      <path id="Arial-BoldMT-5b" d="M 456 -1291 
L 456 4581 
L 2013 4581 
L 2013 3891 
L 1291 3891 
L 1291 -600 
L 2013 -600 
L 2013 -1291 
L 456 -1291 
z
" transform="scale(0.015625)"/>
      <path id="Arial-BoldMT-2f" d="M -9 -78 
L 1125 4659 
L 1784 4659 
L 638 -78 
L -9 -78 
z
" transform="scale(0.015625)"/>
      <path id="Arial-BoldMT-5d" d="M 1675 4581 
L 1675 -1291 
L 119 -1291 
L 119 -600 
L 841 -600 
L 841 3897 
L 119 3897 
L 119 4581 
L 1675 4581 
z
" transform="scale(0.015625)"/>
     </defs>
     <use xlink:href="#Arial-BoldMT-28"/>
     <use xlink:href="#Arial-BoldMT-42" transform="translate(33.300781 0)"/>
     <use xlink:href="#Arial-BoldMT-2c" transform="translate(105.517578 0)"/>
     <use xlink:href="#Arial-BoldMT-20" transform="translate(133.300781 0)"/>
     <use xlink:href="#Arial-BoldMT-32" transform="translate(161.083984 0)"/>
     <use xlink:href="#Arial-BoldMT-29" transform="translate(216.699219 0)"/>
     <use xlink:href="#Arial-BoldMT-20" transform="translate(250 0)"/>
     <use xlink:href="#Arial-BoldMT-2d" transform="translate(277.783203 0)"/>
     <use xlink:href="#Arial-BoldMT-20" transform="translate(311.083984 0)"/>
     <use xlink:href="#Arial-BoldMT-5b" transform="translate(338.867188 0)"/>
     <use xlink:href="#Arial-BoldMT-52" transform="translate(372.167969 0)"/>
     <use xlink:href="#Arial-BoldMT-65" transform="translate(444.384766 0)"/>
     <use xlink:href="#Arial-BoldMT-61" transform="translate(500 0)"/>
     <use xlink:href="#Arial-BoldMT-6c" transform="translate(555.615234 0)"/>
     <use xlink:href="#Arial-BoldMT-2f" transform="translate(583.398438 0)"/>
     <use xlink:href="#Arial-BoldMT-46" transform="translate(611.181641 0)"/>
     <use xlink:href="#Arial-BoldMT-61" transform="translate(672.265625 0)"/>
     <use xlink:href="#Arial-BoldMT-6b" transform="translate(727.880859 0)"/>
     <use xlink:href="#Arial-BoldMT-65" transform="translate(783.496094 0)"/>
     <use xlink:href="#Arial-BoldMT-5d" transform="translate(839.111328 0)"/>
    </g>
   </g>
   <g id="text_14">
    <!-- Official Implementation: Similarity  CLIP  Detection (uses CLIP outputs) -->
    <g transform="translate(332.204 674.784) scale(0.1 -0.1)">
     <defs>
      <path id="Arial-ItalicMT-4f" d="M 584 1919 
Q 584 3144 1292 3901 
Q 2000 4659 3009 4659 
Q 3866 4659 4405 4101 
Q 4944 3544 4944 2606 
Q 4944 1938 4672 1366 
Q 4469 938 4159 627 
Q 3850 316 3497 147 
Q 3028 -78 2503 -78 
Q 1953 -78 1501 184 
Q 1050 447 817 917 
Q 584 1388 584 1919 
z
M 1188 1888 
Q 1188 1484 1355 1146 
Q 1522 809 1853 618 
Q 2184 428 2550 428 
Q 2903 428 3222 595 
Q 3541 763 3792 1061 
Q 4044 1359 4189 1795 
Q 4334 2231 4334 2653 
Q 4334 3338 3951 3744 
Q 3569 4150 3006 4150 
Q 2288 4150 1738 3536 
Q 1188 2922 1188 1888 
z
" transform="scale(0.015625)"/>
      <path id="Arial-ItalicMT-66" d="M 291 0 
L 894 2881 
L 388 2881 
L 478 3319 
L 984 3319 
L 1081 3791 
Q 1156 4144 1236 4300 
Q 1316 4456 1495 4557 
Q 1675 4659 1984 4659 
Q 2200 4659 2609 4569 
L 2506 4075 
Q 2219 4150 2025 4150 
Q 1859 4150 1773 4067 
Q 1688 3984 1625 3675 
L 1550 3319 
L 2181 3319 
L 2091 2881 
L 1459 2881 
L 856 0 
L 291 0 
z
" transform="scale(0.015625)"/>
      <path id="Arial-ItalicMT-69" d="M 1016 3941 
L 1150 4581 
L 1713 4581 
L 1578 3941 
L 1016 3941 
z
M 191 0 
L 884 3319 
L 1450 3319 
L 756 0 
L 191 0 
z
" transform="scale(0.015625)"/>
      <path id="Arial-ItalicMT-63" d="M 2503 1209 
L 3069 1150 
Q 2856 528 2464 226 
Q 2072 -75 1572 -75 
Q 1031 -75 695 275 
Q 359 625 359 1253 
Q 359 1797 575 2322 
Q 791 2847 1192 3120 
Q 1594 3394 2109 3394 
Q 2644 3394 2956 3092 
Q 3269 2791 3269 2294 
L 2713 2256 
Q 2709 2572 2529 2750 
Q 2350 2928 2056 2928 
Q 1716 2928 1466 2712 
Q 1216 2497 1073 2058 
Q 931 1619 931 1213 
Q 931 788 1118 575 
Q 1306 363 1581 363 
Q 1856 363 2107 572 
Q 2359 781 2503 1209 
z
" transform="scale(0.015625)"/>
      <path id="Arial-ItalicMT-61" d="M 2450 413 
Q 2156 159 1884 42 
Q 1613 -75 1303 -75 
Q 844 -75 562 195 
Q 281 466 281 888 
Q 281 1166 407 1380 
Q 534 1594 743 1723 
Q 953 1853 1256 1909 
Q 1447 1947 1980 1969 
Q 2513 1991 2744 2081 
Q 2809 2313 2809 2466 
Q 2809 2663 2666 2775 
Q 2469 2931 2091 2931 
Q 1734 2931 1507 2773 
Q 1281 2616 1178 2325 
L 606 2375 
Q 781 2869 1161 3131 
Q 1541 3394 2119 3394 
Q 2734 3394 3094 3100 
Q 3369 2881 3369 2531 
Q 3369 2266 3291 1916 
L 3106 1091 
Q 3019 697 3019 450 
Q 3019 294 3088 0 
L 2516 0 
Q 2469 163 2450 413 
z
M 2659 1681 
Q 2541 1634 2405 1609 
Q 2269 1584 1950 1556 
Q 1456 1513 1253 1445 
Q 1050 1378 947 1231 
Q 844 1084 844 906 
Q 844 669 1008 516 
Q 1172 363 1475 363 
Q 1756 363 2015 511 
Q 2275 659 2425 925 
Q 2575 1191 2659 1681 
z
" transform="scale(0.015625)"/>
      <path id="Arial-ItalicMT-6c" d="M 169 0 
L 1125 4581 
L 1691 4581 
L 734 0 
L 169 0 
z
" transform="scale(0.015625)"/>
      <path id="Arial-ItalicMT-20" transform="scale(0.015625)"/>
      <path id="Arial-ItalicMT-49" d="M 366 0 
L 1325 4581 
L 1934 4581 
L 978 0 
L 366 0 
z
" transform="scale(0.015625)"/>
      <path id="Arial-ItalicMT-6d" d="M 209 0 
L 903 3319 
L 1469 3319 
L 1353 2772 
Q 1669 3125 1917 3259 
Q 2166 3394 2456 3394 
Q 2766 3394 2973 3230 
Q 3181 3066 3247 2772 
Q 3500 3084 3779 3239 
Q 4059 3394 4369 3394 
Q 4784 3394 4992 3197 
Q 5200 3000 5200 2644 
Q 5200 2491 5128 2138 
L 4681 0 
L 4116 0 
L 4572 2194 
Q 4631 2463 4631 2578 
Q 4631 2741 4528 2834 
Q 4425 2928 4238 2928 
Q 3984 2928 3721 2775 
Q 3459 2622 3314 2373 
Q 3169 2125 3059 1609 
L 2722 0 
L 2156 0 
L 2625 2241 
Q 2675 2469 2675 2566 
Q 2675 2728 2573 2828 
Q 2472 2928 2309 2928 
Q 2069 2928 1805 2775 
Q 1541 2622 1375 2348 
Q 1209 2075 1103 1569 
L 775 0 
L 209 0 
z
" transform="scale(0.015625)"/>
      <path id="Arial-ItalicMT-70" d="M -66 -1272 
L 894 3319 
L 1416 3319 
L 1319 2856 
Q 1609 3159 1839 3276 
Q 2069 3394 2325 3394 
Q 2800 3394 3112 3048 
Q 3425 2703 3425 2059 
Q 3425 1541 3253 1114 
Q 3081 688 2831 428 
Q 2581 169 2325 47 
Q 2069 -75 1800 -75 
Q 1203 -75 875 531 
L 500 -1272 
L -66 -1272 
z
M 1053 1356 
Q 1053 984 1106 841 
Q 1184 638 1362 513 
Q 1541 388 1775 388 
Q 2263 388 2563 936 
Q 2863 1484 2863 2056 
Q 2863 2478 2661 2708 
Q 2459 2938 2159 2938 
Q 1944 2938 1759 2823 
Q 1575 2709 1417 2482 
Q 1259 2256 1156 1928 
Q 1053 1600 1053 1356 
z
" transform="scale(0.015625)"/>
      <path id="Arial-ItalicMT-65" d="M 2650 1128 
L 3200 1072 
Q 3081 663 2654 294 
Q 2228 -75 1638 -75 
Q 1269 -75 961 95 
Q 653 266 492 591 
Q 331 916 331 1331 
Q 331 1875 582 2386 
Q 834 2897 1234 3145 
Q 1634 3394 2100 3394 
Q 2694 3394 3048 3025 
Q 3403 2656 3403 2019 
Q 3403 1775 3359 1519 
L 916 1519 
Q 903 1422 903 1344 
Q 903 878 1117 633 
Q 1331 388 1641 388 
Q 1931 388 2212 578 
Q 2494 769 2650 1128 
z
M 1006 1950 
L 2869 1950 
Q 2872 2038 2872 2075 
Q 2872 2500 2659 2726 
Q 2447 2953 2113 2953 
Q 1750 2953 1451 2703 
Q 1153 2453 1006 1950 
z
" transform="scale(0.015625)"/>
      <path id="Arial-ItalicMT-6e" d="M 213 0 
L 906 3319 
L 1419 3319 
L 1297 2741 
Q 1631 3081 1922 3237 
Q 2213 3394 2516 3394 
Q 2919 3394 3148 3175 
Q 3378 2956 3378 2591 
Q 3378 2406 3297 2009 
L 2875 0 
L 2309 0 
L 2750 2103 
Q 2816 2409 2816 2556 
Q 2816 2722 2702 2825 
Q 2588 2928 2372 2928 
Q 1938 2928 1598 2615 
Q 1259 2303 1100 1544 
L 778 0 
L 213 0 
z
" transform="scale(0.015625)"/>
      <path id="Arial-ItalicMT-74" d="M 1534 459 
L 1441 -3 
Q 1238 -56 1047 -56 
Q 709 -56 509 109 
Q 359 234 359 450 
Q 359 559 441 953 
L 844 2881 
L 397 2881 
L 488 3319 
L 934 3319 
L 1106 4134 
L 1753 4525 
L 1500 3319 
L 2056 3319 
L 1963 2881 
L 1409 2881 
L 1025 1047 
Q 953 697 953 628 
Q 953 528 1011 475 
Q 1069 422 1200 422 
Q 1388 422 1534 459 
z
" transform="scale(0.015625)"/>
      <path id="Arial-ItalicMT-6f" d="M 313 1259 
Q 313 2231 884 2869 
Q 1356 3394 2122 3394 
Q 2722 3394 3089 3019 
Q 3456 2644 3456 2006 
Q 3456 1434 3225 942 
Q 2994 450 2567 187 
Q 2141 -75 1669 -75 
Q 1281 -75 964 90 
Q 647 256 480 559 
Q 313 863 313 1259 
z
M 878 1316 
Q 878 847 1103 605 
Q 1328 363 1675 363 
Q 1856 363 2034 436 
Q 2213 509 2366 659 
Q 2519 809 2626 1001 
Q 2734 1194 2800 1416 
Q 2897 1725 2897 2009 
Q 2897 2459 2670 2707 
Q 2444 2956 2100 2956 
Q 1834 2956 1615 2829 
Q 1397 2703 1220 2459 
Q 1044 2216 961 1892 
Q 878 1569 878 1316 
z
" transform="scale(0.015625)"/>
      <path id="Arial-ItalicMT-3a" d="M 925 2678 
L 1059 3319 
L 1697 3319 
L 1566 2678 
L 925 2678 
z
M 366 0 
L 500 641 
L 1141 641 
L 1003 0 
L 366 0 
z
" transform="scale(0.015625)"/>
      <path id="Arial-ItalicMT-53" d="M 450 1481 
L 1050 1538 
L 1044 1378 
Q 1044 1113 1166 892 
Q 1288 672 1569 551 
Q 1850 431 2238 431 
Q 2788 431 3077 672 
Q 3366 913 3366 1222 
Q 3366 1438 3213 1616 
Q 3056 1791 2359 2091 
Q 1819 2325 1622 2450 
Q 1313 2653 1166 2892 
Q 1019 3131 1019 3438 
Q 1019 3791 1212 4075 
Q 1406 4359 1779 4509 
Q 2153 4659 2622 4659 
Q 3181 4659 3565 4471 
Q 3950 4284 4123 3971 
Q 4297 3659 4297 3375 
Q 4297 3347 4294 3281 
L 3703 3234 
Q 3703 3428 3669 3538 
Q 3606 3728 3475 3859 
Q 3344 3991 3114 4070 
Q 2884 4150 2600 4150 
Q 2100 4150 1822 3925 
Q 1609 3753 1609 3469 
Q 1609 3300 1696 3167 
Q 1784 3034 2013 2906 
Q 2175 2816 2784 2547 
Q 3278 2328 3466 2203 
Q 3716 2038 3850 1802 
Q 3984 1566 3984 1266 
Q 3984 894 3757 580 
Q 3531 266 3131 94 
Q 2731 -78 2216 -78 
Q 1438 -78 945 261 
Q 453 600 450 1481 
z
" transform="scale(0.015625)"/>
      <path id="Arial-ItalicMT-72" d="M 213 0 
L 906 3319 
L 1406 3319 
L 1266 2641 
Q 1522 3025 1767 3209 
Q 2013 3394 2269 3394 
Q 2438 3394 2684 3272 
L 2453 2747 
Q 2306 2853 2131 2853 
Q 1834 2853 1521 2522 
Q 1209 2191 1031 1331 
L 750 0 
L 213 0 
z
" transform="scale(0.015625)"/>
      <path id="Arial-ItalicMT-79" d="M 0 -1281 
L 34 -750 
Q 209 -800 375 -800 
Q 547 -800 653 -722 
Q 791 -619 953 -334 
L 1134 -9 
L 581 3319 
L 1138 3319 
L 1388 1641 
Q 1463 1144 1516 647 
L 3000 3319 
L 3591 3319 
L 1475 -441 
Q 1169 -991 931 -1169 
Q 694 -1347 384 -1347 
Q 188 -1347 0 -1281 
z
" transform="scale(0.015625)"/>
      <path id="Arial-ItalicMT-2192" d="M 4859 2738 
Q 5275 2284 5578 2048 
Q 5881 1813 6150 1697 
L 6150 1556 
Q 5841 1406 5550 1173 
Q 5259 941 4856 491 
L 4616 491 
Q 4909 1119 5231 1456 
L 247 1456 
L 247 1772 
L 5231 1772 
Q 4994 2075 4900 2222 
Q 4806 2369 4622 2738 
L 4859 2738 
z
" transform="scale(0.015625)"/>
      <path id="Arial-ItalicMT-43" d="M 3859 1613 
L 4466 1528 
Q 4178 734 3628 328 
Q 3078 -78 2394 -78 
Q 1559 -78 1070 431 
Q 581 941 581 1891 
Q 581 3128 1325 3938 
Q 1988 4659 2972 4659 
Q 3700 4659 4151 4268 
Q 4603 3878 4675 3219 
L 4103 3166 
Q 4013 3663 3730 3908 
Q 3447 4153 3000 4153 
Q 2159 4153 1641 3406 
Q 1191 2763 1191 1878 
Q 1191 1172 1537 800 
Q 1884 428 2441 428 
Q 2916 428 3300 737 
Q 3684 1047 3859 1613 
z
" transform="scale(0.015625)"/>
      <path id="Arial-ItalicMT-4c" d="M 256 0 
L 1213 4581 
L 1825 4581 
L 978 519 
L 3356 519 
L 3247 0 
L 256 0 
z
" transform="scale(0.015625)"/>
      <path id="Arial-ItalicMT-50" d="M 275 0 
L 1234 4581 
L 3147 4581 
Q 3644 4581 3892 4467 
Q 4141 4353 4303 4076 
Q 4466 3800 4466 3456 
Q 4466 3172 4350 2878 
Q 4234 2584 4057 2393 
Q 3881 2203 3700 2106 
Q 3519 2009 3313 1963 
Q 2872 1859 2422 1859 
L 1275 1859 
L 888 0 
L 275 0 
z
M 1384 2378 
L 2394 2378 
Q 2981 2378 3256 2504 
Q 3531 2631 3697 2890 
Q 3863 3150 3863 3441 
Q 3863 3666 3775 3808 
Q 3688 3950 3528 4017 
Q 3369 4084 2916 4084 
L 1741 4084 
L 1384 2378 
z
" transform="scale(0.015625)"/>
      <path id="Arial-ItalicMT-44" d="M 284 0 
L 1241 4581 
L 2622 4581 
Q 3119 4581 3381 4509 
Q 3756 4413 4022 4164 
Q 4288 3916 4422 3544 
Q 4556 3172 4556 2709 
Q 4556 2156 4389 1701 
Q 4222 1247 3951 901 
Q 3681 556 3386 361 
Q 3091 166 2688 72 
Q 2381 0 1934 0 
L 284 0 
z
M 1006 519 
L 1731 519 
Q 2222 519 2603 609 
Q 2841 666 3009 775 
Q 3231 916 3413 1147 
Q 3650 1453 3792 1845 
Q 3934 2238 3934 2738 
Q 3934 3294 3740 3592 
Q 3547 3891 3247 3988 
Q 3025 4059 2556 4059 
L 1747 4059 
L 1006 519 
z
" transform="scale(0.015625)"/>
      <path id="Arial-ItalicMT-28" d="M 1031 -1347 
Q 541 -272 541 863 
Q 541 1619 739 2270 
Q 938 2922 1344 3559 
Q 1613 3984 2203 4659 
L 2644 4659 
Q 2278 4269 1870 3559 
Q 1463 2850 1278 2165 
Q 1094 1481 1094 791 
Q 1094 -241 1453 -1347 
L 1031 -1347 
z
" transform="scale(0.015625)"/>
      <path id="Arial-ItalicMT-75" d="M 2478 600 
Q 1881 -75 1256 -75 
Q 872 -75 636 145 
Q 400 366 400 684 
Q 400 894 506 1403 
L 906 3319 
L 1472 3319 
L 1028 1197 
Q 972 931 972 784 
Q 972 597 1086 492 
Q 1200 388 1422 388 
Q 1659 388 1886 503 
Q 2113 619 2277 816 
Q 2441 1013 2544 1281 
Q 2613 1453 2703 1884 
L 3003 3319 
L 3569 3319 
L 2875 0 
L 2353 0 
L 2478 600 
z
" transform="scale(0.015625)"/>
      <path id="Arial-ItalicMT-73" d="M 266 1134 
L 831 1169 
Q 831 925 906 753 
Q 981 581 1182 472 
Q 1384 363 1653 363 
Q 2028 363 2215 513 
Q 2403 663 2403 866 
Q 2403 1013 2291 1144 
Q 2175 1275 1726 1467 
Q 1278 1659 1153 1738 
Q 944 1866 837 2039 
Q 731 2213 731 2438 
Q 731 2831 1043 3112 
Q 1356 3394 1919 3394 
Q 2544 3394 2870 3105 
Q 3197 2816 3209 2344 
L 2656 2306 
Q 2644 2606 2444 2781 
Q 2244 2956 1878 2956 
Q 1584 2956 1421 2822 
Q 1259 2688 1259 2531 
Q 1259 2375 1400 2256 
Q 1494 2175 1884 2006 
Q 2534 1725 2703 1563 
Q 2972 1303 2972 931 
Q 2972 684 2820 446 
Q 2669 209 2358 67 
Q 2047 -75 1625 -75 
Q 1050 -75 647 209 
Q 244 494 266 1134 
z
" transform="scale(0.015625)"/>
      <path id="Arial-ItalicMT-29" d="M 1269 4659 
Q 1763 3584 1763 2453 
Q 1763 1694 1564 1044 
Q 1366 394 959 -247 
Q 688 -672 100 -1347 
L -341 -1347 
Q 22 -953 431 -243 
Q 841 466 1023 1148 
Q 1206 1831 1206 2525 
Q 1206 3556 847 4659 
L 1269 4659 
z
" transform="scale(0.015625)"/>
     </defs>
     <use xlink:href="#Arial-ItalicMT-4f"/>
     <use xlink:href="#Arial-ItalicMT-66" transform="translate(77.783203 0)"/>
     <use xlink:href="#Arial-ItalicMT-66" transform="translate(105.566406 0)"/>
     <use xlink:href="#Arial-ItalicMT-69" transform="translate(133.349609 0)"/>
     <use xlink:href="#Arial-ItalicMT-63" transform="translate(155.566406 0)"/>
     <use xlink:href="#Arial-ItalicMT-69" transform="translate(205.566406 0)"/>
     <use xlink:href="#Arial-ItalicMT-61" transform="translate(227.783203 0)"/>
     <use xlink:href="#Arial-ItalicMT-6c" transform="translate(283.398438 0)"/>
     <use xlink:href="#Arial-ItalicMT-20" transform="translate(305.615234 0)"/>
     <use xlink:href="#Arial-ItalicMT-49" transform="translate(333.398438 0)"/>
     <use xlink:href="#Arial-ItalicMT-6d" transform="translate(361.181641 0)"/>
     <use xlink:href="#Arial-ItalicMT-70" transform="translate(444.482422 0)"/>
     <use xlink:href="#Arial-ItalicMT-6c" transform="translate(500.097656 0)"/>
     <use xlink:href="#Arial-ItalicMT-65" transform="translate(522.314453 0)"/>
     <use xlink:href="#Arial-ItalicMT-6d" transform="translate(577.929688 0)"/>
     <use xlink:href="#Arial-ItalicMT-65" transform="translate(661.230469 0)"/>
     <use xlink:href="#Arial-ItalicMT-6e" transform="translate(716.845703 0)"/>
     <use xlink:href="#Arial-ItalicMT-74" transform="translate(772.460938 0)"/>
     <use xlink:href="#Arial-ItalicMT-61" transform="translate(800.244141 0)"/>
     <use xlink:href="#Arial-ItalicMT-74" transform="translate(855.859375 0)"/>
     <use xlink:href="#Arial-ItalicMT-69" transform="translate(883.642578 0)"/>
     <use xlink:href="#Arial-ItalicMT-6f" transform="translate(905.859375 0)"/>
     <use xlink:href="#Arial-ItalicMT-6e" transform="translate(961.474609 0)"/>
     <use xlink:href="#Arial-ItalicMT-3a" transform="translate(1017.089844 0)"/>
     <use xlink:href="#Arial-ItalicMT-20" transform="translate(1044.873047 0)"/>
     <use xlink:href="#Arial-ItalicMT-53" transform="translate(1072.65625 0)"/>
     <use xlink:href="#Arial-ItalicMT-69" transform="translate(1139.355469 0)"/>
     <use xlink:href="#Arial-ItalicMT-6d" transform="translate(1161.572266 0)"/>
     <use xlink:href="#Arial-ItalicMT-69" transform="translate(1244.873047 0)"/>
     <use xlink:href="#Arial-ItalicMT-6c" transform="translate(1267.089844 0)"/>
     <use xlink:href="#Arial-ItalicMT-61" transform="translate(1289.306641 0)"/>
     <use xlink:href="#Arial-ItalicMT-72" transform="translate(1344.921875 0)"/>
     <use xlink:href="#Arial-ItalicMT-69" transform="translate(1378.222656 0)"/>
     <use xlink:href="#Arial-ItalicMT-74" transform="translate(1400.439453 0)"/>
     <use xlink:href="#Arial-ItalicMT-79" transform="translate(1428.222656 0)"/>
     <use xlink:href="#Arial-ItalicMT-20" transform="translate(1478.222656 0)"/>
     <use xlink:href="#Arial-ItalicMT-2192" transform="translate(1506.005859 0)"/>
     <use xlink:href="#Arial-ItalicMT-20" transform="translate(1606.005859 0)"/>
     <use xlink:href="#Arial-ItalicMT-43" transform="translate(1633.789062 0)"/>
     <use xlink:href="#Arial-ItalicMT-4c" transform="translate(1706.005859 0)"/>
     <use xlink:href="#Arial-ItalicMT-49" transform="translate(1761.621094 0)"/>
     <use xlink:href="#Arial-ItalicMT-50" transform="translate(1789.404297 0)"/>
     <use xlink:href="#Arial-ItalicMT-20" transform="translate(1852.353516 0)"/>
     <use xlink:href="#Arial-ItalicMT-2192" transform="translate(1880.136719 0)"/>
     <use xlink:href="#Arial-ItalicMT-20" transform="translate(1980.136719 0)"/>
     <use xlink:href="#Arial-ItalicMT-44" transform="translate(2007.919922 0)"/>
     <use xlink:href="#Arial-ItalicMT-65" transform="translate(2080.136719 0)"/>
     <use xlink:href="#Arial-ItalicMT-74" transform="translate(2135.751953 0)"/>
     <use xlink:href="#Arial-ItalicMT-65" transform="translate(2163.535156 0)"/>
     <use xlink:href="#Arial-ItalicMT-63" transform="translate(2219.150391 0)"/>
     <use xlink:href="#Arial-ItalicMT-74" transform="translate(2269.150391 0)"/>
     <use xlink:href="#Arial-ItalicMT-69" transform="translate(2296.933594 0)"/>
     <use xlink:href="#Arial-ItalicMT-6f" transform="translate(2319.150391 0)"/>
     <use xlink:href="#Arial-ItalicMT-6e" transform="translate(2374.765625 0)"/>
     <use xlink:href="#Arial-ItalicMT-20" transform="translate(2430.380859 0)"/>
     <use xlink:href="#Arial-ItalicMT-28" transform="translate(2458.164062 0)"/>
     <use xlink:href="#Arial-ItalicMT-75" transform="translate(2491.464844 0)"/>
     <use xlink:href="#Arial-ItalicMT-73" transform="translate(2547.080078 0)"/>
     <use xlink:href="#Arial-ItalicMT-65" transform="translate(2597.080078 0)"/>
     <use xlink:href="#Arial-ItalicMT-73" transform="translate(2652.695312 0)"/>
     <use xlink:href="#Arial-ItalicMT-20" transform="translate(2702.695312 0)"/>
     <use xlink:href="#Arial-ItalicMT-43" transform="translate(2730.478516 0)"/>
     <use xlink:href="#Arial-ItalicMT-4c" transform="translate(2802.695312 0)"/>
     <use xlink:href="#Arial-ItalicMT-49" transform="translate(2858.310547 0)"/>
     <use xlink:href="#Arial-ItalicMT-50" transform="translate(2886.09375 0)"/>
     <use xlink:href="#Arial-ItalicMT-20" transform="translate(2949.042969 0)"/>
     <use xlink:href="#Arial-ItalicMT-6f" transform="translate(2976.826172 0)"/>
     <use xlink:href="#Arial-ItalicMT-75" transform="translate(3032.441406 0)"/>
     <use xlink:href="#Arial-ItalicMT-74" transform="translate(3088.056641 0)"/>
     <use xlink:href="#Arial-ItalicMT-70" transform="translate(3115.839844 0)"/>
     <use xlink:href="#Arial-ItalicMT-75" transform="translate(3171.455078 0)"/>
     <use xlink:href="#Arial-ItalicMT-74" transform="translate(3227.070312 0)"/>
     <use xlink:href="#Arial-ItalicMT-73" transform="translate(3254.853516 0)"/>
     <use xlink:href="#Arial-ItalicMT-29" transform="translate(3304.853516 0)"/>
    </g>
   </g>
  </g>
 </g>
 <defs>
  <clipPath id="pa322d57960">
   <rect x="7.2" y="7.2" width="983.808" height="702.72"/>
  </clipPath>
 </defs>
</svg>
