<?xml version="1.0" encoding="utf-8" standalone="no"?>
<!DOCTYPE svg PUBLIC "-//W3C//DTD SVG 1.1//EN"
  "http://www.w3.org/Graphics/SVG/1.1/DTD/svg11.dtd">
<svg xmlns:xlink="http://www.w3.org/1999/xlink" width="852.48pt" height="573.12pt" viewBox="0 0 852.48 573.12" xmlns="http://www.w3.org/2000/svg" version="1.1">
 <metadata>
  <rdf:RDF xmlns:dc="http://purl.org/dc/elements/1.1/" xmlns:cc="http://creativecommons.org/ns#" xmlns:rdf="http://www.w3.org/1999/02/22-rdf-syntax-ns#">
   <cc:Work>
    <dc:type rdf:resource="http://purl.org/dc/dcmitype/StillImage"/>
    <dc:date>2025-11-13T00:43:04.171922</dc:date>
    <dc:format>image/svg+xml</dc:format>
    <dc:creator>
     <cc:Agent>
      <dc:title>Matplotlib v3.10.7, https://matplotlib.org/</dc:title>
     </cc:Agent>
    </dc:creator>
   </cc:Work>
  </rdf:RDF>
 </metadata>
 <defs>
  <style type="text/css">*{stroke-linejoin: round; stroke-linecap: butt}</style>
 </defs>
 <g id="figure_1">
  <g id="patch_1">
   <path d="M 0 573.12 
L 852.48 573.12 
L 852.48 0 
L 0 0 
z
" style="fill: #ffffff"/>
  </g>
  <g id="axes_1">
   <g id="patch_2">
    <path d="M 146.88 115.452 
L 286.56 115.452 
Q 290.052 115.452 290.052 111.96 
L 290.052 56.088 
Q 290.052 52.596 286.56 52.596 
L 146.88 52.596 
Q 143.388 52.596 143.388 56.088 
L 143.388 111.96 
Q 143.388 115.452 146.88 115.452 
z
" clip-path="url(#p5af1294dbc)" style="fill: #3498db; stroke: #000000; stroke-linejoin: miter"/>
   </g>
   <g id="patch_3">
    <path d="M 565.92 115.452 
L 705.6 115.452 
Q 709.092 115.452 709.092 111.96 
L 709.092 56.088 
Q 709.092 52.596 705.6 52.596 
L 565.92 52.596 
Q 562.428 52.596 562.428 56.088 
L 562.428 111.96 
Q 562.428 115.452 565.92 115.452 
z
" clip-path="url(#p5af1294dbc)" style="fill: #e74c3c; stroke: #000000; stroke-linejoin: miter"/>
   </g>
   <g id="patch_4">
    <path d="M 111.96 220.212 
L 321.48 220.212 
Q 324.972 220.212 324.972 216.72 
L 324.972 146.88 
Q 324.972 143.388 321.48 143.388 
L 111.96 143.388 
Q 108.468 143.388 108.468 146.88 
L 108.468 216.72 
Q 108.468 220.212 111.96 220.212 
z
" clip-path="url(#p5af1294dbc)" style="fill: #3498db; stroke: #000000; stroke-linejoin: miter"/>
   </g>
   <g id="patch_5">
    <path d="M 531 220.212 
L 740.52 220.212 
Q 744.012 220.212 744.012 216.72 
L 744.012 146.88 
Q 744.012 143.388 740.52 143.388 
L 531 143.388 
Q 527.508 143.388 527.508 146.88 
L 527.508 216.72 
Q 527.508 220.212 531 220.212 
z
" clip-path="url(#p5af1294dbc)" style="fill: #e74c3c; stroke: #000000; stroke-linejoin: miter"/>
   </g>
   <g id="patch_6">
    <path d="M 146.88 324.972 
L 251.64 324.972 
Q 255.132 324.972 255.132 321.48 
L 255.132 279.576 
Q 255.132 276.084 251.64 276.084 
L 146.88 276.084 
Q 143.388 276.084 143.388 279.576 
L 143.388 321.48 
Q 143.388 324.972 146.88 324.972 
z
" clip-path="url(#p5af1294dbc)" style="fill: #3498db; stroke: #000000; stroke-linejoin: miter"/>
   </g>
   <g id="patch_7">
    <path d="M 600.84 324.972 
L 705.6 324.972 
Q 709.092 324.972 709.092 321.48 
L 709.092 279.576 
Q 709.092 276.084 705.6 276.084 
L 600.84 276.084 
Q 597.348 276.084 597.348 279.576 
L 597.348 321.48 
Q 597.348 324.972 600.84 324.972 
z
" clip-path="url(#p5af1294dbc)" style="fill: #e74c3c; stroke: #000000; stroke-linejoin: miter"/>
   </g>
   <g id="patch_8">
    <path d="M 321.48 394.812 
L 531 394.812 
Q 534.492 394.812 534.492 391.32 
L 534.492 335.448 
Q 534.492 331.956 531 331.956 
L 321.48 331.956 
Q 317.988 331.956 317.988 335.448 
L 317.988 391.32 
Q 317.988 394.812 321.48 394.812 
z
" clip-path="url(#p5af1294dbc)" style="fill: #f39c12; stroke: #000000; stroke-linejoin: miter"/>
   </g>
   <g id="patch_9">
    <path d="M 321.48 499.572 
L 531 499.572 
Q 534.492 499.572 534.492 496.08 
L 534.492 440.208 
Q 534.492 436.716 531 436.716 
L 321.48 436.716 
Q 317.988 436.716 317.988 440.208 
L 317.988 496.08 
Q 317.988 499.572 321.48 499.572 
z
" clip-path="url(#p5af1294dbc)" style="fill: #2ecc71; stroke: #000000; stroke-linejoin: miter"/>
   </g>
   <g id="patch_10">
    <path d="M 216.72 116.960142 
Q 216.72 129.420053 216.72 140.202914 
" style="fill: none; stroke: #000000; stroke-width: 1.5; stroke-linecap: round"/>
    <path d="M 219.72 134.202914 
L 216.72 140.202914 
L 213.72 134.202914 
" style="fill: none; stroke: #000000; stroke-width: 1.5; stroke-linecap: round"/>
   </g>
   <g id="patch_11">
    <path d="M 635.76 116.960142 
Q 635.76 129.420053 635.76 140.202914 
" style="fill: none; stroke: #000000; stroke-width: 1.5; stroke-linecap: round"/>
    <path d="M 638.76 134.202914 
L 635.76 140.202914 
L 632.76 134.202914 
" style="fill: none; stroke: #000000; stroke-width: 1.5; stroke-linecap: round"/>
   </g>
   <g id="patch_12">
    <path d="M 199.26 221.718863 
Q 199.26 248.149023 199.26 272.902132 
" style="fill: none; stroke: #000000; stroke-width: 1.5; stroke-linecap: round"/>
    <path d="M 202.26 266.902132 
L 199.26 272.902132 
L 196.26 266.902132 
" style="fill: none; stroke: #000000; stroke-width: 1.5; stroke-linecap: round"/>
   </g>
   <g id="patch_13">
    <path d="M 653.22 221.718863 
Q 653.22 248.149023 653.22 272.902132 
" style="fill: none; stroke: #000000; stroke-width: 1.5; stroke-linecap: round"/>
    <path d="M 656.22 266.902132 
L 653.22 272.902132 
L 650.22 266.902132 
" style="fill: none; stroke: #000000; stroke-width: 1.5; stroke-linecap: round"/>
   </g>
   <g id="patch_14">
    <path d="M 203.99319 323.102808 
Q 260.372015 342.432691 315.164441 361.218665 
" style="fill: none; stroke: #000000; stroke-width: 1.5; stroke-linecap: round"/>
    <path d="M 310.461738 356.434882 
L 315.164441 361.218665 
L 308.515792 362.110557 
" style="fill: none; stroke: #000000; stroke-width: 1.5; stroke-linecap: round"/>
   </g>
   <g id="patch_15">
    <path d="M 648.48681 323.102808 
Q 592.107985 342.432691 537.315559 361.218665 
" style="fill: none; stroke: #000000; stroke-width: 1.5; stroke-linecap: round"/>
    <path d="M 543.964208 362.110557 
L 537.315559 361.218665 
L 542.018262 356.434882 
" style="fill: none; stroke: #000000; stroke-width: 1.5; stroke-linecap: round"/>
   </g>
   <g id="patch_16">
    <path d="M 426.24 396.31801 
Q 426.24 415.762315 426.24 433.529569 
" style="fill: none; stroke: #000000; stroke-width: 1.5; stroke-linecap: round"/>
    <path d="M 429.24 427.529569 
L 426.24 433.529569 
L 423.24 427.529569 
" style="fill: none; stroke: #000000; stroke-width: 1.5; stroke-linecap: round"/>
   </g>
   <g id="text_1">
    <!-- Ambiguity Learning Module -->
    <g transform="translate(334.080625 42.12) scale(0.14 -0.14)">
     <defs>
      <path id="Arial-BoldMT-41" d="M 4597 0 
L 3591 0 
L 3191 1041 
L 1359 1041 
L 981 0 
L 0 0 
L 1784 4581 
L 2763 4581 
L 4597 0 
z
M 2894 1813 
L 2263 3513 
L 1644 1813 
L 2894 1813 
z
" transform="scale(0.015625)"/>
      <path id="Arial-BoldMT-6d" d="M 394 3319 
L 1203 3319 
L 1203 2866 
Q 1638 3394 2238 3394 
Q 2556 3394 2790 3262 
Q 3025 3131 3175 2866 
Q 3394 3131 3647 3262 
Q 3900 3394 4188 3394 
Q 4553 3394 4806 3245 
Q 5059 3097 5184 2809 
Q 5275 2597 5275 2122 
L 5275 0 
L 4397 0 
L 4397 1897 
Q 4397 2391 4306 2534 
Q 4184 2722 3931 2722 
Q 3747 2722 3584 2609 
Q 3422 2497 3350 2280 
Q 3278 2063 3278 1594 
L 3278 0 
L 2400 0 
L 2400 1819 
Q 2400 2303 2353 2443 
Q 2306 2584 2207 2653 
Q 2109 2722 1941 2722 
Q 1738 2722 1575 2612 
Q 1413 2503 1342 2297 
Q 1272 2091 1272 1613 
L 1272 0 
L 394 0 
L 394 3319 
z
" transform="scale(0.015625)"/>
      <path id="Arial-BoldMT-62" d="M 422 0 
L 422 4581 
L 1300 4581 
L 1300 2931 
Q 1706 3394 2263 3394 
Q 2869 3394 3266 2955 
Q 3663 2516 3663 1694 
Q 3663 844 3258 384 
Q 2853 -75 2275 -75 
Q 1991 -75 1714 67 
Q 1438 209 1238 488 
L 1238 0 
L 422 0 
z
M 1294 1731 
Q 1294 1216 1456 969 
Q 1684 619 2063 619 
Q 2353 619 2558 867 
Q 2763 1116 2763 1650 
Q 2763 2219 2556 2470 
Q 2350 2722 2028 2722 
Q 1713 2722 1503 2476 
Q 1294 2231 1294 1731 
z
" transform="scale(0.015625)"/>
      <path id="Arial-BoldMT-69" d="M 459 3769 
L 459 4581 
L 1338 4581 
L 1338 3769 
L 459 3769 
z
M 459 0 
L 459 3319 
L 1338 3319 
L 1338 0 
L 459 0 
z
" transform="scale(0.015625)"/>
      <path id="Arial-BoldMT-67" d="M 378 -219 
L 1381 -341 
Q 1406 -516 1497 -581 
Q 1622 -675 1891 -675 
Q 2234 -675 2406 -572 
Q 2522 -503 2581 -350 
Q 2622 -241 2622 53 
L 2622 538 
Q 2228 0 1628 0 
Q 959 0 569 566 
Q 263 1013 263 1678 
Q 263 2513 664 2953 
Q 1066 3394 1663 3394 
Q 2278 3394 2678 2853 
L 2678 3319 
L 3500 3319 
L 3500 341 
Q 3500 -247 3403 -537 
Q 3306 -828 3131 -993 
Q 2956 -1159 2664 -1253 
Q 2372 -1347 1925 -1347 
Q 1081 -1347 728 -1058 
Q 375 -769 375 -325 
Q 375 -281 378 -219 
z
M 1163 1728 
Q 1163 1200 1367 954 
Q 1572 709 1872 709 
Q 2194 709 2416 961 
Q 2638 1213 2638 1706 
Q 2638 2222 2425 2472 
Q 2213 2722 1888 2722 
Q 1572 2722 1367 2476 
Q 1163 2231 1163 1728 
z
" transform="scale(0.015625)"/>
      <path id="Arial-BoldMT-75" d="M 2644 0 
L 2644 497 
Q 2463 231 2167 78 
Q 1872 -75 1544 -75 
Q 1209 -75 943 72 
Q 678 219 559 484 
Q 441 750 441 1219 
L 441 3319 
L 1319 3319 
L 1319 1794 
Q 1319 1094 1367 936 
Q 1416 778 1544 686 
Q 1672 594 1869 594 
Q 2094 594 2272 717 
Q 2450 841 2515 1023 
Q 2581 1206 2581 1919 
L 2581 3319 
L 3459 3319 
L 3459 0 
L 2644 0 
z
" transform="scale(0.015625)"/>
      <path id="Arial-BoldMT-74" d="M 1981 3319 
L 1981 2619 
L 1381 2619 
L 1381 1281 
Q 1381 875 1398 808 
Q 1416 741 1477 697 
Q 1538 653 1625 653 
Q 1747 653 1978 738 
L 2053 56 
Q 1747 -75 1359 -75 
Q 1122 -75 931 4 
Q 741 84 652 211 
Q 563 338 528 553 
Q 500 706 500 1172 
L 500 2619 
L 97 2619 
L 97 3319 
L 500 3319 
L 500 3978 
L 1381 4491 
L 1381 3319 
L 1981 3319 
z
" transform="scale(0.015625)"/>
      <path id="Arial-BoldMT-79" d="M 44 3319 
L 978 3319 
L 1772 963 
L 2547 3319 
L 3456 3319 
L 2284 125 
L 2075 -453 
Q 1959 -744 1854 -897 
Q 1750 -1050 1614 -1145 
Q 1478 -1241 1279 -1294 
Q 1081 -1347 831 -1347 
Q 578 -1347 334 -1294 
L 256 -606 
Q 463 -647 628 -647 
Q 934 -647 1081 -467 
Q 1228 -288 1306 -9 
L 44 3319 
z
" transform="scale(0.015625)"/>
      <path id="Arial-BoldMT-20" transform="scale(0.015625)"/>
      <path id="Arial-BoldMT-4c" d="M 491 0 
L 491 4544 
L 1416 4544 
L 1416 772 
L 3716 772 
L 3716 0 
L 491 0 
z
" transform="scale(0.015625)"/>
      <path id="Arial-BoldMT-65" d="M 2381 1056 
L 3256 909 
Q 3088 428 2723 176 
Q 2359 -75 1813 -75 
Q 947 -75 531 491 
Q 203 944 203 1634 
Q 203 2459 634 2926 
Q 1066 3394 1725 3394 
Q 2466 3394 2894 2905 
Q 3322 2416 3303 1406 
L 1103 1406 
Q 1113 1016 1316 798 
Q 1519 581 1822 581 
Q 2028 581 2168 693 
Q 2309 806 2381 1056 
z
M 2431 1944 
Q 2422 2325 2234 2523 
Q 2047 2722 1778 2722 
Q 1491 2722 1303 2513 
Q 1116 2303 1119 1944 
L 2431 1944 
z
" transform="scale(0.015625)"/>
      <path id="Arial-BoldMT-61" d="M 1116 2306 
L 319 2450 
Q 453 2931 781 3162 
Q 1109 3394 1756 3394 
Q 2344 3394 2631 3255 
Q 2919 3116 3036 2902 
Q 3153 2688 3153 2116 
L 3144 1091 
Q 3144 653 3186 445 
Q 3228 238 3344 0 
L 2475 0 
Q 2441 88 2391 259 
Q 2369 338 2359 363 
Q 2134 144 1878 34 
Q 1622 -75 1331 -75 
Q 819 -75 523 203 
Q 228 481 228 906 
Q 228 1188 362 1408 
Q 497 1628 739 1745 
Q 981 1863 1438 1950 
Q 2053 2066 2291 2166 
L 2291 2253 
Q 2291 2506 2166 2614 
Q 2041 2722 1694 2722 
Q 1459 2722 1328 2630 
Q 1197 2538 1116 2306 
z
M 2291 1594 
Q 2122 1538 1756 1459 
Q 1391 1381 1278 1306 
Q 1106 1184 1106 997 
Q 1106 813 1243 678 
Q 1381 544 1594 544 
Q 1831 544 2047 700 
Q 2206 819 2256 991 
Q 2291 1103 2291 1419 
L 2291 1594 
z
" transform="scale(0.015625)"/>
      <path id="Arial-BoldMT-72" d="M 1300 0 
L 422 0 
L 422 3319 
L 1238 3319 
L 1238 2847 
Q 1447 3181 1614 3287 
Q 1781 3394 1994 3394 
Q 2294 3394 2572 3228 
L 2300 2463 
Q 2078 2606 1888 2606 
Q 1703 2606 1575 2504 
Q 1447 2403 1373 2137 
Q 1300 1872 1300 1025 
L 1300 0 
z
" transform="scale(0.015625)"/>
      <path id="Arial-BoldMT-6e" d="M 3478 0 
L 2600 0 
L 2600 1694 
Q 2600 2231 2544 2389 
Q 2488 2547 2361 2634 
Q 2234 2722 2056 2722 
Q 1828 2722 1647 2597 
Q 1466 2472 1398 2265 
Q 1331 2059 1331 1503 
L 1331 0 
L 453 0 
L 453 3319 
L 1269 3319 
L 1269 2831 
Q 1703 3394 2363 3394 
Q 2653 3394 2893 3289 
Q 3134 3184 3257 3021 
Q 3381 2859 3429 2653 
Q 3478 2447 3478 2063 
L 3478 0 
z
" transform="scale(0.015625)"/>
      <path id="Arial-BoldMT-4d" d="M 453 0 
L 453 4581 
L 1838 4581 
L 2669 1456 
L 3491 4581 
L 4878 4581 
L 4878 0 
L 4019 0 
L 4019 3606 
L 3109 0 
L 2219 0 
L 1313 3606 
L 1313 0 
L 453 0 
z
" transform="scale(0.015625)"/>
      <path id="Arial-BoldMT-6f" d="M 256 1706 
Q 256 2144 472 2553 
Q 688 2963 1083 3178 
Q 1478 3394 1966 3394 
Q 2719 3394 3200 2905 
Q 3681 2416 3681 1669 
Q 3681 916 3195 420 
Q 2709 -75 1972 -75 
Q 1516 -75 1102 131 
Q 688 338 472 736 
Q 256 1134 256 1706 
z
M 1156 1659 
Q 1156 1166 1390 903 
Q 1625 641 1969 641 
Q 2313 641 2545 903 
Q 2778 1166 2778 1666 
Q 2778 2153 2545 2415 
Q 2313 2678 1969 2678 
Q 1625 2678 1390 2415 
Q 1156 2153 1156 1659 
z
" transform="scale(0.015625)"/>
      <path id="Arial-BoldMT-64" d="M 3503 0 
L 2688 0 
L 2688 488 
Q 2484 203 2207 64 
Q 1931 -75 1650 -75 
Q 1078 -75 670 386 
Q 263 847 263 1672 
Q 263 2516 659 2955 
Q 1056 3394 1663 3394 
Q 2219 3394 2625 2931 
L 2625 4581 
L 3503 4581 
L 3503 0 
z
M 1159 1731 
Q 1159 1200 1306 963 
Q 1519 619 1900 619 
Q 2203 619 2415 876 
Q 2628 1134 2628 1647 
Q 2628 2219 2422 2470 
Q 2216 2722 1894 2722 
Q 1581 2722 1370 2473 
Q 1159 2225 1159 1731 
z
" transform="scale(0.015625)"/>
      <path id="Arial-BoldMT-6c" d="M 459 0 
L 459 4581 
L 1338 4581 
L 1338 0 
L 459 0 
z
" transform="scale(0.015625)"/>
     </defs>
     <use xlink:href="#Arial-BoldMT-41"/>
     <use xlink:href="#Arial-BoldMT-6d" transform="translate(72.216797 0)"/>
     <use xlink:href="#Arial-BoldMT-62" transform="translate(161.132812 0)"/>
     <use xlink:href="#Arial-BoldMT-69" transform="translate(222.216797 0)"/>
     <use xlink:href="#Arial-BoldMT-67" transform="translate(250 0)"/>
     <use xlink:href="#Arial-BoldMT-75" transform="translate(311.083984 0)"/>
     <use xlink:href="#Arial-BoldMT-69" transform="translate(372.167969 0)"/>
     <use xlink:href="#Arial-BoldMT-74" transform="translate(399.951172 0)"/>
     <use xlink:href="#Arial-BoldMT-79" transform="translate(433.251953 0)"/>
     <use xlink:href="#Arial-BoldMT-20" transform="translate(488.867188 0)"/>
     <use xlink:href="#Arial-BoldMT-4c" transform="translate(516.650391 0)"/>
     <use xlink:href="#Arial-BoldMT-65" transform="translate(577.734375 0)"/>
     <use xlink:href="#Arial-BoldMT-61" transform="translate(633.349609 0)"/>
     <use xlink:href="#Arial-BoldMT-72" transform="translate(688.964844 0)"/>
     <use xlink:href="#Arial-BoldMT-6e" transform="translate(727.880859 0)"/>
     <use xlink:href="#Arial-BoldMT-69" transform="translate(788.964844 0)"/>
     <use xlink:href="#Arial-BoldMT-6e" transform="translate(816.748047 0)"/>
     <use xlink:href="#Arial-BoldMT-67" transform="translate(877.832031 0)"/>
     <use xlink:href="#Arial-BoldMT-20" transform="translate(938.916016 0)"/>
     <use xlink:href="#Arial-BoldMT-4d" transform="translate(966.699219 0)"/>
     <use xlink:href="#Arial-BoldMT-6f" transform="translate(1050 0)"/>
     <use xlink:href="#Arial-BoldMT-64" transform="translate(1111.083984 0)"/>
     <use xlink:href="#Arial-BoldMT-75" transform="translate(1172.167969 0)"/>
     <use xlink:href="#Arial-BoldMT-6c" transform="translate(1233.251953 0)"/>
     <use xlink:href="#Arial-BoldMT-65" transform="translate(1261.035156 0)"/>
    </g>
   </g>
   <g id="text_2">
    <!-- Text Aligned -->
    <g style="fill: #ffffff" transform="translate(196.109375 81.998484) scale(0.07 -0.07)">
     <defs>
      <path id="Arial-BoldMT-54" d="M 1497 0 
L 1497 3806 
L 138 3806 
L 138 4581 
L 3778 4581 
L 3778 3806 
L 2422 3806 
L 2422 0 
L 1497 0 
z
" transform="scale(0.015625)"/>
      <path id="Arial-BoldMT-78" d="M 38 0 
L 1234 1709 
L 88 3319 
L 1159 3319 
L 1747 2406 
L 2366 3319 
L 3397 3319 
L 2272 1747 
L 3500 0 
L 2422 0 
L 1747 1028 
L 1066 0 
L 38 0 
z
" transform="scale(0.015625)"/>
     </defs>
     <use xlink:href="#Arial-BoldMT-54"/>
     <use xlink:href="#Arial-BoldMT-65" transform="translate(53.708984 0)"/>
     <use xlink:href="#Arial-BoldMT-78" transform="translate(109.324219 0)"/>
     <use xlink:href="#Arial-BoldMT-74" transform="translate(164.939453 0)"/>
     <use xlink:href="#Arial-BoldMT-20" transform="translate(198.240234 0)"/>
     <use xlink:href="#Arial-BoldMT-41" transform="translate(222.273438 0)"/>
     <use xlink:href="#Arial-BoldMT-6c" transform="translate(294.490234 0)"/>
     <use xlink:href="#Arial-BoldMT-69" transform="translate(322.273438 0)"/>
     <use xlink:href="#Arial-BoldMT-67" transform="translate(350.056641 0)"/>
     <use xlink:href="#Arial-BoldMT-6e" transform="translate(411.140625 0)"/>
     <use xlink:href="#Arial-BoldMT-65" transform="translate(472.224609 0)"/>
     <use xlink:href="#Arial-BoldMT-64" transform="translate(527.839844 0)"/>
    </g>
    <!-- (B, 64) -->
    <g style="fill: #ffffff" transform="translate(206.024219 89.586703) scale(0.07 -0.07)">
     <defs>
      <path id="Arial-BoldMT-28" d="M 1916 -1347 
L 1313 -1347 
Q 834 -625 584 153 
Q 334 931 334 1659 
Q 334 2563 644 3369 
Q 913 4069 1325 4659 
L 1925 4659 
Q 1497 3713 1336 3048 
Q 1175 2384 1175 1641 
Q 1175 1128 1270 590 
Q 1366 53 1531 -431 
Q 1641 -750 1916 -1347 
z
" transform="scale(0.015625)"/>
      <path id="Arial-BoldMT-42" d="M 469 4581 
L 2300 4581 
Q 2844 4581 3111 4536 
Q 3378 4491 3589 4347 
Q 3800 4203 3940 3964 
Q 4081 3725 4081 3428 
Q 4081 3106 3907 2837 
Q 3734 2569 3438 2434 
Q 3856 2313 4081 2019 
Q 4306 1725 4306 1328 
Q 4306 1016 4161 720 
Q 4016 425 3764 248 
Q 3513 72 3144 31 
Q 2913 6 2028 0 
L 469 0 
L 469 4581 
z
M 1394 3819 
L 1394 2759 
L 2000 2759 
Q 2541 2759 2672 2775 
Q 2909 2803 3045 2939 
Q 3181 3075 3181 3297 
Q 3181 3509 3064 3642 
Q 2947 3775 2716 3803 
Q 2578 3819 1925 3819 
L 1394 3819 
z
M 1394 1997 
L 1394 772 
L 2250 772 
Q 2750 772 2884 800 
Q 3091 838 3220 983 
Q 3350 1128 3350 1372 
Q 3350 1578 3250 1722 
Q 3150 1866 2961 1931 
Q 2772 1997 2141 1997 
L 1394 1997 
z
" transform="scale(0.015625)"/>
      <path id="Arial-BoldMT-2c" d="M 438 878 
L 1316 878 
L 1316 250 
Q 1316 -131 1250 -351 
Q 1184 -572 1001 -747 
Q 819 -922 538 -1022 
L 366 -659 
Q 631 -572 743 -419 
Q 856 -266 863 0 
L 438 0 
L 438 878 
z
" transform="scale(0.015625)"/>
      <path id="Arial-BoldMT-36" d="M 3247 3459 
L 2397 3366 
Q 2366 3628 2234 3753 
Q 2103 3878 1894 3878 
Q 1616 3878 1423 3628 
Q 1231 3378 1181 2588 
Q 1509 2975 1997 2975 
Q 2547 2975 2939 2556 
Q 3331 2138 3331 1475 
Q 3331 772 2918 347 
Q 2506 -78 1859 -78 
Q 1166 -78 719 461 
Q 272 1000 272 2228 
Q 272 3488 737 4044 
Q 1203 4600 1947 4600 
Q 2469 4600 2811 4308 
Q 3153 4016 3247 3459 
z
M 1256 1544 
Q 1256 1116 1453 883 
Q 1650 650 1903 650 
Q 2147 650 2309 840 
Q 2472 1031 2472 1466 
Q 2472 1913 2297 2120 
Q 2122 2328 1859 2328 
Q 1606 2328 1431 2129 
Q 1256 1931 1256 1544 
z
" transform="scale(0.015625)"/>
      <path id="Arial-BoldMT-34" d="M 1994 0 
L 1994 922 
L 119 922 
L 119 1691 
L 2106 4600 
L 2844 4600 
L 2844 1694 
L 3413 1694 
L 3413 922 
L 2844 922 
L 2844 0 
L 1994 0 
z
M 1994 1694 
L 1994 3259 
L 941 1694 
L 1994 1694 
z
" transform="scale(0.015625)"/>
      <path id="Arial-BoldMT-29" d="M 216 -1347 
Q 475 -791 581 -494 
Q 688 -197 778 190 
Q 869 578 912 926 
Q 956 1275 956 1641 
Q 956 2384 797 3048 
Q 638 3713 209 4659 
L 806 4659 
Q 1278 3988 1539 3234 
Q 1800 2481 1800 1706 
Q 1800 1053 1594 306 
Q 1359 -531 822 -1347 
L 216 -1347 
z
" transform="scale(0.015625)"/>
     </defs>
     <use xlink:href="#Arial-BoldMT-28"/>
     <use xlink:href="#Arial-BoldMT-42" transform="translate(33.300781 0)"/>
     <use xlink:href="#Arial-BoldMT-2c" transform="translate(105.517578 0)"/>
     <use xlink:href="#Arial-BoldMT-20" transform="translate(133.300781 0)"/>
     <use xlink:href="#Arial-BoldMT-36" transform="translate(161.083984 0)"/>
     <use xlink:href="#Arial-BoldMT-34" transform="translate(216.699219 0)"/>
     <use xlink:href="#Arial-BoldMT-29" transform="translate(272.314453 0)"/>
    </g>
   </g>
   <g id="text_3">
    <!-- Image Aligned -->
    <g style="fill: #ffffff" transform="translate(611.972031 81.998484) scale(0.07 -0.07)">
     <defs>
      <path id="Arial-BoldMT-49" d="M 438 0 
L 438 4581 
L 1363 4581 
L 1363 0 
L 438 0 
z
" transform="scale(0.015625)"/>
     </defs>
     <use xlink:href="#Arial-BoldMT-49"/>
     <use xlink:href="#Arial-BoldMT-6d" transform="translate(27.783203 0)"/>
     <use xlink:href="#Arial-BoldMT-61" transform="translate(116.699219 0)"/>
     <use xlink:href="#Arial-BoldMT-67" transform="translate(172.314453 0)"/>
     <use xlink:href="#Arial-BoldMT-65" transform="translate(233.398438 0)"/>
     <use xlink:href="#Arial-BoldMT-20" transform="translate(289.013672 0)"/>
     <use xlink:href="#Arial-BoldMT-41" transform="translate(313.046875 0)"/>
     <use xlink:href="#Arial-BoldMT-6c" transform="translate(385.263672 0)"/>
     <use xlink:href="#Arial-BoldMT-69" transform="translate(413.046875 0)"/>
     <use xlink:href="#Arial-BoldMT-67" transform="translate(440.830078 0)"/>
     <use xlink:href="#Arial-BoldMT-6e" transform="translate(501.914062 0)"/>
     <use xlink:href="#Arial-BoldMT-65" transform="translate(562.998047 0)"/>
     <use xlink:href="#Arial-BoldMT-64" transform="translate(618.613281 0)"/>
    </g>
    <!-- (B, 64) -->
    <g style="fill: #ffffff" transform="translate(625.064219 89.586703) scale(0.07 -0.07)">
     <use xlink:href="#Arial-BoldMT-28"/>
     <use xlink:href="#Arial-BoldMT-42" transform="translate(33.300781 0)"/>
     <use xlink:href="#Arial-BoldMT-2c" transform="translate(105.517578 0)"/>
     <use xlink:href="#Arial-BoldMT-20" transform="translate(133.300781 0)"/>
     <use xlink:href="#Arial-BoldMT-36" transform="translate(161.083984 0)"/>
     <use xlink:href="#Arial-BoldMT-34" transform="translate(216.699219 0)"/>
     <use xlink:href="#Arial-BoldMT-29" transform="translate(272.314453 0)"/>
    </g>
   </g>
   <g id="text_4">
    <!-- Text Encoder -->
    <g style="fill: #ffffff" transform="translate(194.807266 179.820422) scale(0.07 -0.07)">
     <defs>
      <path id="Arial-BoldMT-45" d="M 466 0 
L 466 4581 
L 3863 4581 
L 3863 3806 
L 1391 3806 
L 1391 2791 
L 3691 2791 
L 3691 2019 
L 1391 2019 
L 1391 772 
L 3950 772 
L 3950 0 
L 466 0 
z
" transform="scale(0.015625)"/>
      <path id="Arial-BoldMT-63" d="M 3353 2338 
L 2488 2181 
Q 2444 2441 2289 2572 
Q 2134 2703 1888 2703 
Q 1559 2703 1364 2476 
Q 1169 2250 1169 1719 
Q 1169 1128 1367 884 
Q 1566 641 1900 641 
Q 2150 641 2309 783 
Q 2469 925 2534 1272 
L 3397 1125 
Q 3263 531 2881 228 
Q 2500 -75 1859 -75 
Q 1131 -75 698 384 
Q 266 844 266 1656 
Q 266 2478 700 2936 
Q 1134 3394 1875 3394 
Q 2481 3394 2839 3133 
Q 3197 2872 3353 2338 
z
" transform="scale(0.015625)"/>
     </defs>
     <use xlink:href="#Arial-BoldMT-54"/>
     <use xlink:href="#Arial-BoldMT-65" transform="translate(53.708984 0)"/>
     <use xlink:href="#Arial-BoldMT-78" transform="translate(109.324219 0)"/>
     <use xlink:href="#Arial-BoldMT-74" transform="translate(164.939453 0)"/>
     <use xlink:href="#Arial-BoldMT-20" transform="translate(198.240234 0)"/>
     <use xlink:href="#Arial-BoldMT-45" transform="translate(226.023438 0)"/>
     <use xlink:href="#Arial-BoldMT-6e" transform="translate(292.722656 0)"/>
     <use xlink:href="#Arial-BoldMT-63" transform="translate(353.806641 0)"/>
     <use xlink:href="#Arial-BoldMT-6f" transform="translate(409.421875 0)"/>
     <use xlink:href="#Arial-BoldMT-64" transform="translate(470.505859 0)"/>
     <use xlink:href="#Arial-BoldMT-65" transform="translate(531.589844 0)"/>
     <use xlink:href="#Arial-BoldMT-72" transform="translate(587.205078 0)"/>
    </g>
    <!-- (64→4) → μ₁, σ₁ -->
    <g style="fill: #ffffff" transform="translate(187.875078 187.316766) scale(0.07 -0.07)">
     <defs>
      <path id="Arial-BoldMT-2192" d="M 4859 2738 
Q 5275 2284 5578 2048 
Q 5881 1813 6150 1697 
L 6150 1556 
Q 5841 1406 5550 1173 
Q 5259 941 4856 491 
L 4616 491 
Q 4909 1119 5231 1456 
L 247 1456 
L 247 1772 
L 5231 1772 
Q 4994 2072 4900 2220 
Q 4806 2369 4622 2738 
L 4859 2738 
z
" transform="scale(0.015625)"/>
      <path id="Arial-BoldMT-3bc" d="M 450 3319 
L 1328 3319 
L 1328 1809 
Q 1328 1388 1372 1150 
Q 1416 913 1570 766 
Q 1725 619 1941 619 
Q 2166 619 2330 772 
Q 2494 925 2541 1144 
Q 2588 1363 2588 1800 
L 2588 3319 
L 3466 3319 
L 3466 0 
L 2656 0 
L 2656 400 
Q 2409 -75 1988 -75 
Q 1538 -75 1328 400 
L 1328 -1263 
L 450 -1263 
L 450 3319 
z
" transform="scale(0.015625)"/>
      <path id="Arial-BoldMT-2081" d="M 800 0 
L 800 4000 
L 4000 4000 
L 4000 0 
L 800 0 
z
M 900 100 
L 3900 100 
L 3900 3900 
L 900 3900 
L 900 100 
z
" transform="scale(0.015625)"/>
      <path id="Arial-BoldMT-3c3" d="M 4228 3319 
L 4228 2591 
L 3425 2591 
Q 3669 2175 3669 1672 
Q 3669 947 3195 436 
Q 2722 -75 1944 -75 
Q 1184 -75 714 400 
Q 244 875 244 1644 
Q 244 2406 705 2900 
Q 1166 3394 1969 3394 
Q 2203 3394 2509 3319 
L 4228 3319 
z
M 1144 1659 
Q 1144 1184 1372 912 
Q 1600 641 1956 641 
Q 2300 641 2533 903 
Q 2766 1166 2766 1675 
Q 2766 2125 2544 2401 
Q 2322 2678 1956 2678 
Q 1597 2678 1370 2406 
Q 1144 2134 1144 1659 
z
" transform="scale(0.015625)"/>
     </defs>
     <use xlink:href="#Arial-BoldMT-28"/>
     <use xlink:href="#Arial-BoldMT-36" transform="translate(33.300781 0)"/>
     <use xlink:href="#Arial-BoldMT-34" transform="translate(88.916016 0)"/>
     <use xlink:href="#Arial-BoldMT-2192" transform="translate(144.53125 0)"/>
     <use xlink:href="#Arial-BoldMT-34" transform="translate(244.53125 0)"/>
     <use xlink:href="#Arial-BoldMT-29" transform="translate(300.146484 0)"/>
     <use xlink:href="#Arial-BoldMT-20" transform="translate(333.447266 0)"/>
     <use xlink:href="#Arial-BoldMT-2192" transform="translate(361.230469 0)"/>
     <use xlink:href="#Arial-BoldMT-20" transform="translate(461.230469 0)"/>
     <use xlink:href="#Arial-BoldMT-3bc" transform="translate(489.013672 0)"/>
     <use xlink:href="#Arial-BoldMT-2081" transform="translate(550.195312 0)"/>
     <use xlink:href="#Arial-BoldMT-2c" transform="translate(625.195312 0)"/>
     <use xlink:href="#Arial-BoldMT-20" transform="translate(652.978516 0)"/>
     <use xlink:href="#Arial-BoldMT-3c3" transform="translate(680.761719 0)"/>
     <use xlink:href="#Arial-BoldMT-2081" transform="translate(749.169922 0)"/>
    </g>
   </g>
   <g id="text_5">
    <!-- Image Encoder -->
    <g style="fill: #ffffff" transform="translate(610.669922 179.774484) scale(0.07 -0.07)">
     <use xlink:href="#Arial-BoldMT-49"/>
     <use xlink:href="#Arial-BoldMT-6d" transform="translate(27.783203 0)"/>
     <use xlink:href="#Arial-BoldMT-61" transform="translate(116.699219 0)"/>
     <use xlink:href="#Arial-BoldMT-67" transform="translate(172.314453 0)"/>
     <use xlink:href="#Arial-BoldMT-65" transform="translate(233.398438 0)"/>
     <use xlink:href="#Arial-BoldMT-20" transform="translate(289.013672 0)"/>
     <use xlink:href="#Arial-BoldMT-45" transform="translate(316.796875 0)"/>
     <use xlink:href="#Arial-BoldMT-6e" transform="translate(383.496094 0)"/>
     <use xlink:href="#Arial-BoldMT-63" transform="translate(444.580078 0)"/>
     <use xlink:href="#Arial-BoldMT-6f" transform="translate(500.195312 0)"/>
     <use xlink:href="#Arial-BoldMT-64" transform="translate(561.279297 0)"/>
     <use xlink:href="#Arial-BoldMT-65" transform="translate(622.363281 0)"/>
     <use xlink:href="#Arial-BoldMT-72" transform="translate(677.978516 0)"/>
    </g>
    <!-- (64→4) → μ₂, σ₂ -->
    <g style="fill: #ffffff" transform="translate(606.915078 187.362703) scale(0.07 -0.07)">
     <defs>
      <path id="Arial-BoldMT-2082" d="M 800 0 
L 800 4000 
L 4000 4000 
L 4000 0 
L 800 0 
z
M 900 100 
L 3900 100 
L 3900 3900 
L 900 3900 
L 900 100 
z
" transform="scale(0.015625)"/>
     </defs>
     <use xlink:href="#Arial-BoldMT-28"/>
     <use xlink:href="#Arial-BoldMT-36" transform="translate(33.300781 0)"/>
     <use xlink:href="#Arial-BoldMT-34" transform="translate(88.916016 0)"/>
     <use xlink:href="#Arial-BoldMT-2192" transform="translate(144.53125 0)"/>
     <use xlink:href="#Arial-BoldMT-34" transform="translate(244.53125 0)"/>
     <use xlink:href="#Arial-BoldMT-29" transform="translate(300.146484 0)"/>
     <use xlink:href="#Arial-BoldMT-20" transform="translate(333.447266 0)"/>
     <use xlink:href="#Arial-BoldMT-2192" transform="translate(361.230469 0)"/>
     <use xlink:href="#Arial-BoldMT-20" transform="translate(461.230469 0)"/>
     <use xlink:href="#Arial-BoldMT-3bc" transform="translate(489.013672 0)"/>
     <use xlink:href="#Arial-BoldMT-2082" transform="translate(550.195312 0)"/>
     <use xlink:href="#Arial-BoldMT-2c" transform="translate(625.195312 0)"/>
     <use xlink:href="#Arial-BoldMT-20" transform="translate(652.978516 0)"/>
     <use xlink:href="#Arial-BoldMT-3c3" transform="translate(680.761719 0)"/>
     <use xlink:href="#Arial-BoldMT-2082" transform="translate(749.169922 0)"/>
    </g>
   </g>
   <g id="text_6">
    <!-- z₁ ~ N(μ₁,σ₁) -->
    <g style="fill: #ffffff" transform="translate(175.279531 298.545141) scale(0.07 -0.07)">
     <defs>
      <path id="Arial-BoldMT-7a" d="M 106 0 
L 106 684 
L 1350 2113 
Q 1656 2463 1803 2609 
Q 1650 2600 1400 2597 
L 228 2591 
L 228 3319 
L 2972 3319 
L 2972 2697 
L 1703 1234 
L 1256 750 
Q 1622 772 1709 772 
L 3069 772 
L 3069 0 
L 106 0 
z
" transform="scale(0.015625)"/>
      <path id="Arial-BoldMT-7e" d="M 209 1622 
L 209 2431 
Q 606 2863 1134 2863 
Q 1331 2863 1497 2823 
Q 1663 2784 2092 2611 
Q 2522 2438 2675 2438 
Q 2850 2438 3079 2545 
Q 3309 2653 3528 2888 
L 3528 2044 
Q 3384 1894 3126 1762 
Q 2869 1631 2594 1631 
Q 2438 1631 2289 1668 
Q 2141 1706 1819 1847 
Q 1338 2056 1063 2056 
Q 625 2056 209 1622 
z
" transform="scale(0.015625)"/>
      <path id="Arial-BoldMT-4e" d="M 475 0 
L 475 4581 
L 1375 4581 
L 3250 1522 
L 3250 4581 
L 4109 4581 
L 4109 0 
L 3181 0 
L 1334 2988 
L 1334 0 
L 475 0 
z
" transform="scale(0.015625)"/>
     </defs>
     <use xlink:href="#Arial-BoldMT-7a"/>
     <use xlink:href="#Arial-BoldMT-2081" transform="translate(50 0)"/>
     <use xlink:href="#Arial-BoldMT-20" transform="translate(125 0)"/>
     <use xlink:href="#Arial-BoldMT-7e" transform="translate(152.783203 0)"/>
     <use xlink:href="#Arial-BoldMT-20" transform="translate(211.181641 0)"/>
     <use xlink:href="#Arial-BoldMT-4e" transform="translate(238.964844 0)"/>
     <use xlink:href="#Arial-BoldMT-28" transform="translate(311.181641 0)"/>
     <use xlink:href="#Arial-BoldMT-3bc" transform="translate(344.482422 0)"/>
     <use xlink:href="#Arial-BoldMT-2081" transform="translate(405.664062 0)"/>
     <use xlink:href="#Arial-BoldMT-2c" transform="translate(480.664062 0)"/>
     <use xlink:href="#Arial-BoldMT-3c3" transform="translate(508.447266 0)"/>
     <use xlink:href="#Arial-BoldMT-2081" transform="translate(576.855469 0)"/>
     <use xlink:href="#Arial-BoldMT-29" transform="translate(651.855469 0)"/>
    </g>
    <!-- (B, 2) -->
    <g style="fill: #ffffff" transform="translate(190.510547 306.133359) scale(0.07 -0.07)">
     <defs>
      <path id="Arial-BoldMT-32" d="M 3238 816 
L 3238 0 
L 159 0 
Q 209 463 459 877 
Q 709 1291 1447 1975 
Q 2041 2528 2175 2725 
Q 2356 2997 2356 3263 
Q 2356 3556 2198 3714 
Q 2041 3872 1763 3872 
Q 1488 3872 1325 3706 
Q 1163 3541 1138 3156 
L 263 3244 
Q 341 3969 753 4284 
Q 1166 4600 1784 4600 
Q 2463 4600 2850 4234 
Q 3238 3869 3238 3325 
Q 3238 3016 3127 2736 
Q 3016 2456 2775 2150 
Q 2616 1947 2200 1565 
Q 1784 1184 1673 1059 
Q 1563 934 1494 816 
L 3238 816 
z
" transform="scale(0.015625)"/>
     </defs>
     <use xlink:href="#Arial-BoldMT-28"/>
     <use xlink:href="#Arial-BoldMT-42" transform="translate(33.300781 0)"/>
     <use xlink:href="#Arial-BoldMT-2c" transform="translate(105.517578 0)"/>
     <use xlink:href="#Arial-BoldMT-20" transform="translate(133.300781 0)"/>
     <use xlink:href="#Arial-BoldMT-32" transform="translate(161.083984 0)"/>
     <use xlink:href="#Arial-BoldMT-29" transform="translate(216.699219 0)"/>
    </g>
   </g>
   <g id="text_7">
    <!-- z₂ ~ N(μ₂,σ₂) -->
    <g style="fill: #ffffff" transform="translate(629.239531 298.545141) scale(0.07 -0.07)">
     <use xlink:href="#Arial-BoldMT-7a"/>
     <use xlink:href="#Arial-BoldMT-2082" transform="translate(50 0)"/>
     <use xlink:href="#Arial-BoldMT-20" transform="translate(125 0)"/>
     <use xlink:href="#Arial-BoldMT-7e" transform="translate(152.783203 0)"/>
     <use xlink:href="#Arial-BoldMT-20" transform="translate(211.181641 0)"/>
     <use xlink:href="#Arial-BoldMT-4e" transform="translate(238.964844 0)"/>
     <use xlink:href="#Arial-BoldMT-28" transform="translate(311.181641 0)"/>
     <use xlink:href="#Arial-BoldMT-3bc" transform="translate(344.482422 0)"/>
     <use xlink:href="#Arial-BoldMT-2082" transform="translate(405.664062 0)"/>
     <use xlink:href="#Arial-BoldMT-2c" transform="translate(480.664062 0)"/>
     <use xlink:href="#Arial-BoldMT-3c3" transform="translate(508.447266 0)"/>
     <use xlink:href="#Arial-BoldMT-2082" transform="translate(576.855469 0)"/>
     <use xlink:href="#Arial-BoldMT-29" transform="translate(651.855469 0)"/>
    </g>
    <!-- (B, 2) -->
    <g style="fill: #ffffff" transform="translate(644.470547 306.133359) scale(0.07 -0.07)">
     <use xlink:href="#Arial-BoldMT-28"/>
     <use xlink:href="#Arial-BoldMT-42" transform="translate(33.300781 0)"/>
     <use xlink:href="#Arial-BoldMT-2c" transform="translate(105.517578 0)"/>
     <use xlink:href="#Arial-BoldMT-20" transform="translate(133.300781 0)"/>
     <use xlink:href="#Arial-BoldMT-32" transform="translate(161.083984 0)"/>
     <use xlink:href="#Arial-BoldMT-29" transform="translate(216.699219 0)"/>
    </g>
   </g>
   <g id="text_8">
    <!-- Symmetric KL Divergence -->
    <g style="fill: #ffffff" transform="translate(382.923672 361.401141) scale(0.07 -0.07)">
     <defs>
      <path id="Arial-BoldMT-53" d="M 231 1491 
L 1131 1578 
Q 1213 1125 1461 912 
Q 1709 700 2131 700 
Q 2578 700 2804 889 
Q 3031 1078 3031 1331 
Q 3031 1494 2936 1608 
Q 2841 1722 2603 1806 
Q 2441 1863 1863 2006 
Q 1119 2191 819 2459 
Q 397 2838 397 3381 
Q 397 3731 595 4036 
Q 794 4341 1167 4500 
Q 1541 4659 2069 4659 
Q 2931 4659 3367 4281 
Q 3803 3903 3825 3272 
L 2900 3231 
Q 2841 3584 2645 3739 
Q 2450 3894 2059 3894 
Q 1656 3894 1428 3728 
Q 1281 3622 1281 3444 
Q 1281 3281 1419 3166 
Q 1594 3019 2269 2859 
Q 2944 2700 3267 2529 
Q 3591 2359 3773 2064 
Q 3956 1769 3956 1334 
Q 3956 941 3737 597 
Q 3519 253 3119 86 
Q 2719 -81 2122 -81 
Q 1253 -81 787 320 
Q 322 722 231 1491 
z
" transform="scale(0.015625)"/>
      <path id="Arial-BoldMT-4b" d="M 478 0 
L 478 4581 
L 1403 4581 
L 1403 2547 
L 3272 4581 
L 4516 4581 
L 2791 2797 
L 4609 0 
L 3413 0 
L 2153 2150 
L 1403 1384 
L 1403 0 
L 478 0 
z
" transform="scale(0.015625)"/>
      <path id="Arial-BoldMT-44" d="M 463 4581 
L 2153 4581 
Q 2725 4581 3025 4494 
Q 3428 4375 3715 4072 
Q 4003 3769 4153 3330 
Q 4303 2891 4303 2247 
Q 4303 1681 4163 1272 
Q 3991 772 3672 463 
Q 3431 228 3022 97 
Q 2716 0 2203 0 
L 463 0 
L 463 4581 
z
M 1388 3806 
L 1388 772 
L 2078 772 
Q 2466 772 2638 816 
Q 2863 872 3011 1006 
Q 3159 1141 3253 1448 
Q 3347 1756 3347 2288 
Q 3347 2819 3253 3103 
Q 3159 3388 2990 3547 
Q 2822 3706 2563 3763 
Q 2369 3806 1803 3806 
L 1388 3806 
z
" transform="scale(0.015625)"/>
      <path id="Arial-BoldMT-76" d="M 1372 0 
L 34 3319 
L 956 3319 
L 1581 1625 
L 1763 1059 
Q 1834 1275 1853 1344 
Q 1897 1484 1947 1625 
L 2578 3319 
L 3481 3319 
L 2163 0 
L 1372 0 
z
" transform="scale(0.015625)"/>
     </defs>
     <use xlink:href="#Arial-BoldMT-53"/>
     <use xlink:href="#Arial-BoldMT-79" transform="translate(66.699219 0)"/>
     <use xlink:href="#Arial-BoldMT-6d" transform="translate(122.314453 0)"/>
     <use xlink:href="#Arial-BoldMT-6d" transform="translate(211.230469 0)"/>
     <use xlink:href="#Arial-BoldMT-65" transform="translate(300.146484 0)"/>
     <use xlink:href="#Arial-BoldMT-74" transform="translate(355.761719 0)"/>
     <use xlink:href="#Arial-BoldMT-72" transform="translate(389.0625 0)"/>
     <use xlink:href="#Arial-BoldMT-69" transform="translate(427.978516 0)"/>
     <use xlink:href="#Arial-BoldMT-63" transform="translate(455.761719 0)"/>
     <use xlink:href="#Arial-BoldMT-20" transform="translate(511.376953 0)"/>
     <use xlink:href="#Arial-BoldMT-4b" transform="translate(539.160156 0)"/>
     <use xlink:href="#Arial-BoldMT-4c" transform="translate(611.376953 0)"/>
     <use xlink:href="#Arial-BoldMT-20" transform="translate(670.710938 0)"/>
     <use xlink:href="#Arial-BoldMT-44" transform="translate(698.494141 0)"/>
     <use xlink:href="#Arial-BoldMT-69" transform="translate(770.710938 0)"/>
     <use xlink:href="#Arial-BoldMT-76" transform="translate(798.494141 0)"/>
     <use xlink:href="#Arial-BoldMT-65" transform="translate(854.109375 0)"/>
     <use xlink:href="#Arial-BoldMT-72" transform="translate(909.724609 0)"/>
     <use xlink:href="#Arial-BoldMT-67" transform="translate(948.640625 0)"/>
     <use xlink:href="#Arial-BoldMT-65" transform="translate(1009.724609 0)"/>
     <use xlink:href="#Arial-BoldMT-6e" transform="translate(1065.339844 0)"/>
     <use xlink:href="#Arial-BoldMT-63" transform="translate(1126.423828 0)"/>
     <use xlink:href="#Arial-BoldMT-65" transform="translate(1182.039062 0)"/>
    </g>
    <!-- SKL = (KL₁₂ + KL₂₁)/2 -->
    <g style="fill: #ffffff" transform="translate(386.243203 368.989359) scale(0.07 -0.07)">
     <defs>
      <path id="Arial-BoldMT-3d" d="M 266 2550 
L 266 3356 
L 3469 3356 
L 3469 2550 
L 266 2550 
z
M 266 1163 
L 266 1972 
L 3469 1972 
L 3469 1163 
L 266 1163 
z
" transform="scale(0.015625)"/>
      <path id="Arial-BoldMT-2b" d="M 1466 659 
L 1466 1850 
L 266 1850 
L 266 2672 
L 1466 2672 
L 1466 3863 
L 2266 3863 
L 2266 2672 
L 3469 2672 
L 3469 1850 
L 2266 1850 
L 2266 659 
L 1466 659 
z
" transform="scale(0.015625)"/>
      <path id="Arial-BoldMT-2f" d="M -9 -78 
L 1125 4659 
L 1784 4659 
L 638 -78 
L -9 -78 
z
" transform="scale(0.015625)"/>
     </defs>
     <use xlink:href="#Arial-BoldMT-53"/>
     <use xlink:href="#Arial-BoldMT-4b" transform="translate(66.699219 0)"/>
     <use xlink:href="#Arial-BoldMT-4c" transform="translate(138.916016 0)"/>
     <use xlink:href="#Arial-BoldMT-20" transform="translate(198.25 0)"/>
     <use xlink:href="#Arial-BoldMT-3d" transform="translate(226.033203 0)"/>
     <use xlink:href="#Arial-BoldMT-20" transform="translate(284.431641 0)"/>
     <use xlink:href="#Arial-BoldMT-28" transform="translate(312.214844 0)"/>
     <use xlink:href="#Arial-BoldMT-4b" transform="translate(345.515625 0)"/>
     <use xlink:href="#Arial-BoldMT-4c" transform="translate(417.732422 0)"/>
     <use xlink:href="#Arial-BoldMT-2081" transform="translate(478.816406 0)"/>
     <use xlink:href="#Arial-BoldMT-2082" transform="translate(553.816406 0)"/>
     <use xlink:href="#Arial-BoldMT-20" transform="translate(628.816406 0)"/>
     <use xlink:href="#Arial-BoldMT-2b" transform="translate(656.599609 0)"/>
     <use xlink:href="#Arial-BoldMT-20" transform="translate(714.998047 0)"/>
     <use xlink:href="#Arial-BoldMT-4b" transform="translate(742.78125 0)"/>
     <use xlink:href="#Arial-BoldMT-4c" transform="translate(814.998047 0)"/>
     <use xlink:href="#Arial-BoldMT-2082" transform="translate(876.082031 0)"/>
     <use xlink:href="#Arial-BoldMT-2081" transform="translate(951.082031 0)"/>
     <use xlink:href="#Arial-BoldMT-29" transform="translate(1026.082031 0)"/>
     <use xlink:href="#Arial-BoldMT-2f" transform="translate(1059.382812 0)"/>
     <use xlink:href="#Arial-BoldMT-32" transform="translate(1087.166016 0)"/>
    </g>
   </g>
   <g id="text_9">
    <!-- Weight Computation -->
    <g style="fill: #ffffff" transform="translate(392.087656 462.367031) scale(0.07 -0.07)">
     <defs>
      <path id="Arial-BoldMT-57" d="M 1116 0 
L 22 4581 
L 969 4581 
L 1659 1434 
L 2497 4581 
L 3597 4581 
L 4400 1381 
L 5103 4581 
L 6034 4581 
L 4922 0 
L 3941 0 
L 3028 3425 
L 2119 0 
L 1116 0 
z
" transform="scale(0.015625)"/>
      <path id="Arial-BoldMT-68" d="M 1334 4581 
L 1334 2897 
Q 1759 3394 2350 3394 
Q 2653 3394 2897 3281 
Q 3141 3169 3264 2994 
Q 3388 2819 3433 2606 
Q 3478 2394 3478 1947 
L 3478 0 
L 2600 0 
L 2600 1753 
Q 2600 2275 2550 2415 
Q 2500 2556 2373 2639 
Q 2247 2722 2056 2722 
Q 1838 2722 1666 2615 
Q 1494 2509 1414 2295 
Q 1334 2081 1334 1663 
L 1334 0 
L 456 0 
L 456 4581 
L 1334 4581 
z
" transform="scale(0.015625)"/>
      <path id="Arial-BoldMT-43" d="M 3397 1684 
L 4294 1400 
Q 4088 650 3608 286 
Q 3128 -78 2391 -78 
Q 1478 -78 890 545 
Q 303 1169 303 2250 
Q 303 3394 893 4026 
Q 1484 4659 2447 4659 
Q 3288 4659 3813 4163 
Q 4125 3869 4281 3319 
L 3366 3100 
Q 3284 3456 3026 3662 
Q 2769 3869 2400 3869 
Q 1891 3869 1573 3503 
Q 1256 3138 1256 2319 
Q 1256 1450 1568 1081 
Q 1881 713 2381 713 
Q 2750 713 3015 947 
Q 3281 1181 3397 1684 
z
" transform="scale(0.015625)"/>
      <path id="Arial-BoldMT-70" d="M 434 3319 
L 1253 3319 
L 1253 2831 
Q 1413 3081 1684 3237 
Q 1956 3394 2288 3394 
Q 2866 3394 3269 2941 
Q 3672 2488 3672 1678 
Q 3672 847 3265 386 
Q 2859 -75 2281 -75 
Q 2006 -75 1782 34 
Q 1559 144 1313 409 
L 1313 -1263 
L 434 -1263 
L 434 3319 
z
M 1303 1716 
Q 1303 1156 1525 889 
Q 1747 622 2066 622 
Q 2372 622 2575 867 
Q 2778 1113 2778 1672 
Q 2778 2194 2568 2447 
Q 2359 2700 2050 2700 
Q 1728 2700 1515 2451 
Q 1303 2203 1303 1716 
z
" transform="scale(0.015625)"/>
     </defs>
     <use xlink:href="#Arial-BoldMT-57"/>
     <use xlink:href="#Arial-BoldMT-65" transform="translate(92.634766 0)"/>
     <use xlink:href="#Arial-BoldMT-69" transform="translate(148.25 0)"/>
     <use xlink:href="#Arial-BoldMT-67" transform="translate(176.033203 0)"/>
     <use xlink:href="#Arial-BoldMT-68" transform="translate(237.117188 0)"/>
     <use xlink:href="#Arial-BoldMT-74" transform="translate(298.201172 0)"/>
     <use xlink:href="#Arial-BoldMT-20" transform="translate(331.501953 0)"/>
     <use xlink:href="#Arial-BoldMT-43" transform="translate(359.285156 0)"/>
     <use xlink:href="#Arial-BoldMT-6f" transform="translate(431.501953 0)"/>
     <use xlink:href="#Arial-BoldMT-6d" transform="translate(492.585938 0)"/>
     <use xlink:href="#Arial-BoldMT-70" transform="translate(581.501953 0)"/>
     <use xlink:href="#Arial-BoldMT-75" transform="translate(642.585938 0)"/>
     <use xlink:href="#Arial-BoldMT-74" transform="translate(703.669922 0)"/>
     <use xlink:href="#Arial-BoldMT-61" transform="translate(736.970703 0)"/>
     <use xlink:href="#Arial-BoldMT-74" transform="translate(792.585938 0)"/>
     <use xlink:href="#Arial-BoldMT-69" transform="translate(825.886719 0)"/>
     <use xlink:href="#Arial-BoldMT-6f" transform="translate(853.669922 0)"/>
     <use xlink:href="#Arial-BoldMT-6e" transform="translate(914.753906 0)"/>
    </g>
    <!-- weight_uni = (1-SKL) -->
    <g style="fill: #ffffff" transform="translate(391.532578 469.95525) scale(0.07 -0.07)">
     <defs>
      <path id="Arial-BoldMT-77" d="M 1078 0 
L 28 3319 
L 881 3319 
L 1503 1144 
L 2075 3319 
L 2922 3319 
L 3475 1144 
L 4109 3319 
L 4975 3319 
L 3909 0 
L 3066 0 
L 2494 2134 
L 1931 0 
L 1078 0 
z
" transform="scale(0.015625)"/>
      <path id="Arial-BoldMT-5f" d="M -59 -1266 
L -59 -697 
L 3591 -697 
L 3591 -1266 
L -59 -1266 
z
" transform="scale(0.015625)"/>
      <path id="Arial-BoldMT-31" d="M 2519 0 
L 1641 0 
L 1641 3309 
Q 1159 2859 506 2644 
L 506 3441 
Q 850 3553 1253 3867 
Q 1656 4181 1806 4600 
L 2519 4600 
L 2519 0 
z
" transform="scale(0.015625)"/>
      <path id="Arial-BoldMT-2d" d="M 359 1222 
L 359 2100 
L 2084 2100 
L 2084 1222 
L 359 1222 
z
" transform="scale(0.015625)"/>
     </defs>
     <use xlink:href="#Arial-BoldMT-77"/>
     <use xlink:href="#Arial-BoldMT-65" transform="translate(77.783203 0)"/>
     <use xlink:href="#Arial-BoldMT-69" transform="translate(133.398438 0)"/>
     <use xlink:href="#Arial-BoldMT-67" transform="translate(161.181641 0)"/>
     <use xlink:href="#Arial-BoldMT-68" transform="translate(222.265625 0)"/>
     <use xlink:href="#Arial-BoldMT-74" transform="translate(283.349609 0)"/>
     <use xlink:href="#Arial-BoldMT-5f" transform="translate(316.650391 0)"/>
     <use xlink:href="#Arial-BoldMT-75" transform="translate(372.265625 0)"/>
     <use xlink:href="#Arial-BoldMT-6e" transform="translate(433.349609 0)"/>
     <use xlink:href="#Arial-BoldMT-69" transform="translate(494.433594 0)"/>
     <use xlink:href="#Arial-BoldMT-20" transform="translate(522.216797 0)"/>
     <use xlink:href="#Arial-BoldMT-3d" transform="translate(550 0)"/>
     <use xlink:href="#Arial-BoldMT-20" transform="translate(608.398438 0)"/>
     <use xlink:href="#Arial-BoldMT-28" transform="translate(636.181641 0)"/>
     <use xlink:href="#Arial-BoldMT-31" transform="translate(669.482422 0)"/>
     <use xlink:href="#Arial-BoldMT-2d" transform="translate(725.097656 0)"/>
     <use xlink:href="#Arial-BoldMT-53" transform="translate(758.398438 0)"/>
     <use xlink:href="#Arial-BoldMT-4b" transform="translate(825.097656 0)"/>
     <use xlink:href="#Arial-BoldMT-4c" transform="translate(897.314453 0)"/>
     <use xlink:href="#Arial-BoldMT-29" transform="translate(958.398438 0)"/>
    </g>
    <!-- weight_corre = SKL -->
    <g style="fill: #ffffff" transform="translate(393.467969 477.543469) scale(0.07 -0.07)">
     <use xlink:href="#Arial-BoldMT-77"/>
     <use xlink:href="#Arial-BoldMT-65" transform="translate(77.783203 0)"/>
     <use xlink:href="#Arial-BoldMT-69" transform="translate(133.398438 0)"/>
     <use xlink:href="#Arial-BoldMT-67" transform="translate(161.181641 0)"/>
     <use xlink:href="#Arial-BoldMT-68" transform="translate(222.265625 0)"/>
     <use xlink:href="#Arial-BoldMT-74" transform="translate(283.349609 0)"/>
     <use xlink:href="#Arial-BoldMT-5f" transform="translate(316.650391 0)"/>
     <use xlink:href="#Arial-BoldMT-63" transform="translate(372.265625 0)"/>
     <use xlink:href="#Arial-BoldMT-6f" transform="translate(427.880859 0)"/>
     <use xlink:href="#Arial-BoldMT-72" transform="translate(488.964844 0)"/>
     <use xlink:href="#Arial-BoldMT-72" transform="translate(527.880859 0)"/>
     <use xlink:href="#Arial-BoldMT-65" transform="translate(566.796875 0)"/>
     <use xlink:href="#Arial-BoldMT-20" transform="translate(622.412109 0)"/>
     <use xlink:href="#Arial-BoldMT-3d" transform="translate(650.195312 0)"/>
     <use xlink:href="#Arial-BoldMT-20" transform="translate(708.59375 0)"/>
     <use xlink:href="#Arial-BoldMT-53" transform="translate(736.376953 0)"/>
     <use xlink:href="#Arial-BoldMT-4b" transform="translate(803.076172 0)"/>
     <use xlink:href="#Arial-BoldMT-4c" transform="translate(875.292969 0)"/>
    </g>
   </g>
  </g>
 </g>
 <defs>
  <clipPath id="p5af1294dbc">
   <rect x="7.2" y="7.2" width="838.08" height="558.72"/>
  </clipPath>
 </defs>
</svg>
