<?xml version="1.0" encoding="utf-8" standalone="no"?>
<!DOCTYPE svg PUBLIC "-//W3C//DTD SVG 1.1//EN"
  "http://www.w3.org/Graphics/SVG/1.1/DTD/svg11.dtd">
<svg xmlns:xlink="http://www.w3.org/1999/xlink" width="1143.36pt" height="861.12pt" viewBox="0 0 1143.36 861.12" xmlns="http://www.w3.org/2000/svg" version="1.1">
 <metadata>
  <rdf:RDF xmlns:dc="http://purl.org/dc/elements/1.1/" xmlns:cc="http://creativecommons.org/ns#" xmlns:rdf="http://www.w3.org/1999/02/22-rdf-syntax-ns#">
   <cc:Work>
    <dc:type rdf:resource="http://purl.org/dc/dcmitype/StillImage"/>
    <dc:date>2025-11-13T00:43:03.991092</dc:date>
    <dc:format>image/svg+xml</dc:format>
    <dc:creator>
     <cc:Agent>
      <dc:title>Matplotlib v3.10.7, https://matplotlib.org/</dc:title>
     </cc:Agent>
    </dc:creator>
   </cc:Work>
  </rdf:RDF>
 </metadata>
 <defs>
  <style type="text/css">*{stroke-linejoin: round; stroke-linecap: butt}</style>
 </defs>
 <g id="figure_1">
  <g id="patch_1">
   <path d="M 0 861.12 
L 1143.36 861.12 
L 1143.36 0 
L 0 0 
z
" style="fill: #ffffff"/>
  </g>
  <g id="axes_1">
   <g id="patch_2">
    <path d="M 148.32 151.848 
L 289.44 151.848 
Q 292.968 151.848 292.968 148.32 
L 292.968 91.872 
Q 292.968 88.344 289.44 88.344 
L 148.32 88.344 
Q 144.792 88.344 144.792 91.872 
L 144.792 148.32 
Q 144.792 151.848 148.32 151.848 
z
" clip-path="url(#p2990ea5404)" style="fill: #3498db; stroke: #000000; stroke-linejoin: miter"/>
   </g>
   <g id="patch_3">
    <path d="M 853.92 151.848 
L 995.04 151.848 
Q 998.568 151.848 998.568 148.32 
L 998.568 91.872 
Q 998.568 88.344 995.04 88.344 
L 853.92 88.344 
Q 850.392 88.344 850.392 91.872 
L 850.392 148.32 
Q 850.392 151.848 853.92 151.848 
z
" clip-path="url(#p2990ea5404)" style="fill: #e74c3c; stroke: #000000; stroke-linejoin: miter"/>
   </g>
   <g id="patch_4">
    <path d="M 430.56 222.408 
L 712.8 222.408 
Q 716.328 222.408 716.328 218.88 
L 716.328 162.432 
Q 716.328 158.904 712.8 158.904 
L 430.56 158.904 
Q 427.032 158.904 427.032 162.432 
L 427.032 218.88 
Q 427.032 222.408 430.56 222.408 
z
" clip-path="url(#p2990ea5404)" style="fill: #2ecc71; stroke: #000000; stroke-linejoin: miter"/>
   </g>
   <g id="patch_5">
    <path d="M 218.88 292.968 
L 324.72 292.968 
Q 328.248 292.968 328.248 289.44 
L 328.248 247.104 
Q 328.248 243.576 324.72 243.576 
L 218.88 243.576 
Q 215.352 243.576 215.352 247.104 
L 215.352 289.44 
Q 215.352 292.968 218.88 292.968 
z
" clip-path="url(#p2990ea5404)" style="fill: #3498db; stroke: #000000; stroke-linejoin: miter"/>
   </g>
   <g id="patch_6">
    <path d="M 818.64 292.968 
L 924.48 292.968 
Q 928.008 292.968 928.008 289.44 
L 928.008 247.104 
Q 928.008 243.576 924.48 243.576 
L 818.64 243.576 
Q 815.112 243.576 815.112 247.104 
L 815.112 289.44 
Q 815.112 292.968 818.64 292.968 
z
" clip-path="url(#p2990ea5404)" style="fill: #e74c3c; stroke: #000000; stroke-linejoin: miter"/>
   </g>
   <g id="patch_7">
    <path d="M 77.76 398.808 
L 289.44 398.808 
Q 292.968 398.808 292.968 395.28 
L 292.968 310.608 
Q 292.968 307.08 289.44 307.08 
L 77.76 307.08 
Q 74.232 307.08 74.232 310.608 
L 74.232 395.28 
Q 74.232 398.808 77.76 398.808 
z
" clip-path="url(#p2990ea5404)" style="fill: #f39c12; stroke: #000000; stroke-linejoin: miter"/>
   </g>
   <g id="patch_8">
    <path d="M 113.04 448.2 
L 183.6 448.2 
Q 187.128 448.2 187.128 444.672 
L 187.128 409.392 
Q 187.128 405.864 183.6 405.864 
L 113.04 405.864 
Q 109.512 405.864 109.512 409.392 
L 109.512 444.672 
Q 109.512 448.2 113.04 448.2 
z
" clip-path="url(#p2990ea5404)" style="fill: #add8e6; stroke: #000000; stroke-linejoin: miter"/>
   </g>
   <g id="patch_9">
    <path d="M 183.6 448.2 
L 254.16 448.2 
Q 257.688 448.2 257.688 444.672 
L 257.688 409.392 
Q 257.688 405.864 254.16 405.864 
L 183.6 405.864 
Q 180.072 405.864 180.072 409.392 
L 180.072 444.672 
Q 180.072 448.2 183.6 448.2 
z
" clip-path="url(#p2990ea5404)" style="fill: #f08080; stroke: #000000; stroke-linejoin: miter"/>
   </g>
   <g id="patch_10">
    <path d="M 113.04 490.536 
L 183.6 490.536 
Q 187.128 490.536 187.128 487.008 
L 187.128 451.728 
Q 187.128 448.2 183.6 448.2 
L 113.04 448.2 
Q 109.512 448.2 109.512 451.728 
L 109.512 487.008 
Q 109.512 490.536 113.04 490.536 
z
" clip-path="url(#p2990ea5404)" style="fill: #add8e6; stroke: #000000; stroke-linejoin: miter"/>
   </g>
   <g id="patch_11">
    <path d="M 183.6 490.536 
L 254.16 490.536 
Q 257.688 490.536 257.688 487.008 
L 257.688 451.728 
Q 257.688 448.2 254.16 448.2 
L 183.6 448.2 
Q 180.072 448.2 180.072 451.728 
L 180.072 487.008 
Q 180.072 490.536 183.6 490.536 
z
" clip-path="url(#p2990ea5404)" style="fill: #f08080; stroke: #000000; stroke-linejoin: miter"/>
   </g>
   <g id="patch_12">
    <path d="M 501.12 398.808 
L 642.24 398.808 
Q 645.768 398.808 645.768 395.28 
L 645.768 338.832 
Q 645.768 335.304 642.24 335.304 
L 501.12 335.304 
Q 497.592 335.304 497.592 338.832 
L 497.592 395.28 
Q 497.592 398.808 501.12 398.808 
z
" clip-path="url(#p2990ea5404)" style="fill: #2ecc71; stroke: #000000; stroke-linejoin: miter"/>
   </g>
   <g id="patch_13">
    <path d="M 783.36 398.808 
L 995.04 398.808 
Q 998.568 398.808 998.568 395.28 
L 998.568 338.832 
Q 998.568 335.304 995.04 335.304 
L 783.36 335.304 
Q 779.832 335.304 779.832 338.832 
L 779.832 395.28 
Q 779.832 398.808 783.36 398.808 
z
" clip-path="url(#p2990ea5404)" style="fill: #f39c12; stroke: #000000; stroke-linejoin: miter"/>
   </g>
   <g id="patch_14">
    <path d="M 148.32 575.208 
L 254.16 575.208 
Q 257.688 575.208 257.688 571.68 
L 257.688 529.344 
Q 257.688 525.816 254.16 525.816 
L 148.32 525.816 
Q 144.792 525.816 144.792 529.344 
L 144.792 571.68 
Q 144.792 575.208 148.32 575.208 
z
" clip-path="url(#p2990ea5404)" style="fill: #3498db; stroke: #000000; stroke-linejoin: miter"/>
   </g>
   <g id="patch_15">
    <path d="M 818.64 575.208 
L 924.48 575.208 
Q 928.008 575.208 928.008 571.68 
L 928.008 529.344 
Q 928.008 525.816 924.48 525.816 
L 818.64 525.816 
Q 815.112 525.816 815.112 529.344 
L 815.112 571.68 
Q 815.112 575.208 818.64 575.208 
z
" clip-path="url(#p2990ea5404)" style="fill: #e74c3c; stroke: #000000; stroke-linejoin: miter"/>
   </g>
   <g id="patch_16">
    <path d="M 501.12 575.208 
L 606.96 575.208 
Q 610.488 575.208 610.488 571.68 
L 610.488 529.344 
Q 610.488 525.816 606.96 525.816 
L 501.12 525.816 
Q 497.592 525.816 497.592 529.344 
L 497.592 571.68 
Q 497.592 575.208 501.12 575.208 
z
" clip-path="url(#p2990ea5404)" style="fill: #2ecc71; stroke: #000000; stroke-linejoin: miter"/>
   </g>
   <g id="patch_17">
    <path d="M 430.56 681.048 
L 712.8 681.048 
Q 716.328 681.048 716.328 677.52 
L 716.328 621.072 
Q 716.328 617.544 712.8 617.544 
L 430.56 617.544 
Q 427.032 617.544 427.032 621.072 
L 427.032 677.52 
Q 427.032 681.048 430.56 681.048 
z
" clip-path="url(#p2990ea5404)" style="fill: #f39c12; stroke: #000000; stroke-linejoin: miter"/>
   </g>
   <g id="patch_18">
    <path d="M 501.12 786.888 
L 642.24 786.888 
Q 645.768 786.888 645.768 783.36 
L 645.768 726.912 
Q 645.768 723.384 642.24 723.384 
L 501.12 723.384 
Q 497.592 723.384 497.592 726.912 
L 497.592 783.36 
Q 497.592 786.888 501.12 786.888 
z
" clip-path="url(#p2990ea5404)" style="fill: #9b59b6; stroke: #000000; stroke-linejoin: miter"/>
   </g>
   <g id="patch_19">
    <path d="M 223.805182 149.164317 
Q 342.357408 169.487556 459.256695 189.527433 
" style="fill: none; stroke: #000000; stroke-width: 1.5; stroke-linecap: round"/>
    <path d="M 453.849853 185.556784 
L 459.256695 189.527433 
L 452.83607 191.470517 
" style="fill: none; stroke: #000000; stroke-width: 1.5; stroke-linecap: round"/>
   </g>
   <g id="patch_20">
    <path d="M 919.554818 149.164317 
Q 801.002592 169.487556 684.103305 189.527433 
" style="fill: none; stroke: #000000; stroke-width: 1.5; stroke-linecap: round"/>
    <path d="M 690.52393 191.470517 
L 684.103305 189.527433 
L 689.510147 185.556784 
" style="fill: none; stroke: #000000; stroke-width: 1.5; stroke-linecap: round"/>
   </g>
   <g id="patch_21">
    <path d="M 267.743683 292.360548 
Q 227.701736 321.19075 189.020773 349.041043 
" style="fill: none; stroke: #000000; stroke-width: 1.5; stroke-linecap: round"/>
    <path d="M 195.642894 347.969818 
L 189.020773 349.041043 
L 192.137065 343.100612 
" style="fill: none; stroke: #000000; stroke-width: 1.5; stroke-linecap: round"/>
   </g>
   <g id="patch_22">
    <path d="M 872.898289 294.257839 
Q 880.380022 321.192079 887.412903 346.51045 
" style="fill: none; stroke: #000000; stroke-width: 1.5; stroke-linecap: round"/>
    <path d="M 888.697593 339.926411 
L 887.412903 346.51045 
L 882.916486 341.532274 
" style="fill: none; stroke: #000000; stroke-width: 1.5; stroke-linecap: round"/>
   </g>
   <g id="patch_23">
    <path d="M 148.32 449.67201 
Q 148.32 487.006098 148.32 522.663136 
" style="fill: none; stroke: #000000; stroke-width: 1.5; stroke-linecap: round"/>
    <path d="M 151.32 516.663136 
L 148.32 522.663136 
L 145.32 516.663136 
" style="fill: none; stroke: #000000; stroke-width: 1.5; stroke-linecap: round"/>
   </g>
   <g id="patch_24">
    <path d="M 223.699131 443.346739 
Q 359.998811 405.864327 494.68147 368.826596 
" style="fill: none; stroke: #000000; stroke-width: 1.5; stroke-linecap: round"/>
    <path d="M 488.100768 367.524918 
L 494.68147 368.826596 
L 489.691707 373.310151 
" style="fill: none; stroke: #000000; stroke-width: 1.5; stroke-linecap: round"/>
   </g>
   <g id="patch_25">
    <path d="M 851.996008 449.28958 
Q 836.279453 487.009313 821.207917 523.180999 
" style="fill: none; stroke: #000000; stroke-width: 1.5; stroke-linecap: round"/>
    <path d="M 826.28484 518.796384 
L 821.207917 523.180999 
L 820.746378 516.488692 
" style="fill: none; stroke: #000000; stroke-width: 1.5; stroke-linecap: round"/>
   </g>
   <g id="patch_26">
    <path d="M 571.028082 400.234575 
Q 562.860396 462.30899 554.911489 522.720686 
" style="fill: none; stroke: #000000; stroke-width: 1.5; stroke-linecap: round"/>
    <path d="M 558.668579 517.163324 
L 554.911489 522.720686 
L 552.719853 516.380597 
" style="fill: none; stroke: #000000; stroke-width: 1.5; stroke-linecap: round"/>
   </g>
   <g id="patch_27">
    <path d="M 205.974344 573.282393 
Q 315.897467 610.487143 424.232061 647.154236 
" style="fill: none; stroke: #000000; stroke-width: 1.5; stroke-linecap: round"/>
    <path d="M 419.510553 642.389011 
L 424.232061 647.154236 
L 417.586976 648.072307 
" style="fill: none; stroke: #000000; stroke-width: 1.5; stroke-linecap: round"/>
   </g>
   <g id="patch_28">
    <path d="M 867.06629 573.876925 
Q 792.179958 610.48802 718.800263 646.362538 
" style="fill: none; stroke: #000000; stroke-width: 1.5; stroke-linecap: round"/>
    <path d="M 725.5082 646.42243 
L 718.800263 646.362538 
L 722.872939 641.032124 
" style="fill: none; stroke: #000000; stroke-width: 1.5; stroke-linecap: round"/>
   </g>
   <g id="patch_29">
    <path d="M 555.720667 576.385866 
Q 562.859215 596.373801 569.43371 614.782388 
" style="fill: none; stroke: #000000; stroke-width: 1.5; stroke-linecap: round"/>
    <path d="M 570.240917 608.122927 
L 569.43371 614.782388 
L 564.590466 610.140945 
" style="fill: none; stroke: #000000; stroke-width: 1.5; stroke-linecap: round"/>
   </g>
   <g id="patch_30">
    <path d="M 571.68 682.521302 
Q 571.68 702.217236 571.68 720.236119 
" style="fill: none; stroke: #000000; stroke-width: 1.5; stroke-linecap: round"/>
    <path d="M 574.68 714.236119 
L 571.68 720.236119 
L 568.68 714.236119 
" style="fill: none; stroke: #000000; stroke-width: 1.5; stroke-linecap: round"/>
   </g>
   <g id="text_1">
    <!-- Detection Module - Detailed Architecture -->
    <g transform="translate(436.986875 42.48) scale(0.14 -0.14)">
     <defs>
      <path id="Arial-BoldMT-44" d="M 463 4581 
L 2153 4581 
Q 2725 4581 3025 4494 
Q 3428 4375 3715 4072 
Q 4003 3769 4153 3330 
Q 4303 2891 4303 2247 
Q 4303 1681 4163 1272 
Q 3991 772 3672 463 
Q 3431 228 3022 97 
Q 2716 0 2203 0 
L 463 0 
L 463 4581 
z
M 1388 3806 
L 1388 772 
L 2078 772 
Q 2466 772 2638 816 
Q 2863 872 3011 1006 
Q 3159 1141 3253 1448 
Q 3347 1756 3347 2288 
Q 3347 2819 3253 3103 
Q 3159 3388 2990 3547 
Q 2822 3706 2563 3763 
Q 2369 3806 1803 3806 
L 1388 3806 
z
" transform="scale(0.015625)"/>
      <path id="Arial-BoldMT-65" d="M 2381 1056 
L 3256 909 
Q 3088 428 2723 176 
Q 2359 -75 1813 -75 
Q 947 -75 531 491 
Q 203 944 203 1634 
Q 203 2459 634 2926 
Q 1066 3394 1725 3394 
Q 2466 3394 2894 2905 
Q 3322 2416 3303 1406 
L 1103 1406 
Q 1113 1016 1316 798 
Q 1519 581 1822 581 
Q 2028 581 2168 693 
Q 2309 806 2381 1056 
z
M 2431 1944 
Q 2422 2325 2234 2523 
Q 2047 2722 1778 2722 
Q 1491 2722 1303 2513 
Q 1116 2303 1119 1944 
L 2431 1944 
z
" transform="scale(0.015625)"/>
      <path id="Arial-BoldMT-74" d="M 1981 3319 
L 1981 2619 
L 1381 2619 
L 1381 1281 
Q 1381 875 1398 808 
Q 1416 741 1477 697 
Q 1538 653 1625 653 
Q 1747 653 1978 738 
L 2053 56 
Q 1747 -75 1359 -75 
Q 1122 -75 931 4 
Q 741 84 652 211 
Q 563 338 528 553 
Q 500 706 500 1172 
L 500 2619 
L 97 2619 
L 97 3319 
L 500 3319 
L 500 3978 
L 1381 4491 
L 1381 3319 
L 1981 3319 
z
" transform="scale(0.015625)"/>
      <path id="Arial-BoldMT-63" d="M 3353 2338 
L 2488 2181 
Q 2444 2441 2289 2572 
Q 2134 2703 1888 2703 
Q 1559 2703 1364 2476 
Q 1169 2250 1169 1719 
Q 1169 1128 1367 884 
Q 1566 641 1900 641 
Q 2150 641 2309 783 
Q 2469 925 2534 1272 
L 3397 1125 
Q 3263 531 2881 228 
Q 2500 -75 1859 -75 
Q 1131 -75 698 384 
Q 266 844 266 1656 
Q 266 2478 700 2936 
Q 1134 3394 1875 3394 
Q 2481 3394 2839 3133 
Q 3197 2872 3353 2338 
z
" transform="scale(0.015625)"/>
      <path id="Arial-BoldMT-69" d="M 459 3769 
L 459 4581 
L 1338 4581 
L 1338 3769 
L 459 3769 
z
M 459 0 
L 459 3319 
L 1338 3319 
L 1338 0 
L 459 0 
z
" transform="scale(0.015625)"/>
      <path id="Arial-BoldMT-6f" d="M 256 1706 
Q 256 2144 472 2553 
Q 688 2963 1083 3178 
Q 1478 3394 1966 3394 
Q 2719 3394 3200 2905 
Q 3681 2416 3681 1669 
Q 3681 916 3195 420 
Q 2709 -75 1972 -75 
Q 1516 -75 1102 131 
Q 688 338 472 736 
Q 256 1134 256 1706 
z
M 1156 1659 
Q 1156 1166 1390 903 
Q 1625 641 1969 641 
Q 2313 641 2545 903 
Q 2778 1166 2778 1666 
Q 2778 2153 2545 2415 
Q 2313 2678 1969 2678 
Q 1625 2678 1390 2415 
Q 1156 2153 1156 1659 
z
" transform="scale(0.015625)"/>
      <path id="Arial-BoldMT-6e" d="M 3478 0 
L 2600 0 
L 2600 1694 
Q 2600 2231 2544 2389 
Q 2488 2547 2361 2634 
Q 2234 2722 2056 2722 
Q 1828 2722 1647 2597 
Q 1466 2472 1398 2265 
Q 1331 2059 1331 1503 
L 1331 0 
L 453 0 
L 453 3319 
L 1269 3319 
L 1269 2831 
Q 1703 3394 2363 3394 
Q 2653 3394 2893 3289 
Q 3134 3184 3257 3021 
Q 3381 2859 3429 2653 
Q 3478 2447 3478 2063 
L 3478 0 
z
" transform="scale(0.015625)"/>
      <path id="Arial-BoldMT-20" transform="scale(0.015625)"/>
      <path id="Arial-BoldMT-4d" d="M 453 0 
L 453 4581 
L 1838 4581 
L 2669 1456 
L 3491 4581 
L 4878 4581 
L 4878 0 
L 4019 0 
L 4019 3606 
L 3109 0 
L 2219 0 
L 1313 3606 
L 1313 0 
L 453 0 
z
" transform="scale(0.015625)"/>
      <path id="Arial-BoldMT-64" d="M 3503 0 
L 2688 0 
L 2688 488 
Q 2484 203 2207 64 
Q 1931 -75 1650 -75 
Q 1078 -75 670 386 
Q 263 847 263 1672 
Q 263 2516 659 2955 
Q 1056 3394 1663 3394 
Q 2219 3394 2625 2931 
L 2625 4581 
L 3503 4581 
L 3503 0 
z
M 1159 1731 
Q 1159 1200 1306 963 
Q 1519 619 1900 619 
Q 2203 619 2415 876 
Q 2628 1134 2628 1647 
Q 2628 2219 2422 2470 
Q 2216 2722 1894 2722 
Q 1581 2722 1370 2473 
Q 1159 2225 1159 1731 
z
" transform="scale(0.015625)"/>
      <path id="Arial-BoldMT-75" d="M 2644 0 
L 2644 497 
Q 2463 231 2167 78 
Q 1872 -75 1544 -75 
Q 1209 -75 943 72 
Q 678 219 559 484 
Q 441 750 441 1219 
L 441 3319 
L 1319 3319 
L 1319 1794 
Q 1319 1094 1367 936 
Q 1416 778 1544 686 
Q 1672 594 1869 594 
Q 2094 594 2272 717 
Q 2450 841 2515 1023 
Q 2581 1206 2581 1919 
L 2581 3319 
L 3459 3319 
L 3459 0 
L 2644 0 
z
" transform="scale(0.015625)"/>
      <path id="Arial-BoldMT-6c" d="M 459 0 
L 459 4581 
L 1338 4581 
L 1338 0 
L 459 0 
z
" transform="scale(0.015625)"/>
      <path id="Arial-BoldMT-2d" d="M 359 1222 
L 359 2100 
L 2084 2100 
L 2084 1222 
L 359 1222 
z
" transform="scale(0.015625)"/>
      <path id="Arial-BoldMT-61" d="M 1116 2306 
L 319 2450 
Q 453 2931 781 3162 
Q 1109 3394 1756 3394 
Q 2344 3394 2631 3255 
Q 2919 3116 3036 2902 
Q 3153 2688 3153 2116 
L 3144 1091 
Q 3144 653 3186 445 
Q 3228 238 3344 0 
L 2475 0 
Q 2441 88 2391 259 
Q 2369 338 2359 363 
Q 2134 144 1878 34 
Q 1622 -75 1331 -75 
Q 819 -75 523 203 
Q 228 481 228 906 
Q 228 1188 362 1408 
Q 497 1628 739 1745 
Q 981 1863 1438 1950 
Q 2053 2066 2291 2166 
L 2291 2253 
Q 2291 2506 2166 2614 
Q 2041 2722 1694 2722 
Q 1459 2722 1328 2630 
Q 1197 2538 1116 2306 
z
M 2291 1594 
Q 2122 1538 1756 1459 
Q 1391 1381 1278 1306 
Q 1106 1184 1106 997 
Q 1106 813 1243 678 
Q 1381 544 1594 544 
Q 1831 544 2047 700 
Q 2206 819 2256 991 
Q 2291 1103 2291 1419 
L 2291 1594 
z
" transform="scale(0.015625)"/>
      <path id="Arial-BoldMT-41" d="M 4597 0 
L 3591 0 
L 3191 1041 
L 1359 1041 
L 981 0 
L 0 0 
L 1784 4581 
L 2763 4581 
L 4597 0 
z
M 2894 1813 
L 2263 3513 
L 1644 1813 
L 2894 1813 
z
" transform="scale(0.015625)"/>
      <path id="Arial-BoldMT-72" d="M 1300 0 
L 422 0 
L 422 3319 
L 1238 3319 
L 1238 2847 
Q 1447 3181 1614 3287 
Q 1781 3394 1994 3394 
Q 2294 3394 2572 3228 
L 2300 2463 
Q 2078 2606 1888 2606 
Q 1703 2606 1575 2504 
Q 1447 2403 1373 2137 
Q 1300 1872 1300 1025 
L 1300 0 
z
" transform="scale(0.015625)"/>
      <path id="Arial-BoldMT-68" d="M 1334 4581 
L 1334 2897 
Q 1759 3394 2350 3394 
Q 2653 3394 2897 3281 
Q 3141 3169 3264 2994 
Q 3388 2819 3433 2606 
Q 3478 2394 3478 1947 
L 3478 0 
L 2600 0 
L 2600 1753 
Q 2600 2275 2550 2415 
Q 2500 2556 2373 2639 
Q 2247 2722 2056 2722 
Q 1838 2722 1666 2615 
Q 1494 2509 1414 2295 
Q 1334 2081 1334 1663 
L 1334 0 
L 456 0 
L 456 4581 
L 1334 4581 
z
" transform="scale(0.015625)"/>
     </defs>
     <use xlink:href="#Arial-BoldMT-44"/>
     <use xlink:href="#Arial-BoldMT-65" transform="translate(72.216797 0)"/>
     <use xlink:href="#Arial-BoldMT-74" transform="translate(127.832031 0)"/>
     <use xlink:href="#Arial-BoldMT-65" transform="translate(161.132812 0)"/>
     <use xlink:href="#Arial-BoldMT-63" transform="translate(216.748047 0)"/>
     <use xlink:href="#Arial-BoldMT-74" transform="translate(272.363281 0)"/>
     <use xlink:href="#Arial-BoldMT-69" transform="translate(305.664062 0)"/>
     <use xlink:href="#Arial-BoldMT-6f" transform="translate(333.447266 0)"/>
     <use xlink:href="#Arial-BoldMT-6e" transform="translate(394.53125 0)"/>
     <use xlink:href="#Arial-BoldMT-20" transform="translate(455.615234 0)"/>
     <use xlink:href="#Arial-BoldMT-4d" transform="translate(483.398438 0)"/>
     <use xlink:href="#Arial-BoldMT-6f" transform="translate(566.699219 0)"/>
     <use xlink:href="#Arial-BoldMT-64" transform="translate(627.783203 0)"/>
     <use xlink:href="#Arial-BoldMT-75" transform="translate(688.867188 0)"/>
     <use xlink:href="#Arial-BoldMT-6c" transform="translate(749.951172 0)"/>
     <use xlink:href="#Arial-BoldMT-65" transform="translate(777.734375 0)"/>
     <use xlink:href="#Arial-BoldMT-20" transform="translate(833.349609 0)"/>
     <use xlink:href="#Arial-BoldMT-2d" transform="translate(861.132812 0)"/>
     <use xlink:href="#Arial-BoldMT-20" transform="translate(894.433594 0)"/>
     <use xlink:href="#Arial-BoldMT-44" transform="translate(922.216797 0)"/>
     <use xlink:href="#Arial-BoldMT-65" transform="translate(994.433594 0)"/>
     <use xlink:href="#Arial-BoldMT-74" transform="translate(1050.048828 0)"/>
     <use xlink:href="#Arial-BoldMT-61" transform="translate(1083.349609 0)"/>
     <use xlink:href="#Arial-BoldMT-69" transform="translate(1138.964844 0)"/>
     <use xlink:href="#Arial-BoldMT-6c" transform="translate(1166.748047 0)"/>
     <use xlink:href="#Arial-BoldMT-65" transform="translate(1194.53125 0)"/>
     <use xlink:href="#Arial-BoldMT-64" transform="translate(1250.146484 0)"/>
     <use xlink:href="#Arial-BoldMT-20" transform="translate(1311.230469 0)"/>
     <use xlink:href="#Arial-BoldMT-41" transform="translate(1335.263672 0)"/>
     <use xlink:href="#Arial-BoldMT-72" transform="translate(1407.480469 0)"/>
     <use xlink:href="#Arial-BoldMT-63" transform="translate(1446.396484 0)"/>
     <use xlink:href="#Arial-BoldMT-68" transform="translate(1502.011719 0)"/>
     <use xlink:href="#Arial-BoldMT-69" transform="translate(1563.095703 0)"/>
     <use xlink:href="#Arial-BoldMT-74" transform="translate(1590.878906 0)"/>
     <use xlink:href="#Arial-BoldMT-65" transform="translate(1624.179688 0)"/>
     <use xlink:href="#Arial-BoldMT-63" transform="translate(1679.794922 0)"/>
     <use xlink:href="#Arial-BoldMT-74" transform="translate(1735.410156 0)"/>
     <use xlink:href="#Arial-BoldMT-75" transform="translate(1768.710938 0)"/>
     <use xlink:href="#Arial-BoldMT-72" transform="translate(1829.794922 0)"/>
     <use xlink:href="#Arial-BoldMT-65" transform="translate(1868.710938 0)"/>
    </g>
   </g>
   <g id="text_2">
    <!-- Text Raw -->
    <g style="fill: #ffffff" transform="translate(203.773672 118.116422) scale(0.07 -0.07)">
     <defs>
      <path id="Arial-BoldMT-54" d="M 1497 0 
L 1497 3806 
L 138 3806 
L 138 4581 
L 3778 4581 
L 3778 3806 
L 2422 3806 
L 2422 0 
L 1497 0 
z
" transform="scale(0.015625)"/>
      <path id="Arial-BoldMT-78" d="M 38 0 
L 1234 1709 
L 88 3319 
L 1159 3319 
L 1747 2406 
L 2366 3319 
L 3397 3319 
L 2272 1747 
L 3500 0 
L 2422 0 
L 1747 1028 
L 1066 0 
L 38 0 
z
" transform="scale(0.015625)"/>
      <path id="Arial-BoldMT-52" d="M 469 0 
L 469 4581 
L 2416 4581 
Q 3150 4581 3483 4457 
Q 3816 4334 4016 4018 
Q 4216 3703 4216 3297 
Q 4216 2781 3912 2445 
Q 3609 2109 3006 2022 
Q 3306 1847 3501 1637 
Q 3697 1428 4028 894 
L 4588 0 
L 3481 0 
L 2813 997 
Q 2456 1531 2325 1670 
Q 2194 1809 2047 1861 
Q 1900 1913 1581 1913 
L 1394 1913 
L 1394 0 
L 469 0 
z
M 1394 2644 
L 2078 2644 
Q 2744 2644 2909 2700 
Q 3075 2756 3169 2893 
Q 3263 3031 3263 3238 
Q 3263 3469 3139 3611 
Q 3016 3753 2791 3791 
Q 2678 3806 2116 3806 
L 1394 3806 
L 1394 2644 
z
" transform="scale(0.015625)"/>
      <path id="Arial-BoldMT-77" d="M 1078 0 
L 28 3319 
L 881 3319 
L 1503 1144 
L 2075 3319 
L 2922 3319 
L 3475 1144 
L 4109 3319 
L 4975 3319 
L 3909 0 
L 3066 0 
L 2494 2134 
L 1931 0 
L 1078 0 
z
" transform="scale(0.015625)"/>
     </defs>
     <use xlink:href="#Arial-BoldMT-54"/>
     <use xlink:href="#Arial-BoldMT-65" transform="translate(53.708984 0)"/>
     <use xlink:href="#Arial-BoldMT-78" transform="translate(109.324219 0)"/>
     <use xlink:href="#Arial-BoldMT-74" transform="translate(164.939453 0)"/>
     <use xlink:href="#Arial-BoldMT-20" transform="translate(198.240234 0)"/>
     <use xlink:href="#Arial-BoldMT-52" transform="translate(226.023438 0)"/>
     <use xlink:href="#Arial-BoldMT-61" transform="translate(298.240234 0)"/>
     <use xlink:href="#Arial-BoldMT-77" transform="translate(353.855469 0)"/>
    </g>
    <!-- (B, 30, 200) -->
    <g style="fill: #ffffff" transform="translate(200.400547 125.612766) scale(0.07 -0.07)">
     <defs>
      <path id="Arial-BoldMT-28" d="M 1916 -1347 
L 1313 -1347 
Q 834 -625 584 153 
Q 334 931 334 1659 
Q 334 2563 644 3369 
Q 913 4069 1325 4659 
L 1925 4659 
Q 1497 3713 1336 3048 
Q 1175 2384 1175 1641 
Q 1175 1128 1270 590 
Q 1366 53 1531 -431 
Q 1641 -750 1916 -1347 
z
" transform="scale(0.015625)"/>
      <path id="Arial-BoldMT-42" d="M 469 4581 
L 2300 4581 
Q 2844 4581 3111 4536 
Q 3378 4491 3589 4347 
Q 3800 4203 3940 3964 
Q 4081 3725 4081 3428 
Q 4081 3106 3907 2837 
Q 3734 2569 3438 2434 
Q 3856 2313 4081 2019 
Q 4306 1725 4306 1328 
Q 4306 1016 4161 720 
Q 4016 425 3764 248 
Q 3513 72 3144 31 
Q 2913 6 2028 0 
L 469 0 
L 469 4581 
z
M 1394 3819 
L 1394 2759 
L 2000 2759 
Q 2541 2759 2672 2775 
Q 2909 2803 3045 2939 
Q 3181 3075 3181 3297 
Q 3181 3509 3064 3642 
Q 2947 3775 2716 3803 
Q 2578 3819 1925 3819 
L 1394 3819 
z
M 1394 1997 
L 1394 772 
L 2250 772 
Q 2750 772 2884 800 
Q 3091 838 3220 983 
Q 3350 1128 3350 1372 
Q 3350 1578 3250 1722 
Q 3150 1866 2961 1931 
Q 2772 1997 2141 1997 
L 1394 1997 
z
" transform="scale(0.015625)"/>
      <path id="Arial-BoldMT-2c" d="M 438 878 
L 1316 878 
L 1316 250 
Q 1316 -131 1250 -351 
Q 1184 -572 1001 -747 
Q 819 -922 538 -1022 
L 366 -659 
Q 631 -572 743 -419 
Q 856 -266 863 0 
L 438 0 
L 438 878 
z
" transform="scale(0.015625)"/>
      <path id="Arial-BoldMT-33" d="M 241 1216 
L 1091 1319 
Q 1131 994 1309 822 
Q 1488 650 1741 650 
Q 2013 650 2198 856 
Q 2384 1063 2384 1413 
Q 2384 1744 2206 1937 
Q 2028 2131 1772 2131 
Q 1603 2131 1369 2066 
L 1466 2781 
Q 1822 2772 2009 2936 
Q 2197 3100 2197 3372 
Q 2197 3603 2059 3740 
Q 1922 3878 1694 3878 
Q 1469 3878 1309 3722 
Q 1150 3566 1116 3266 
L 306 3403 
Q 391 3819 561 4067 
Q 731 4316 1036 4458 
Q 1341 4600 1719 4600 
Q 2366 4600 2756 4188 
Q 3078 3850 3078 3425 
Q 3078 2822 2419 2463 
Q 2813 2378 3048 2084 
Q 3284 1791 3284 1375 
Q 3284 772 2843 347 
Q 2403 -78 1747 -78 
Q 1125 -78 715 280 
Q 306 638 241 1216 
z
" transform="scale(0.015625)"/>
      <path id="Arial-BoldMT-30" d="M 1756 4600 
Q 2422 4600 2797 4125 
Q 3244 3563 3244 2259 
Q 3244 959 2794 391 
Q 2422 -78 1756 -78 
Q 1088 -78 678 436 
Q 269 950 269 2269 
Q 269 3563 719 4131 
Q 1091 4600 1756 4600 
z
M 1756 3872 
Q 1597 3872 1472 3770 
Q 1347 3669 1278 3406 
Q 1188 3066 1188 2259 
Q 1188 1453 1269 1151 
Q 1350 850 1473 750 
Q 1597 650 1756 650 
Q 1916 650 2041 751 
Q 2166 853 2234 1116 
Q 2325 1453 2325 2259 
Q 2325 3066 2244 3367 
Q 2163 3669 2039 3770 
Q 1916 3872 1756 3872 
z
" transform="scale(0.015625)"/>
      <path id="Arial-BoldMT-32" d="M 3238 816 
L 3238 0 
L 159 0 
Q 209 463 459 877 
Q 709 1291 1447 1975 
Q 2041 2528 2175 2725 
Q 2356 2997 2356 3263 
Q 2356 3556 2198 3714 
Q 2041 3872 1763 3872 
Q 1488 3872 1325 3706 
Q 1163 3541 1138 3156 
L 263 3244 
Q 341 3969 753 4284 
Q 1166 4600 1784 4600 
Q 2463 4600 2850 4234 
Q 3238 3869 3238 3325 
Q 3238 3016 3127 2736 
Q 3016 2456 2775 2150 
Q 2616 1947 2200 1565 
Q 1784 1184 1673 1059 
Q 1563 934 1494 816 
L 3238 816 
z
" transform="scale(0.015625)"/>
      <path id="Arial-BoldMT-29" d="M 216 -1347 
Q 475 -791 581 -494 
Q 688 -197 778 190 
Q 869 578 912 926 
Q 956 1275 956 1641 
Q 956 2384 797 3048 
Q 638 3713 209 4659 
L 806 4659 
Q 1278 3988 1539 3234 
Q 1800 2481 1800 1706 
Q 1800 1053 1594 306 
Q 1359 -531 822 -1347 
L 216 -1347 
z
" transform="scale(0.015625)"/>
     </defs>
     <use xlink:href="#Arial-BoldMT-28"/>
     <use xlink:href="#Arial-BoldMT-42" transform="translate(33.300781 0)"/>
     <use xlink:href="#Arial-BoldMT-2c" transform="translate(105.517578 0)"/>
     <use xlink:href="#Arial-BoldMT-20" transform="translate(133.300781 0)"/>
     <use xlink:href="#Arial-BoldMT-33" transform="translate(161.083984 0)"/>
     <use xlink:href="#Arial-BoldMT-30" transform="translate(216.699219 0)"/>
     <use xlink:href="#Arial-BoldMT-2c" transform="translate(272.314453 0)"/>
     <use xlink:href="#Arial-BoldMT-20" transform="translate(300.097656 0)"/>
     <use xlink:href="#Arial-BoldMT-32" transform="translate(327.880859 0)"/>
     <use xlink:href="#Arial-BoldMT-30" transform="translate(383.496094 0)"/>
     <use xlink:href="#Arial-BoldMT-30" transform="translate(439.111328 0)"/>
     <use xlink:href="#Arial-BoldMT-29" transform="translate(494.726562 0)"/>
    </g>
   </g>
   <g id="text_3">
    <!-- Image Raw -->
    <g style="fill: #ffffff" transform="translate(906.196328 118.070484) scale(0.07 -0.07)">
     <defs>
      <path id="Arial-BoldMT-49" d="M 438 0 
L 438 4581 
L 1363 4581 
L 1363 0 
L 438 0 
z
" transform="scale(0.015625)"/>
      <path id="Arial-BoldMT-6d" d="M 394 3319 
L 1203 3319 
L 1203 2866 
Q 1638 3394 2238 3394 
Q 2556 3394 2790 3262 
Q 3025 3131 3175 2866 
Q 3394 3131 3647 3262 
Q 3900 3394 4188 3394 
Q 4553 3394 4806 3245 
Q 5059 3097 5184 2809 
Q 5275 2597 5275 2122 
L 5275 0 
L 4397 0 
L 4397 1897 
Q 4397 2391 4306 2534 
Q 4184 2722 3931 2722 
Q 3747 2722 3584 2609 
Q 3422 2497 3350 2280 
Q 3278 2063 3278 1594 
L 3278 0 
L 2400 0 
L 2400 1819 
Q 2400 2303 2353 2443 
Q 2306 2584 2207 2653 
Q 2109 2722 1941 2722 
Q 1738 2722 1575 2612 
Q 1413 2503 1342 2297 
Q 1272 2091 1272 1613 
L 1272 0 
L 394 0 
L 394 3319 
z
" transform="scale(0.015625)"/>
      <path id="Arial-BoldMT-67" d="M 378 -219 
L 1381 -341 
Q 1406 -516 1497 -581 
Q 1622 -675 1891 -675 
Q 2234 -675 2406 -572 
Q 2522 -503 2581 -350 
Q 2622 -241 2622 53 
L 2622 538 
Q 2228 0 1628 0 
Q 959 0 569 566 
Q 263 1013 263 1678 
Q 263 2513 664 2953 
Q 1066 3394 1663 3394 
Q 2278 3394 2678 2853 
L 2678 3319 
L 3500 3319 
L 3500 341 
Q 3500 -247 3403 -537 
Q 3306 -828 3131 -993 
Q 2956 -1159 2664 -1253 
Q 2372 -1347 1925 -1347 
Q 1081 -1347 728 -1058 
Q 375 -769 375 -325 
Q 375 -281 378 -219 
z
M 1163 1728 
Q 1163 1200 1367 954 
Q 1572 709 1872 709 
Q 2194 709 2416 961 
Q 2638 1213 2638 1706 
Q 2638 2222 2425 2472 
Q 2213 2722 1888 2722 
Q 1572 2722 1367 2476 
Q 1163 2231 1163 1728 
z
" transform="scale(0.015625)"/>
     </defs>
     <use xlink:href="#Arial-BoldMT-49"/>
     <use xlink:href="#Arial-BoldMT-6d" transform="translate(27.783203 0)"/>
     <use xlink:href="#Arial-BoldMT-61" transform="translate(116.699219 0)"/>
     <use xlink:href="#Arial-BoldMT-67" transform="translate(172.314453 0)"/>
     <use xlink:href="#Arial-BoldMT-65" transform="translate(233.398438 0)"/>
     <use xlink:href="#Arial-BoldMT-20" transform="translate(289.013672 0)"/>
     <use xlink:href="#Arial-BoldMT-52" transform="translate(316.796875 0)"/>
     <use xlink:href="#Arial-BoldMT-61" transform="translate(389.013672 0)"/>
     <use xlink:href="#Arial-BoldMT-77" transform="translate(444.628906 0)"/>
    </g>
    <!-- (B, 512) -->
    <g style="fill: #ffffff" transform="translate(911.837891 125.658703) scale(0.07 -0.07)">
     <defs>
      <path id="Arial-BoldMT-35" d="M 284 1178 
L 1159 1269 
Q 1197 972 1381 798 
Q 1566 625 1806 625 
Q 2081 625 2272 848 
Q 2463 1072 2463 1522 
Q 2463 1944 2273 2155 
Q 2084 2366 1781 2366 
Q 1403 2366 1103 2031 
L 391 2134 
L 841 4519 
L 3163 4519 
L 3163 3697 
L 1506 3697 
L 1369 2919 
Q 1663 3066 1969 3066 
Q 2553 3066 2959 2641 
Q 3366 2216 3366 1538 
Q 3366 972 3038 528 
Q 2591 -78 1797 -78 
Q 1163 -78 763 262 
Q 363 603 284 1178 
z
" transform="scale(0.015625)"/>
      <path id="Arial-BoldMT-31" d="M 2519 0 
L 1641 0 
L 1641 3309 
Q 1159 2859 506 2644 
L 506 3441 
Q 850 3553 1253 3867 
Q 1656 4181 1806 4600 
L 2519 4600 
L 2519 0 
z
" transform="scale(0.015625)"/>
     </defs>
     <use xlink:href="#Arial-BoldMT-28"/>
     <use xlink:href="#Arial-BoldMT-42" transform="translate(33.300781 0)"/>
     <use xlink:href="#Arial-BoldMT-2c" transform="translate(105.517578 0)"/>
     <use xlink:href="#Arial-BoldMT-20" transform="translate(133.300781 0)"/>
     <use xlink:href="#Arial-BoldMT-35" transform="translate(161.083984 0)"/>
     <use xlink:href="#Arial-BoldMT-31" transform="translate(216.699219 0)"/>
     <use xlink:href="#Arial-BoldMT-32" transform="translate(272.314453 0)"/>
     <use xlink:href="#Arial-BoldMT-29" transform="translate(327.929688 0)"/>
    </g>
   </g>
   <g id="text_4">
    <!-- Encoding Part -->
    <g style="fill: #ffffff" transform="translate(547.957109 192.424594) scale(0.07 -0.07)">
     <defs>
      <path id="Arial-BoldMT-45" d="M 466 0 
L 466 4581 
L 3863 4581 
L 3863 3806 
L 1391 3806 
L 1391 2791 
L 3691 2791 
L 3691 2019 
L 1391 2019 
L 1391 772 
L 3950 772 
L 3950 0 
L 466 0 
z
" transform="scale(0.015625)"/>
      <path id="Arial-BoldMT-50" d="M 466 0 
L 466 4581 
L 1950 4581 
Q 2794 4581 3050 4513 
Q 3444 4409 3709 4064 
Q 3975 3719 3975 3172 
Q 3975 2750 3822 2462 
Q 3669 2175 3433 2011 
Q 3197 1847 2953 1794 
Q 2622 1728 1994 1728 
L 1391 1728 
L 1391 0 
L 466 0 
z
M 1391 3806 
L 1391 2506 
L 1897 2506 
Q 2444 2506 2628 2578 
Q 2813 2650 2917 2803 
Q 3022 2956 3022 3159 
Q 3022 3409 2875 3571 
Q 2728 3734 2503 3775 
Q 2338 3806 1838 3806 
L 1391 3806 
z
" transform="scale(0.015625)"/>
     </defs>
     <use xlink:href="#Arial-BoldMT-45"/>
     <use xlink:href="#Arial-BoldMT-6e" transform="translate(66.699219 0)"/>
     <use xlink:href="#Arial-BoldMT-63" transform="translate(127.783203 0)"/>
     <use xlink:href="#Arial-BoldMT-6f" transform="translate(183.398438 0)"/>
     <use xlink:href="#Arial-BoldMT-64" transform="translate(244.482422 0)"/>
     <use xlink:href="#Arial-BoldMT-69" transform="translate(305.566406 0)"/>
     <use xlink:href="#Arial-BoldMT-6e" transform="translate(333.349609 0)"/>
     <use xlink:href="#Arial-BoldMT-67" transform="translate(394.433594 0)"/>
     <use xlink:href="#Arial-BoldMT-20" transform="translate(455.517578 0)"/>
     <use xlink:href="#Arial-BoldMT-50" transform="translate(483.300781 0)"/>
     <use xlink:href="#Arial-BoldMT-61" transform="translate(550 0)"/>
     <use xlink:href="#Arial-BoldMT-72" transform="translate(605.615234 0)"/>
     <use xlink:href="#Arial-BoldMT-74" transform="translate(644.53125 0)"/>
    </g>
   </g>
   <g id="text_5">
    <!-- Text Prime -->
    <g style="fill: #ffffff" transform="translate(254.162187 266.292422) scale(0.07 -0.07)">
     <use xlink:href="#Arial-BoldMT-54"/>
     <use xlink:href="#Arial-BoldMT-65" transform="translate(53.708984 0)"/>
     <use xlink:href="#Arial-BoldMT-78" transform="translate(109.324219 0)"/>
     <use xlink:href="#Arial-BoldMT-74" transform="translate(164.939453 0)"/>
     <use xlink:href="#Arial-BoldMT-20" transform="translate(198.240234 0)"/>
     <use xlink:href="#Arial-BoldMT-50" transform="translate(226.023438 0)"/>
     <use xlink:href="#Arial-BoldMT-72" transform="translate(292.722656 0)"/>
     <use xlink:href="#Arial-BoldMT-69" transform="translate(331.638672 0)"/>
     <use xlink:href="#Arial-BoldMT-6d" transform="translate(359.421875 0)"/>
     <use xlink:href="#Arial-BoldMT-65" transform="translate(448.337891 0)"/>
    </g>
    <!-- (B, 128) -->
    <g style="fill: #ffffff" transform="translate(259.157891 273.788766) scale(0.07 -0.07)">
     <defs>
      <path id="Arial-BoldMT-38" d="M 1025 2472 
Q 684 2616 529 2867 
Q 375 3119 375 3419 
Q 375 3931 733 4265 
Q 1091 4600 1750 4600 
Q 2403 4600 2764 4265 
Q 3125 3931 3125 3419 
Q 3125 3100 2959 2851 
Q 2794 2603 2494 2472 
Q 2875 2319 3073 2025 
Q 3272 1731 3272 1347 
Q 3272 713 2867 316 
Q 2463 -81 1791 -81 
Q 1166 -81 750 247 
Q 259 634 259 1309 
Q 259 1681 443 1992 
Q 628 2303 1025 2472 
z
M 1206 3356 
Q 1206 3094 1354 2947 
Q 1503 2800 1750 2800 
Q 2000 2800 2150 2948 
Q 2300 3097 2300 3359 
Q 2300 3606 2151 3754 
Q 2003 3903 1759 3903 
Q 1506 3903 1356 3753 
Q 1206 3603 1206 3356 
z
M 1125 1394 
Q 1125 1031 1311 828 
Q 1497 625 1775 625 
Q 2047 625 2225 820 
Q 2403 1016 2403 1384 
Q 2403 1706 2222 1901 
Q 2041 2097 1763 2097 
Q 1441 2097 1283 1875 
Q 1125 1653 1125 1394 
z
" transform="scale(0.015625)"/>
     </defs>
     <use xlink:href="#Arial-BoldMT-28"/>
     <use xlink:href="#Arial-BoldMT-42" transform="translate(33.300781 0)"/>
     <use xlink:href="#Arial-BoldMT-2c" transform="translate(105.517578 0)"/>
     <use xlink:href="#Arial-BoldMT-20" transform="translate(133.300781 0)"/>
     <use xlink:href="#Arial-BoldMT-31" transform="translate(161.083984 0)"/>
     <use xlink:href="#Arial-BoldMT-32" transform="translate(216.699219 0)"/>
     <use xlink:href="#Arial-BoldMT-38" transform="translate(272.314453 0)"/>
     <use xlink:href="#Arial-BoldMT-29" transform="translate(327.929688 0)"/>
    </g>
   </g>
   <g id="text_6">
    <!-- Image Prime -->
    <g style="fill: #ffffff" transform="translate(850.744844 266.246484) scale(0.07 -0.07)">
     <use xlink:href="#Arial-BoldMT-49"/>
     <use xlink:href="#Arial-BoldMT-6d" transform="translate(27.783203 0)"/>
     <use xlink:href="#Arial-BoldMT-61" transform="translate(116.699219 0)"/>
     <use xlink:href="#Arial-BoldMT-67" transform="translate(172.314453 0)"/>
     <use xlink:href="#Arial-BoldMT-65" transform="translate(233.398438 0)"/>
     <use xlink:href="#Arial-BoldMT-20" transform="translate(289.013672 0)"/>
     <use xlink:href="#Arial-BoldMT-50" transform="translate(316.796875 0)"/>
     <use xlink:href="#Arial-BoldMT-72" transform="translate(383.496094 0)"/>
     <use xlink:href="#Arial-BoldMT-69" transform="translate(422.412109 0)"/>
     <use xlink:href="#Arial-BoldMT-6d" transform="translate(450.195312 0)"/>
     <use xlink:href="#Arial-BoldMT-65" transform="translate(539.111328 0)"/>
    </g>
    <!-- (B, 128) -->
    <g style="fill: #ffffff" transform="translate(858.917891 273.834703) scale(0.07 -0.07)">
     <use xlink:href="#Arial-BoldMT-28"/>
     <use xlink:href="#Arial-BoldMT-42" transform="translate(33.300781 0)"/>
     <use xlink:href="#Arial-BoldMT-2c" transform="translate(105.517578 0)"/>
     <use xlink:href="#Arial-BoldMT-20" transform="translate(133.300781 0)"/>
     <use xlink:href="#Arial-BoldMT-31" transform="translate(161.083984 0)"/>
     <use xlink:href="#Arial-BoldMT-32" transform="translate(216.699219 0)"/>
     <use xlink:href="#Arial-BoldMT-38" transform="translate(272.314453 0)"/>
     <use xlink:href="#Arial-BoldMT-29" transform="translate(327.929688 0)"/>
    </g>
   </g>
   <g id="text_7">
    <!-- Unimodal Detection -->
    <g style="fill: #ffffff" transform="translate(150.738281 354.758531) scale(0.07 -0.07)">
     <defs>
      <path id="Arial-BoldMT-55" d="M 459 4581 
L 1384 4581 
L 1384 2100 
Q 1384 1509 1419 1334 
Q 1478 1053 1701 883 
Q 1925 713 2313 713 
Q 2706 713 2906 873 
Q 3106 1034 3147 1268 
Q 3188 1503 3188 2047 
L 3188 4581 
L 4113 4581 
L 4113 2175 
Q 4113 1350 4038 1009 
Q 3963 669 3761 434 
Q 3559 200 3221 61 
Q 2884 -78 2341 -78 
Q 1684 -78 1345 73 
Q 1006 225 809 467 
Q 613 709 550 975 
Q 459 1369 459 2138 
L 459 4581 
z
" transform="scale(0.015625)"/>
     </defs>
     <use xlink:href="#Arial-BoldMT-55"/>
     <use xlink:href="#Arial-BoldMT-6e" transform="translate(72.216797 0)"/>
     <use xlink:href="#Arial-BoldMT-69" transform="translate(133.300781 0)"/>
     <use xlink:href="#Arial-BoldMT-6d" transform="translate(161.083984 0)"/>
     <use xlink:href="#Arial-BoldMT-6f" transform="translate(250 0)"/>
     <use xlink:href="#Arial-BoldMT-64" transform="translate(311.083984 0)"/>
     <use xlink:href="#Arial-BoldMT-61" transform="translate(372.167969 0)"/>
     <use xlink:href="#Arial-BoldMT-6c" transform="translate(427.783203 0)"/>
     <use xlink:href="#Arial-BoldMT-20" transform="translate(455.566406 0)"/>
     <use xlink:href="#Arial-BoldMT-44" transform="translate(483.349609 0)"/>
     <use xlink:href="#Arial-BoldMT-65" transform="translate(555.566406 0)"/>
     <use xlink:href="#Arial-BoldMT-74" transform="translate(611.181641 0)"/>
     <use xlink:href="#Arial-BoldMT-65" transform="translate(644.482422 0)"/>
     <use xlink:href="#Arial-BoldMT-63" transform="translate(700.097656 0)"/>
     <use xlink:href="#Arial-BoldMT-74" transform="translate(755.712891 0)"/>
     <use xlink:href="#Arial-BoldMT-69" transform="translate(789.013672 0)"/>
     <use xlink:href="#Arial-BoldMT-6f" transform="translate(816.796875 0)"/>
     <use xlink:href="#Arial-BoldMT-6e" transform="translate(877.880859 0)"/>
    </g>
   </g>
   <g id="text_8">
    <!-- Text Uni -->
    <g style="fill: #ffffff" transform="translate(134.772266 425.052422) scale(0.07 -0.07)">
     <use xlink:href="#Arial-BoldMT-54"/>
     <use xlink:href="#Arial-BoldMT-65" transform="translate(53.708984 0)"/>
     <use xlink:href="#Arial-BoldMT-78" transform="translate(109.324219 0)"/>
     <use xlink:href="#Arial-BoldMT-74" transform="translate(164.939453 0)"/>
     <use xlink:href="#Arial-BoldMT-20" transform="translate(198.240234 0)"/>
     <use xlink:href="#Arial-BoldMT-55" transform="translate(226.023438 0)"/>
     <use xlink:href="#Arial-BoldMT-6e" transform="translate(298.240234 0)"/>
     <use xlink:href="#Arial-BoldMT-69" transform="translate(359.324219 0)"/>
    </g>
    <!-- (128→16) -->
    <g style="fill: #ffffff" transform="translate(132.757578 432.548766) scale(0.07 -0.07)">
     <defs>
      <path id="Arial-BoldMT-2192" d="M 4859 2738 
Q 5275 2284 5578 2048 
Q 5881 1813 6150 1697 
L 6150 1556 
Q 5841 1406 5550 1173 
Q 5259 941 4856 491 
L 4616 491 
Q 4909 1119 5231 1456 
L 247 1456 
L 247 1772 
L 5231 1772 
Q 4994 2072 4900 2220 
Q 4806 2369 4622 2738 
L 4859 2738 
z
" transform="scale(0.015625)"/>
      <path id="Arial-BoldMT-36" d="M 3247 3459 
L 2397 3366 
Q 2366 3628 2234 3753 
Q 2103 3878 1894 3878 
Q 1616 3878 1423 3628 
Q 1231 3378 1181 2588 
Q 1509 2975 1997 2975 
Q 2547 2975 2939 2556 
Q 3331 2138 3331 1475 
Q 3331 772 2918 347 
Q 2506 -78 1859 -78 
Q 1166 -78 719 461 
Q 272 1000 272 2228 
Q 272 3488 737 4044 
Q 1203 4600 1947 4600 
Q 2469 4600 2811 4308 
Q 3153 4016 3247 3459 
z
M 1256 1544 
Q 1256 1116 1453 883 
Q 1650 650 1903 650 
Q 2147 650 2309 840 
Q 2472 1031 2472 1466 
Q 2472 1913 2297 2120 
Q 2122 2328 1859 2328 
Q 1606 2328 1431 2129 
Q 1256 1931 1256 1544 
z
" transform="scale(0.015625)"/>
     </defs>
     <use xlink:href="#Arial-BoldMT-28"/>
     <use xlink:href="#Arial-BoldMT-31" transform="translate(33.300781 0)"/>
     <use xlink:href="#Arial-BoldMT-32" transform="translate(88.916016 0)"/>
     <use xlink:href="#Arial-BoldMT-38" transform="translate(144.53125 0)"/>
     <use xlink:href="#Arial-BoldMT-2192" transform="translate(200.146484 0)"/>
     <use xlink:href="#Arial-BoldMT-31" transform="translate(300.146484 0)"/>
     <use xlink:href="#Arial-BoldMT-36" transform="translate(355.761719 0)"/>
     <use xlink:href="#Arial-BoldMT-29" transform="translate(411.376953 0)"/>
    </g>
   </g>
   <g id="text_9">
    <!-- Image Uni -->
    <g style="fill: #ffffff" transform="translate(202.154922 425.006484) scale(0.07 -0.07)">
     <use xlink:href="#Arial-BoldMT-49"/>
     <use xlink:href="#Arial-BoldMT-6d" transform="translate(27.783203 0)"/>
     <use xlink:href="#Arial-BoldMT-61" transform="translate(116.699219 0)"/>
     <use xlink:href="#Arial-BoldMT-67" transform="translate(172.314453 0)"/>
     <use xlink:href="#Arial-BoldMT-65" transform="translate(233.398438 0)"/>
     <use xlink:href="#Arial-BoldMT-20" transform="translate(289.013672 0)"/>
     <use xlink:href="#Arial-BoldMT-55" transform="translate(316.796875 0)"/>
     <use xlink:href="#Arial-BoldMT-6e" transform="translate(389.013672 0)"/>
     <use xlink:href="#Arial-BoldMT-69" transform="translate(450.097656 0)"/>
    </g>
    <!-- (128→16) -->
    <g style="fill: #ffffff" transform="translate(203.317578 432.594703) scale(0.07 -0.07)">
     <use xlink:href="#Arial-BoldMT-28"/>
     <use xlink:href="#Arial-BoldMT-31" transform="translate(33.300781 0)"/>
     <use xlink:href="#Arial-BoldMT-32" transform="translate(88.916016 0)"/>
     <use xlink:href="#Arial-BoldMT-38" transform="translate(144.53125 0)"/>
     <use xlink:href="#Arial-BoldMT-2192" transform="translate(200.146484 0)"/>
     <use xlink:href="#Arial-BoldMT-31" transform="translate(300.146484 0)"/>
     <use xlink:href="#Arial-BoldMT-36" transform="translate(355.761719 0)"/>
     <use xlink:href="#Arial-BoldMT-29" transform="translate(411.376953 0)"/>
    </g>
   </g>
   <g id="text_10">
    <!-- Text Uni SE -->
    <g style="fill: #ffffff" transform="translate(129.130703 467.388422) scale(0.07 -0.07)">
     <defs>
      <path id="Arial-BoldMT-53" d="M 231 1491 
L 1131 1578 
Q 1213 1125 1461 912 
Q 1709 700 2131 700 
Q 2578 700 2804 889 
Q 3031 1078 3031 1331 
Q 3031 1494 2936 1608 
Q 2841 1722 2603 1806 
Q 2441 1863 1863 2006 
Q 1119 2191 819 2459 
Q 397 2838 397 3381 
Q 397 3731 595 4036 
Q 794 4341 1167 4500 
Q 1541 4659 2069 4659 
Q 2931 4659 3367 4281 
Q 3803 3903 3825 3272 
L 2900 3231 
Q 2841 3584 2645 3739 
Q 2450 3894 2059 3894 
Q 1656 3894 1428 3728 
Q 1281 3622 1281 3444 
Q 1281 3281 1419 3166 
Q 1594 3019 2269 2859 
Q 2944 2700 3267 2529 
Q 3591 2359 3773 2064 
Q 3956 1769 3956 1334 
Q 3956 941 3737 597 
Q 3519 253 3119 86 
Q 2719 -81 2122 -81 
Q 1253 -81 787 320 
Q 322 722 231 1491 
z
" transform="scale(0.015625)"/>
     </defs>
     <use xlink:href="#Arial-BoldMT-54"/>
     <use xlink:href="#Arial-BoldMT-65" transform="translate(53.708984 0)"/>
     <use xlink:href="#Arial-BoldMT-78" transform="translate(109.324219 0)"/>
     <use xlink:href="#Arial-BoldMT-74" transform="translate(164.939453 0)"/>
     <use xlink:href="#Arial-BoldMT-20" transform="translate(198.240234 0)"/>
     <use xlink:href="#Arial-BoldMT-55" transform="translate(226.023438 0)"/>
     <use xlink:href="#Arial-BoldMT-6e" transform="translate(298.240234 0)"/>
     <use xlink:href="#Arial-BoldMT-69" transform="translate(359.324219 0)"/>
     <use xlink:href="#Arial-BoldMT-20" transform="translate(387.107422 0)"/>
     <use xlink:href="#Arial-BoldMT-53" transform="translate(414.890625 0)"/>
     <use xlink:href="#Arial-BoldMT-45" transform="translate(481.589844 0)"/>
    </g>
    <!-- (128→64) -->
    <g style="fill: #ffffff" transform="translate(132.757578 474.884766) scale(0.07 -0.07)">
     <defs>
      <path id="Arial-BoldMT-34" d="M 1994 0 
L 1994 922 
L 119 922 
L 119 1691 
L 2106 4600 
L 2844 4600 
L 2844 1694 
L 3413 1694 
L 3413 922 
L 2844 922 
L 2844 0 
L 1994 0 
z
M 1994 1694 
L 1994 3259 
L 941 1694 
L 1994 1694 
z
" transform="scale(0.015625)"/>
     </defs>
     <use xlink:href="#Arial-BoldMT-28"/>
     <use xlink:href="#Arial-BoldMT-31" transform="translate(33.300781 0)"/>
     <use xlink:href="#Arial-BoldMT-32" transform="translate(88.916016 0)"/>
     <use xlink:href="#Arial-BoldMT-38" transform="translate(144.53125 0)"/>
     <use xlink:href="#Arial-BoldMT-2192" transform="translate(200.146484 0)"/>
     <use xlink:href="#Arial-BoldMT-36" transform="translate(300.146484 0)"/>
     <use xlink:href="#Arial-BoldMT-34" transform="translate(355.761719 0)"/>
     <use xlink:href="#Arial-BoldMT-29" transform="translate(411.376953 0)"/>
    </g>
   </g>
   <g id="text_11">
    <!-- Image Uni SE -->
    <g style="fill: #ffffff" transform="translate(196.513359 467.385141) scale(0.07 -0.07)">
     <use xlink:href="#Arial-BoldMT-49"/>
     <use xlink:href="#Arial-BoldMT-6d" transform="translate(27.783203 0)"/>
     <use xlink:href="#Arial-BoldMT-61" transform="translate(116.699219 0)"/>
     <use xlink:href="#Arial-BoldMT-67" transform="translate(172.314453 0)"/>
     <use xlink:href="#Arial-BoldMT-65" transform="translate(233.398438 0)"/>
     <use xlink:href="#Arial-BoldMT-20" transform="translate(289.013672 0)"/>
     <use xlink:href="#Arial-BoldMT-55" transform="translate(316.796875 0)"/>
     <use xlink:href="#Arial-BoldMT-6e" transform="translate(389.013672 0)"/>
     <use xlink:href="#Arial-BoldMT-69" transform="translate(450.097656 0)"/>
     <use xlink:href="#Arial-BoldMT-20" transform="translate(477.880859 0)"/>
     <use xlink:href="#Arial-BoldMT-53" transform="translate(505.664062 0)"/>
     <use xlink:href="#Arial-BoldMT-45" transform="translate(572.363281 0)"/>
    </g>
    <!-- (128→64) -->
    <g style="fill: #ffffff" transform="translate(203.317578 474.973359) scale(0.07 -0.07)">
     <use xlink:href="#Arial-BoldMT-28"/>
     <use xlink:href="#Arial-BoldMT-31" transform="translate(33.300781 0)"/>
     <use xlink:href="#Arial-BoldMT-32" transform="translate(88.916016 0)"/>
     <use xlink:href="#Arial-BoldMT-38" transform="translate(144.53125 0)"/>
     <use xlink:href="#Arial-BoldMT-2192" transform="translate(200.146484 0)"/>
     <use xlink:href="#Arial-BoldMT-36" transform="translate(300.146484 0)"/>
     <use xlink:href="#Arial-BoldMT-34" transform="translate(355.761719 0)"/>
     <use xlink:href="#Arial-BoldMT-29" transform="translate(411.376953 0)"/>
    </g>
   </g>
   <g id="text_12">
    <!-- Cross Module -->
    <g style="fill: #ffffff" transform="translate(548.540078 365.115141) scale(0.07 -0.07)">
     <defs>
      <path id="Arial-BoldMT-43" d="M 3397 1684 
L 4294 1400 
Q 4088 650 3608 286 
Q 3128 -78 2391 -78 
Q 1478 -78 890 545 
Q 303 1169 303 2250 
Q 303 3394 893 4026 
Q 1484 4659 2447 4659 
Q 3288 4659 3813 4163 
Q 4125 3869 4281 3319 
L 3366 3100 
Q 3284 3456 3026 3662 
Q 2769 3869 2400 3869 
Q 1891 3869 1573 3503 
Q 1256 3138 1256 2319 
Q 1256 1450 1568 1081 
Q 1881 713 2381 713 
Q 2750 713 3015 947 
Q 3281 1181 3397 1684 
z
" transform="scale(0.015625)"/>
      <path id="Arial-BoldMT-73" d="M 150 947 
L 1031 1081 
Q 1088 825 1259 692 
Q 1431 559 1741 559 
Q 2081 559 2253 684 
Q 2369 772 2369 919 
Q 2369 1019 2306 1084 
Q 2241 1147 2013 1200 
Q 950 1434 666 1628 
Q 272 1897 272 2375 
Q 272 2806 612 3100 
Q 953 3394 1669 3394 
Q 2350 3394 2681 3172 
Q 3013 2950 3138 2516 
L 2309 2363 
Q 2256 2556 2107 2659 
Q 1959 2763 1684 2763 
Q 1338 2763 1188 2666 
Q 1088 2597 1088 2488 
Q 1088 2394 1175 2328 
Q 1294 2241 1995 2081 
Q 2697 1922 2975 1691 
Q 3250 1456 3250 1038 
Q 3250 581 2869 253 
Q 2488 -75 1741 -75 
Q 1063 -75 667 200 
Q 272 475 150 947 
z
" transform="scale(0.015625)"/>
     </defs>
     <use xlink:href="#Arial-BoldMT-43"/>
     <use xlink:href="#Arial-BoldMT-72" transform="translate(72.216797 0)"/>
     <use xlink:href="#Arial-BoldMT-6f" transform="translate(111.132812 0)"/>
     <use xlink:href="#Arial-BoldMT-73" transform="translate(172.216797 0)"/>
     <use xlink:href="#Arial-BoldMT-73" transform="translate(227.832031 0)"/>
     <use xlink:href="#Arial-BoldMT-20" transform="translate(283.447266 0)"/>
     <use xlink:href="#Arial-BoldMT-4d" transform="translate(311.230469 0)"/>
     <use xlink:href="#Arial-BoldMT-6f" transform="translate(394.53125 0)"/>
     <use xlink:href="#Arial-BoldMT-64" transform="translate(455.615234 0)"/>
     <use xlink:href="#Arial-BoldMT-75" transform="translate(516.699219 0)"/>
     <use xlink:href="#Arial-BoldMT-6c" transform="translate(577.783203 0)"/>
     <use xlink:href="#Arial-BoldMT-65" transform="translate(605.566406 0)"/>
    </g>
    <!-- Text×Image→64 -->
    <g style="fill: #ffffff" transform="translate(545.190469 372.534047) scale(0.07 -0.07)">
     <defs>
      <path id="Arial-BoldMT-d7" d="M 347 1313 
L 1291 2256 
L 341 3203 
L 922 3784 
L 1872 2838 
L 2816 3781 
L 3381 3213 
L 2438 2269 
L 3391 1316 
L 2809 734 
L 1856 1688 
L 913 744 
L 347 1313 
z
" transform="scale(0.015625)"/>
     </defs>
     <use xlink:href="#Arial-BoldMT-54"/>
     <use xlink:href="#Arial-BoldMT-65" transform="translate(53.708984 0)"/>
     <use xlink:href="#Arial-BoldMT-78" transform="translate(109.324219 0)"/>
     <use xlink:href="#Arial-BoldMT-74" transform="translate(164.939453 0)"/>
     <use xlink:href="#Arial-BoldMT-d7" transform="translate(198.240234 0)"/>
     <use xlink:href="#Arial-BoldMT-49" transform="translate(256.638672 0)"/>
     <use xlink:href="#Arial-BoldMT-6d" transform="translate(284.421875 0)"/>
     <use xlink:href="#Arial-BoldMT-61" transform="translate(373.337891 0)"/>
     <use xlink:href="#Arial-BoldMT-67" transform="translate(428.953125 0)"/>
     <use xlink:href="#Arial-BoldMT-65" transform="translate(490.037109 0)"/>
     <use xlink:href="#Arial-BoldMT-2192" transform="translate(545.652344 0)"/>
     <use xlink:href="#Arial-BoldMT-36" transform="translate(645.652344 0)"/>
     <use xlink:href="#Arial-BoldMT-34" transform="translate(701.267578 0)"/>
    </g>
   </g>
   <g id="text_13">
    <!-- SE Attention -->
    <g style="fill: #ffffff" transform="translate(868.333984 365.076422) scale(0.07 -0.07)">
     <use xlink:href="#Arial-BoldMT-53"/>
     <use xlink:href="#Arial-BoldMT-45" transform="translate(66.699219 0)"/>
     <use xlink:href="#Arial-BoldMT-20" transform="translate(133.398438 0)"/>
     <use xlink:href="#Arial-BoldMT-41" transform="translate(157.431641 0)"/>
     <use xlink:href="#Arial-BoldMT-74" transform="translate(229.648438 0)"/>
     <use xlink:href="#Arial-BoldMT-74" transform="translate(262.949219 0)"/>
     <use xlink:href="#Arial-BoldMT-65" transform="translate(296.25 0)"/>
     <use xlink:href="#Arial-BoldMT-6e" transform="translate(351.865234 0)"/>
     <use xlink:href="#Arial-BoldMT-74" transform="translate(412.949219 0)"/>
     <use xlink:href="#Arial-BoldMT-69" transform="translate(446.25 0)"/>
     <use xlink:href="#Arial-BoldMT-6f" transform="translate(474.033203 0)"/>
     <use xlink:href="#Arial-BoldMT-6e" transform="translate(535.117188 0)"/>
    </g>
    <!-- Weights (B,3) -->
    <g style="fill: #ffffff" transform="translate(866.902266 372.572766) scale(0.07 -0.07)">
     <defs>
      <path id="Arial-BoldMT-57" d="M 1116 0 
L 22 4581 
L 969 4581 
L 1659 1434 
L 2497 4581 
L 3597 4581 
L 4400 1381 
L 5103 4581 
L 6034 4581 
L 4922 0 
L 3941 0 
L 3028 3425 
L 2119 0 
L 1116 0 
z
" transform="scale(0.015625)"/>
     </defs>
     <use xlink:href="#Arial-BoldMT-57"/>
     <use xlink:href="#Arial-BoldMT-65" transform="translate(92.634766 0)"/>
     <use xlink:href="#Arial-BoldMT-69" transform="translate(148.25 0)"/>
     <use xlink:href="#Arial-BoldMT-67" transform="translate(176.033203 0)"/>
     <use xlink:href="#Arial-BoldMT-68" transform="translate(237.117188 0)"/>
     <use xlink:href="#Arial-BoldMT-74" transform="translate(298.201172 0)"/>
     <use xlink:href="#Arial-BoldMT-73" transform="translate(331.501953 0)"/>
     <use xlink:href="#Arial-BoldMT-20" transform="translate(387.117188 0)"/>
     <use xlink:href="#Arial-BoldMT-28" transform="translate(414.900391 0)"/>
     <use xlink:href="#Arial-BoldMT-42" transform="translate(448.201172 0)"/>
     <use xlink:href="#Arial-BoldMT-2c" transform="translate(520.417969 0)"/>
     <use xlink:href="#Arial-BoldMT-33" transform="translate(548.201172 0)"/>
     <use xlink:href="#Arial-BoldMT-29" transform="translate(603.816406 0)"/>
    </g>
   </g>
   <g id="text_14">
    <!-- Text Final -->
    <g style="fill: #ffffff" transform="translate(185.163516 548.532422) scale(0.07 -0.07)">
     <defs>
      <path id="Arial-BoldMT-46" d="M 472 0 
L 472 4581 
L 3613 4581 
L 3613 3806 
L 1397 3806 
L 1397 2722 
L 3309 2722 
L 3309 1947 
L 1397 1947 
L 1397 0 
L 472 0 
z
" transform="scale(0.015625)"/>
     </defs>
     <use xlink:href="#Arial-BoldMT-54"/>
     <use xlink:href="#Arial-BoldMT-65" transform="translate(53.708984 0)"/>
     <use xlink:href="#Arial-BoldMT-78" transform="translate(109.324219 0)"/>
     <use xlink:href="#Arial-BoldMT-74" transform="translate(164.939453 0)"/>
     <use xlink:href="#Arial-BoldMT-20" transform="translate(198.240234 0)"/>
     <use xlink:href="#Arial-BoldMT-46" transform="translate(226.023438 0)"/>
     <use xlink:href="#Arial-BoldMT-69" transform="translate(287.107422 0)"/>
     <use xlink:href="#Arial-BoldMT-6e" transform="translate(314.890625 0)"/>
     <use xlink:href="#Arial-BoldMT-61" transform="translate(375.974609 0)"/>
     <use xlink:href="#Arial-BoldMT-6c" transform="translate(431.589844 0)"/>
    </g>
    <!-- (B, 16) -->
    <g style="fill: #ffffff" transform="translate(190.544219 556.028766) scale(0.07 -0.07)">
     <use xlink:href="#Arial-BoldMT-28"/>
     <use xlink:href="#Arial-BoldMT-42" transform="translate(33.300781 0)"/>
     <use xlink:href="#Arial-BoldMT-2c" transform="translate(105.517578 0)"/>
     <use xlink:href="#Arial-BoldMT-20" transform="translate(133.300781 0)"/>
     <use xlink:href="#Arial-BoldMT-31" transform="translate(161.083984 0)"/>
     <use xlink:href="#Arial-BoldMT-36" transform="translate(216.699219 0)"/>
     <use xlink:href="#Arial-BoldMT-29" transform="translate(272.314453 0)"/>
    </g>
   </g>
   <g id="text_15">
    <!-- Image Final -->
    <g style="fill: #ffffff" transform="translate(852.306172 548.486484) scale(0.07 -0.07)">
     <use xlink:href="#Arial-BoldMT-49"/>
     <use xlink:href="#Arial-BoldMT-6d" transform="translate(27.783203 0)"/>
     <use xlink:href="#Arial-BoldMT-61" transform="translate(116.699219 0)"/>
     <use xlink:href="#Arial-BoldMT-67" transform="translate(172.314453 0)"/>
     <use xlink:href="#Arial-BoldMT-65" transform="translate(233.398438 0)"/>
     <use xlink:href="#Arial-BoldMT-20" transform="translate(289.013672 0)"/>
     <use xlink:href="#Arial-BoldMT-46" transform="translate(316.796875 0)"/>
     <use xlink:href="#Arial-BoldMT-69" transform="translate(377.880859 0)"/>
     <use xlink:href="#Arial-BoldMT-6e" transform="translate(405.664062 0)"/>
     <use xlink:href="#Arial-BoldMT-61" transform="translate(466.748047 0)"/>
     <use xlink:href="#Arial-BoldMT-6c" transform="translate(522.363281 0)"/>
    </g>
    <!-- (B, 16) -->
    <g style="fill: #ffffff" transform="translate(860.864219 556.074703) scale(0.07 -0.07)">
     <use xlink:href="#Arial-BoldMT-28"/>
     <use xlink:href="#Arial-BoldMT-42" transform="translate(33.300781 0)"/>
     <use xlink:href="#Arial-BoldMT-2c" transform="translate(105.517578 0)"/>
     <use xlink:href="#Arial-BoldMT-20" transform="translate(133.300781 0)"/>
     <use xlink:href="#Arial-BoldMT-31" transform="translate(161.083984 0)"/>
     <use xlink:href="#Arial-BoldMT-36" transform="translate(216.699219 0)"/>
     <use xlink:href="#Arial-BoldMT-29" transform="translate(272.314453 0)"/>
    </g>
   </g>
   <g id="text_16">
    <!-- Correlation -->
    <g style="fill: #ffffff" transform="translate(535.371875 548.532422) scale(0.07 -0.07)">
     <use xlink:href="#Arial-BoldMT-43"/>
     <use xlink:href="#Arial-BoldMT-6f" transform="translate(72.216797 0)"/>
     <use xlink:href="#Arial-BoldMT-72" transform="translate(133.300781 0)"/>
     <use xlink:href="#Arial-BoldMT-72" transform="translate(172.216797 0)"/>
     <use xlink:href="#Arial-BoldMT-65" transform="translate(211.132812 0)"/>
     <use xlink:href="#Arial-BoldMT-6c" transform="translate(266.748047 0)"/>
     <use xlink:href="#Arial-BoldMT-61" transform="translate(294.53125 0)"/>
     <use xlink:href="#Arial-BoldMT-74" transform="translate(350.146484 0)"/>
     <use xlink:href="#Arial-BoldMT-69" transform="translate(383.447266 0)"/>
     <use xlink:href="#Arial-BoldMT-6f" transform="translate(411.230469 0)"/>
     <use xlink:href="#Arial-BoldMT-6e" transform="translate(472.314453 0)"/>
    </g>
    <!-- (B, 64) -->
    <g style="fill: #ffffff" transform="translate(543.344219 556.028766) scale(0.07 -0.07)">
     <use xlink:href="#Arial-BoldMT-28"/>
     <use xlink:href="#Arial-BoldMT-42" transform="translate(33.300781 0)"/>
     <use xlink:href="#Arial-BoldMT-2c" transform="translate(105.517578 0)"/>
     <use xlink:href="#Arial-BoldMT-20" transform="translate(133.300781 0)"/>
     <use xlink:href="#Arial-BoldMT-36" transform="translate(161.083984 0)"/>
     <use xlink:href="#Arial-BoldMT-34" transform="translate(216.699219 0)"/>
     <use xlink:href="#Arial-BoldMT-29" transform="translate(272.314453 0)"/>
    </g>
   </g>
   <g id="text_17">
    <!-- Feature Concatenation -->
    <g style="fill: #ffffff" transform="translate(533.760781 647.316422) scale(0.07 -0.07)">
     <use xlink:href="#Arial-BoldMT-46"/>
     <use xlink:href="#Arial-BoldMT-65" transform="translate(61.083984 0)"/>
     <use xlink:href="#Arial-BoldMT-61" transform="translate(116.699219 0)"/>
     <use xlink:href="#Arial-BoldMT-74" transform="translate(172.314453 0)"/>
     <use xlink:href="#Arial-BoldMT-75" transform="translate(205.615234 0)"/>
     <use xlink:href="#Arial-BoldMT-72" transform="translate(266.699219 0)"/>
     <use xlink:href="#Arial-BoldMT-65" transform="translate(305.615234 0)"/>
     <use xlink:href="#Arial-BoldMT-20" transform="translate(361.230469 0)"/>
     <use xlink:href="#Arial-BoldMT-43" transform="translate(389.013672 0)"/>
     <use xlink:href="#Arial-BoldMT-6f" transform="translate(461.230469 0)"/>
     <use xlink:href="#Arial-BoldMT-6e" transform="translate(522.314453 0)"/>
     <use xlink:href="#Arial-BoldMT-63" transform="translate(583.398438 0)"/>
     <use xlink:href="#Arial-BoldMT-61" transform="translate(639.013672 0)"/>
     <use xlink:href="#Arial-BoldMT-74" transform="translate(694.628906 0)"/>
     <use xlink:href="#Arial-BoldMT-65" transform="translate(727.929688 0)"/>
     <use xlink:href="#Arial-BoldMT-6e" transform="translate(783.544922 0)"/>
     <use xlink:href="#Arial-BoldMT-61" transform="translate(844.628906 0)"/>
     <use xlink:href="#Arial-BoldMT-74" transform="translate(900.244141 0)"/>
     <use xlink:href="#Arial-BoldMT-69" transform="translate(933.544922 0)"/>
     <use xlink:href="#Arial-BoldMT-6f" transform="translate(961.328125 0)"/>
     <use xlink:href="#Arial-BoldMT-6e" transform="translate(1022.412109 0)"/>
    </g>
    <!-- Concat→(B,96) -->
    <g style="fill: #ffffff" transform="translate(546.595391 654.812766) scale(0.07 -0.07)">
     <defs>
      <path id="Arial-BoldMT-39" d="M 291 1059 
L 1141 1153 
Q 1172 894 1303 769 
Q 1434 644 1650 644 
Q 1922 644 2112 894 
Q 2303 1144 2356 1931 
Q 2025 1547 1528 1547 
Q 988 1547 595 1964 
Q 203 2381 203 3050 
Q 203 3747 617 4173 
Q 1031 4600 1672 4600 
Q 2369 4600 2816 4061 
Q 3263 3522 3263 2288 
Q 3263 1031 2797 475 
Q 2331 -81 1584 -81 
Q 1047 -81 715 205 
Q 384 491 291 1059 
z
M 2278 2978 
Q 2278 3403 2083 3637 
Q 1888 3872 1631 3872 
Q 1388 3872 1227 3680 
Q 1066 3488 1066 3050 
Q 1066 2606 1241 2398 
Q 1416 2191 1678 2191 
Q 1931 2191 2104 2391 
Q 2278 2591 2278 2978 
z
" transform="scale(0.015625)"/>
     </defs>
     <use xlink:href="#Arial-BoldMT-43"/>
     <use xlink:href="#Arial-BoldMT-6f" transform="translate(72.216797 0)"/>
     <use xlink:href="#Arial-BoldMT-6e" transform="translate(133.300781 0)"/>
     <use xlink:href="#Arial-BoldMT-63" transform="translate(194.384766 0)"/>
     <use xlink:href="#Arial-BoldMT-61" transform="translate(250 0)"/>
     <use xlink:href="#Arial-BoldMT-74" transform="translate(305.615234 0)"/>
     <use xlink:href="#Arial-BoldMT-2192" transform="translate(338.916016 0)"/>
     <use xlink:href="#Arial-BoldMT-28" transform="translate(438.916016 0)"/>
     <use xlink:href="#Arial-BoldMT-42" transform="translate(472.216797 0)"/>
     <use xlink:href="#Arial-BoldMT-2c" transform="translate(544.433594 0)"/>
     <use xlink:href="#Arial-BoldMT-39" transform="translate(572.216797 0)"/>
     <use xlink:href="#Arial-BoldMT-36" transform="translate(627.832031 0)"/>
     <use xlink:href="#Arial-BoldMT-29" transform="translate(683.447266 0)"/>
    </g>
   </g>
   <g id="text_18">
    <!-- Final Classifier -->
    <g style="fill: #ffffff" transform="translate(546.783516 753.156422) scale(0.07 -0.07)">
     <defs>
      <path id="Arial-BoldMT-66" d="M 75 3319 
L 563 3319 
L 563 3569 
Q 563 3988 652 4194 
Q 741 4400 980 4529 
Q 1219 4659 1584 4659 
Q 1959 4659 2319 4547 
L 2200 3934 
Q 1991 3984 1797 3984 
Q 1606 3984 1523 3895 
Q 1441 3806 1441 3553 
L 1441 3319 
L 2097 3319 
L 2097 2628 
L 1441 2628 
L 1441 0 
L 563 0 
L 563 2628 
L 75 2628 
L 75 3319 
z
" transform="scale(0.015625)"/>
     </defs>
     <use xlink:href="#Arial-BoldMT-46"/>
     <use xlink:href="#Arial-BoldMT-69" transform="translate(61.083984 0)"/>
     <use xlink:href="#Arial-BoldMT-6e" transform="translate(88.867188 0)"/>
     <use xlink:href="#Arial-BoldMT-61" transform="translate(149.951172 0)"/>
     <use xlink:href="#Arial-BoldMT-6c" transform="translate(205.566406 0)"/>
     <use xlink:href="#Arial-BoldMT-20" transform="translate(233.349609 0)"/>
     <use xlink:href="#Arial-BoldMT-43" transform="translate(261.132812 0)"/>
     <use xlink:href="#Arial-BoldMT-6c" transform="translate(333.349609 0)"/>
     <use xlink:href="#Arial-BoldMT-61" transform="translate(361.132812 0)"/>
     <use xlink:href="#Arial-BoldMT-73" transform="translate(416.748047 0)"/>
     <use xlink:href="#Arial-BoldMT-73" transform="translate(472.363281 0)"/>
     <use xlink:href="#Arial-BoldMT-69" transform="translate(527.978516 0)"/>
     <use xlink:href="#Arial-BoldMT-66" transform="translate(555.761719 0)"/>
     <use xlink:href="#Arial-BoldMT-69" transform="translate(589.0625 0)"/>
     <use xlink:href="#Arial-BoldMT-65" transform="translate(616.845703 0)"/>
     <use xlink:href="#Arial-BoldMT-72" transform="translate(672.460938 0)"/>
    </g>
    <!-- (96→64→64→2) -->
    <g style="fill: #ffffff" transform="translate(545.224922 760.652766) scale(0.07 -0.07)">
     <use xlink:href="#Arial-BoldMT-28"/>
     <use xlink:href="#Arial-BoldMT-39" transform="translate(33.300781 0)"/>
     <use xlink:href="#Arial-BoldMT-36" transform="translate(88.916016 0)"/>
     <use xlink:href="#Arial-BoldMT-2192" transform="translate(144.53125 0)"/>
     <use xlink:href="#Arial-BoldMT-36" transform="translate(244.53125 0)"/>
     <use xlink:href="#Arial-BoldMT-34" transform="translate(300.146484 0)"/>
     <use xlink:href="#Arial-BoldMT-2192" transform="translate(355.761719 0)"/>
     <use xlink:href="#Arial-BoldMT-36" transform="translate(455.761719 0)"/>
     <use xlink:href="#Arial-BoldMT-34" transform="translate(511.376953 0)"/>
     <use xlink:href="#Arial-BoldMT-2192" transform="translate(566.992188 0)"/>
     <use xlink:href="#Arial-BoldMT-32" transform="translate(666.992188 0)"/>
     <use xlink:href="#Arial-BoldMT-29" transform="translate(722.607422 0)"/>
    </g>
   </g>
  </g>
 </g>
 <defs>
  <clipPath id="p2990ea5404">
   <rect x="7.2" y="7.2" width="1128.96" height="846.72"/>
  </clipPath>
 </defs>
</svg>
